<svg width="42" height="38" viewBox="0 0 42 38" fill="none" xmlns="http://www.w3.org/2000/svg">
<path fill-rule="evenodd" clip-rule="evenodd" d="M29 0C28.4477 0 28 0.447715 28 1C28 1.55228 28.4477 2 29 2H35C35.5523 2 36 1.55228 36 1C36 0.447715 35.5523 0 35 0H29ZM29 6C28.4477 6 28 6.44772 28 7V22H3C2.44772 22 2 22.4477 2 23V31C2 31.5523 2.44772 32 3 32H6.10002C6.03443 32.3231 6 32.6575 6 33C6 35.7614 8.23858 38 11 38C13.7614 38 16 35.7614 16 33C16 32.6575 15.9656 32.3231 15.9 32H29C29.0341 32 29.0678 31.9983 29.101 31.995C29.0348 32.3196 29 32.6558 29 33C29 35.7614 31.2386 38 34 38C36.7614 38 39 35.7614 39 33C39 32.6575 38.9656 32.3231 38.9 32H41C41.5523 32 42 31.5523 42 31V19C42 18.8562 41.969 18.7141 41.9091 18.5833L36.4091 6.58335C36.2462 6.22789 35.891 6 35.5 6H29ZM15.0004 30H28V24H4V30H6.99963C7.91184 28.7856 9.36418 28 11 28C12.6358 28 14.0882 28.7856 15.0004 30ZM34 28C32.3644 28 30.9122 28.7853 30 29.9995V8H34.8583L40 19.2183V30H38.0004C37.0882 28.7856 35.6358 28 34 28ZM1.00001 2C0.698017 2 0.412199 2.13647 0.222343 2.37132C0.032487 2.60617 -0.0410697 2.91424 0.0222065 3.20953L3.02221 17.2095C3.12101 17.6706 3.52847 18 4.00001 18H23C23.5523 18 24 17.5523 24 17V3C24 2.44772 23.5523 2 23 2H1.00001ZM4.80842 16L2.237 4H22V16H4.80842ZM34 30C32.3431 30 31 31.3431 31 33C31 34.6569 32.3431 36 34 36C35.6569 36 37 34.6569 37 33C37 31.3431 35.6569 30 34 30ZM8 33C8 31.3431 9.34315 30 11 30C12.6569 30 14 31.3431 14 33C14 34.6569 12.6569 36 11 36C9.34315 36 8 34.6569 8 33Z" fill="#458985"/>
</svg>
