<svg width="63" height="42" viewBox="0 0 63 42" fill="none" xmlns="http://www.w3.org/2000/svg">
<path d="M49.8784 34.724C53.7658 34.724 56.8956 31.5613 56.8956 27.7067C56.8956 23.8192 53.7329 20.6895 49.8784 20.6895C45.9909 20.6895 42.8611 23.8522 42.8611 27.7067C42.8282 31.5613 45.9909 34.724 49.8784 34.724ZM49.8784 22.2049C52.9093 22.2049 55.3472 24.6758 55.3472 27.6738C55.3472 30.6717 52.8763 33.1426 49.8784 33.1426C46.8474 33.1426 44.4095 30.6717 44.4095 27.6738C44.4095 24.6758 46.8474 22.2049 49.8784 22.2049Z" fill="#458985"/>
<path d="M4.15137 30.8695C4.15137 34.1969 6.85285 36.9313 10.2132 36.9313C13.5407 36.9313 16.2751 34.2299 16.2751 30.8695C16.2751 27.542 13.5736 24.8076 10.2132 24.8076C6.85285 24.8076 4.15137 27.5091 4.15137 30.8695ZM14.6937 30.8695C14.6937 33.3403 12.6841 35.3829 10.1803 35.3829C7.67647 35.3829 5.66683 33.3733 5.66683 30.8695C5.66683 28.3657 7.67647 26.356 10.1803 26.356C12.6841 26.356 14.6937 28.3657 14.6937 30.8695Z" fill="#458985"/>
<path d="M47.3417 3.12988H35.811L32.813 12.0909L44.1131 10.3448C46.0898 10.0483 47.5393 8.30223 47.4735 6.32554L47.3417 3.12988ZM43.8495 8.7964L35.0862 10.1471L36.9311 4.6783H45.8592L45.925 6.35848C45.925 7.5445 45.0685 8.59873 43.8495 8.7964Z" fill="#458985"/>
<path d="M61.2116 18.1526L62.5623 17.3619C59.2678 11.7613 54.392 10.5424 50.6692 10.5753V2.5697C50.6692 1.15307 49.5161 0 48.0995 0H35.1192C33.9991 0 33.0108 0.658899 32.6154 1.71313L29.255 10.2459L14.957 13.6392C11.926 14.364 9.78463 17.0325 9.78463 20.1623V20.6894C4.34872 20.92 0 25.4005 0 30.8693C0 36.5029 4.57934 41.0822 10.2129 41.0822C15.8465 41.0822 20.4258 36.5029 20.4258 30.8693C20.4258 30.7705 20.4258 30.7046 20.4258 30.6058H38.3149C39.6327 35.7781 44.3108 39.6327 49.8785 39.6327C56.4675 39.6327 61.8375 34.2627 61.8375 27.6737C61.8375 21.0847 56.4675 15.7147 49.8785 15.7147C43.2896 15.7147 37.9195 21.0847 37.9195 27.6737C37.9195 28.1349 37.9525 28.5961 38.0184 29.0244H20.2611C19.4704 24.6428 15.8465 21.2165 11.366 20.6894V20.1293C11.366 17.7243 12.9803 15.6818 15.3194 15.1217L30.4081 11.5307L34.032 2.24025C34.1968 1.81197 34.6251 1.51546 35.0863 1.51546H48.0666C48.6266 1.51546 49.0549 1.97669 49.0549 2.50381V10.6082C46.8805 10.8059 45.3651 11.366 45.3321 11.3989L45.8922 12.8485C46.3205 12.7497 55.9404 9.22456 61.2116 18.1526ZM49.8785 17.2961C55.6109 17.2961 60.2562 21.9413 60.2562 27.6737C60.2562 33.4061 55.6109 38.0513 49.8785 38.0513C44.1461 38.0513 39.5009 33.4061 39.5009 27.6737C39.5009 21.9413 44.1461 17.2961 49.8785 17.2961ZM18.8445 30.8693C18.8445 35.6463 14.957 39.5338 10.18 39.5338C5.40296 39.5338 1.51546 35.6463 1.51546 30.8693C1.51546 26.0923 5.40296 22.2048 10.18 22.2048C14.957 22.2048 18.8445 26.0923 18.8445 30.8693Z" fill="#458985"/>
</svg>
