<svg width="78" height="43" viewBox="0 0 78 43" fill="none" xmlns="http://www.w3.org/2000/svg">
<path fill-rule="evenodd" clip-rule="evenodd" d="M1 1.0625C-1.19209e-07 1.0625 -1.19127e-07 1.06273 0 1.06306L2.9266e-05 1.08223L0.000224471 1.13627C0.000445545 1.18353 0.000884354 1.25304 0.00175512 1.3436C0.00349653 1.52471 0.00696599 1.79001 0.0138787 2.12972C0.0277027 2.80907 0.0553056 3.78644 0.110434 4.9835C0.220627 7.37627 0.441093 10.6535 0.882722 14.1865C1.32388 17.7158 1.98844 21.5229 2.99312 24.9675C3.99173 28.3913 5.3543 31.5574 7.24742 33.721C10.9608 37.9649 16.2192 39.7778 20.4461 40.5464C22.5713 40.9328 24.4687 41.0613 25.8359 41.0935C26.5202 41.1096 27.0739 41.1016 27.4595 41.0893C27.6523 41.0832 27.8032 41.076 27.9076 41.0702C27.9228 41.0694 27.937 41.0686 27.9503 41.0678C27.9824 41.0659 28.0087 41.0643 28.0288 41.0629L28.0621 41.0606L28.0718 41.0599L28.0759 41.0596C28.0763 41.0596 28.0767 41.0596 28 40.0625L28.0759 41.0596C28.6266 41.0173 29.0394 40.5365 28.9971 39.9858C28.9547 39.4353 28.4742 39.0233 27.9238 39.0654L27.919 39.0658L27.8962 39.0673C27.8871 39.0679 27.8757 39.0687 27.8621 39.0695C27.8441 39.0706 27.8224 39.0719 27.797 39.0733C27.7075 39.0783 27.5723 39.0848 27.396 39.0903C27.0433 39.1015 26.5266 39.1092 25.8829 39.094C24.5938 39.0637 22.8037 38.9422 20.8039 38.5786C16.7808 37.8472 12.0392 36.1601 8.75258 32.404C7.1457 30.5676 5.88327 27.7337 4.91313 24.4075C3.94906 21.1021 3.30112 17.4092 2.86728 13.9385C2.43391 10.4715 2.21687 7.24873 2.10832 4.8915C2.05407 3.71356 2.02698 2.75343 2.01346 2.08903C2.01308 2.06989 2.0127 2.05099 2.01233 2.03234C2.03134 2.03189 2.0506 2.03143 2.07012 2.03098C2.73524 2.01551 3.69618 2 4.875 2C7.23392 2 10.4591 2.06212 13.9288 2.30996C17.4022 2.55806 21.0989 2.99082 24.4081 3.72619C27.742 4.46705 30.5731 5.49231 32.4 6.8625C36.0346 9.58845 37.5082 14.944 38.005 19.912C38.2492 22.3543 38.2495 24.6191 38.1882 26.2755C38.1576 27.1025 38.1117 27.775 38.0737 28.2386C38.0547 28.4704 38.0377 28.6497 38.0255 28.7698C38.0195 28.8299 38.0147 28.8752 38.0114 28.9048L38.0078 28.9373L38.0069 28.9457C37.9425 29.494 38.3348 29.9911 38.8832 30.0557C39.4317 30.1202 39.9286 29.7278 39.9931 29.1793L39 29.0625C39.9931 29.1793 39.9931 29.1797 39.9931 29.1793L39.9934 29.1776L39.9937 29.1743L39.995 29.163L39.9996 29.1223C40.0034 29.0872 40.0088 29.0363 40.0155 28.9704C40.0288 28.8386 40.0469 28.6468 40.067 28.402C40.1071 27.9125 40.1549 27.21 40.1868 26.3495C40.2505 24.6309 40.2508 22.2707 39.995 19.713C39.4918 14.681 37.9654 8.53655 33.6 5.2625C31.4269 3.63269 28.258 2.53295 24.8419 1.77381C21.4011 1.00918 17.5978 0.566936 14.0712 0.315041C10.5409 0.0628764 7.26608 0 4.875 0C3.67882 0 2.70226 0.0157381 2.02363 0.0315203C1.68427 0.0394122 1.41932 0.0473175 1.23854 0.0532774C1.14814 0.0562574 1.07878 0.0587513 1.03168 0.0605143L0.977879 0.0625804L0.958901 0.0633448C0.95859 0.0633578 0.958369 0.0633669 1 1.0625ZM1 1.0625L0.958901 0.0633448C0.423274 0.0856626 0 0.526968 0 1.06306L1 1.0625ZM12.6073 9.14282C13.1152 8.926 13.7026 9.16181 13.9195 9.66952L13.9207 9.67231L13.9265 9.68549L13.9518 9.74331C13.975 9.79562 14.0106 9.87512 14.0588 9.98004C14.1551 10.1899 14.3017 10.5013 14.4994 10.9001C14.8948 11.6977 15.4943 12.8437 16.3048 14.2242C17.665 16.5407 19.615 19.5101 22.1866 22.5982L23.0029 11.9858C23.0453 11.4351 23.526 11.0231 24.0767 11.0654C24.6274 11.1078 25.0394 11.5885 24.9971 12.1392L24.0302 24.7088C27.3567 28.3393 31.6657 32.1666 35.1997 35.1276C37.0143 36.648 38.617 37.9337 39.7656 38.839C40.3398 39.2915 40.8002 39.6488 41.1166 39.8925C41.2748 40.0144 41.3969 40.1079 41.4792 40.1707L41.5724 40.2415L41.6026 40.2645L41 41.0625C40.3971 41.8603 40.397 41.8602 40.3968 41.8601L40.3881 41.8535L40.3631 41.8345L40.2663 41.7609C40.1815 41.6962 40.0568 41.6008 39.896 41.4769C39.5743 41.2291 39.108 40.8673 38.5276 40.4097C37.3668 39.4949 35.7482 38.1964 33.9153 36.6606C30.3483 33.672 25.9408 29.7609 22.5184 26.0193L12.9005 25.0575C12.351 25.0026 11.95 24.5125 12.005 23.963C12.0599 23.4135 12.55 23.0125 13.0995 23.0675L20.5993 23.8174C17.9683 20.6498 15.9738 17.6104 14.5802 15.2368C13.7432 13.8113 13.1214 12.6233 12.7075 11.7884C12.5005 11.3709 12.3454 11.0415 12.2412 10.8145C12.1891 10.701 12.1497 10.6131 12.1229 10.5527L12.0922 10.4827L12.0839 10.4635L12.0815 10.458L12.0808 10.4562C12.0807 10.456 12.0803 10.4552 13 10.0625L12.0803 10.4552C11.8635 9.94724 12.0994 9.35968 12.6073 9.14282ZM41 41.0625L40.3968 41.8601C40.8375 42.1931 41.4648 42.106 41.7978 41.6654C42.1308 41.2248 42.0432 40.5975 41.6026 40.2645L41 41.0625Z" fill="#458985"/>
<path fill-rule="evenodd" clip-rule="evenodd" d="M76.3382 13.7585C76.3522 13.0565 76.352 13.0565 76.3518 13.0565L76.3383 13.0562L76.3004 13.0556C76.2672 13.0551 76.2184 13.0544 76.1548 13.0538C76.0276 13.0525 75.8413 13.0512 75.6027 13.0513C75.1255 13.0515 74.439 13.0573 73.5977 13.0793C71.9163 13.1232 69.6123 13.2323 67.1256 13.4931C64.6417 13.7535 61.9595 14.167 59.527 14.8243C57.1093 15.4776 54.8674 16.3901 53.3219 17.689C50.2905 20.2369 48.9443 23.9034 48.3457 26.8604C48.0448 28.3471 47.9281 29.6774 47.8864 30.6368C47.8655 31.1171 47.8634 31.506 47.8666 31.7768C47.8682 31.9123 47.8712 32.0184 47.8738 32.0917C47.8742 32.1024 47.8745 32.1124 47.8749 32.1217C47.8758 32.1443 47.8766 32.1627 47.8772 32.1769L47.8784 32.2003L47.8787 32.2071L47.8789 32.21C47.8789 32.2103 47.8789 32.2106 48.58 32.1706L47.8789 32.21C47.901 32.5972 48.2328 32.8938 48.62 32.8717C49.007 32.8497 49.303 32.5181 49.2811 32.1311L49.281 32.1277L49.2802 32.1117C49.2799 32.1052 49.2795 32.0972 49.2791 32.0877C49.2786 32.0751 49.278 32.0598 49.2774 32.0419C49.2751 31.979 49.2725 31.884 49.271 31.7602C49.2681 31.5123 49.2699 31.1495 49.2895 30.6978C49.3288 29.7931 49.4391 28.538 49.7223 27.1391C50.2919 24.3247 51.5426 21.0192 54.2256 18.7642C55.5373 17.6616 57.5446 16.8148 59.8934 16.1801C62.2275 15.5494 64.8293 15.146 67.2721 14.8899C69.7123 14.634 71.978 14.5266 73.6345 14.4832C74.4622 14.4616 75.1367 14.456 75.6034 14.4558C75.6168 14.4558 75.6301 14.4558 75.6432 14.4558C75.6432 14.4691 75.6433 14.4826 75.6433 14.4964C75.6449 14.9635 75.6424 15.6384 75.6259 16.4661C75.593 18.1222 75.5044 20.3857 75.282 22.8183C75.0593 25.2535 74.7039 27.8428 74.1414 30.1559C73.5747 32.4862 72.8154 34.4596 71.8279 35.7231C69.8633 38.2369 66.0827 39.1967 62.5878 39.4762C60.8697 39.6136 59.2796 39.5822 58.1175 39.516C57.5373 39.483 57.0658 39.4414 56.7408 39.4082C56.5784 39.3917 56.4527 39.3772 56.3685 39.367C56.3265 39.362 56.2947 39.3579 56.274 39.3552L56.2512 39.3523L56.2454 39.3515C55.8613 39.2986 55.5068 39.5671 55.4538 39.9512C55.4009 40.3354 55.6694 40.6898 56.0536 40.7428L56.1495 40.0471C56.0536 40.7428 56.0533 40.7427 56.0536 40.7428L56.0548 40.7429L56.0571 40.7432L56.065 40.7443L56.0935 40.7481C56.1181 40.7512 56.1538 40.7558 56.2 40.7613C56.2923 40.7725 56.4267 40.7879 56.5983 40.8054C56.9414 40.8404 57.434 40.8838 58.0377 40.9182C59.2434 40.9869 60.9004 41.0201 62.6998 40.8762C66.2397 40.5931 70.5749 39.6072 72.9345 36.588C74.1091 35.085 74.9254 32.8756 75.5061 30.4877C76.091 28.0826 76.4545 25.4185 76.6806 22.9461C76.9069 20.4711 76.9967 18.1727 77.0301 16.494C77.0468 15.6541 77.0494 14.9683 77.0478 14.4916C77.047 14.2532 77.0451 14.0671 77.0435 13.9401C77.0426 13.8766 77.0418 13.8279 77.0413 13.7948L77.0406 13.757L77.0403 13.7436C77.0403 13.7434 77.0403 13.7433 76.3382 13.7585ZM76.3382 13.7585L77.0403 13.7436C77.0321 13.3673 76.7282 13.0639 76.3518 13.0565L76.3382 13.7585ZM70.5031 21.7951C70.6483 22.1547 70.4745 22.5638 70.115 22.7091L70.1131 22.7099L70.1037 22.7137L70.0628 22.7307C70.0257 22.7462 69.9694 22.7701 69.8951 22.8025C69.7464 22.8672 69.5257 22.9658 69.243 23.099C68.6775 23.3655 67.8645 23.7704 66.884 24.3202C65.2386 25.2428 63.1266 26.5705 60.9226 28.3329L68.3621 29.0541C68.7481 29.0915 69.0307 29.4348 68.9932 29.8208C68.9558 30.2068 68.6125 30.4894 68.2265 30.452L59.415 29.5977C56.8197 31.8826 54.0725 34.8545 51.9443 37.2944C50.8515 38.5471 49.9265 39.6544 49.2749 40.4482C48.9491 40.845 48.6919 41.1633 48.5163 41.382C48.4285 41.4914 48.3612 41.5758 48.316 41.6327L48.2649 41.6971L48.2484 41.7181L47.6965 41.2838C47.1448 40.8494 47.1449 40.8493 47.1449 40.8492L47.1497 40.8432L47.1634 40.8259L47.2164 40.759C47.263 40.7004 47.3318 40.6141 47.421 40.5029C47.5995 40.2806 47.86 39.9582 48.1893 39.5571C48.8478 38.7549 49.7821 37.6366 50.8859 36.3712C53.0339 33.9086 55.8414 30.8687 58.5161 28.518L59.3255 21.7789C59.3718 21.3938 59.7214 21.1192 60.1065 21.1654C60.4916 21.2117 60.7662 21.5613 60.72 21.9464L60.0888 27.2014C62.3494 25.3984 64.5112 24.0405 66.1971 23.0952C67.2096 22.5274 68.0524 22.1075 68.6443 21.8286C68.9403 21.689 69.1738 21.5847 69.3346 21.5147C69.415 21.4797 69.4772 21.4533 69.5201 21.4354L69.5696 21.4148L69.5832 21.4092L69.5871 21.4076L69.5884 21.4071C69.5885 21.4071 69.5891 21.4068 69.852 22.058L69.5891 21.4068C69.9488 21.2617 70.358 21.4355 70.5031 21.7951ZM47.6965 41.2838L47.1449 40.8492C46.905 41.1539 46.9574 41.5956 47.2621 41.8355C47.5668 42.0755 48.0085 42.0228 48.2484 41.7181L47.6965 41.2838Z" fill="#458985"/>
</svg>
