<svg width="59" height="60" viewBox="0 0 59 60" fill="none" xmlns="http://www.w3.org/2000/svg">
<path fill-rule="evenodd" clip-rule="evenodd" d="M2.96447 0.267635C2.02266 -0.279975 0.815245 0.039585 0.267635 0.981393C-0.279975 1.9232 0.0395851 3.13061 0.981393 3.67822L3.60492 5.20366C4.54673 5.75127 5.75414 5.43171 6.30175 4.48991C6.84936 3.5481 6.5298 2.34069 5.58799 1.79308L2.96447 0.267635ZM8.76494 5.83683C9.31255 4.89502 10.52 4.57546 11.4618 5.12307L14.0853 6.64851C15.0271 7.19612 15.3467 8.40354 14.7991 9.34534C14.2514 10.2872 13.044 10.6067 12.1022 10.0591L9.4787 8.53366C8.53689 7.98605 8.21733 6.77864 8.76494 5.83683ZM44.9939 16.6898C45.605 15.7879 46.8315 15.5521 47.7334 16.1632L50.2458 17.8655C51.1477 18.4766 51.3835 19.7031 50.7724 20.6051C50.1613 21.507 48.9348 21.7427 48.0329 21.1316L45.5205 19.4293C44.6185 18.8182 44.3828 17.5917 44.9939 16.6898ZM39.3352 19.3055H20.5196C20.3519 19.3055 20.2161 19.4413 20.2161 19.6089V23.8696C20.2161 24.0372 20.3519 24.1731 20.5196 24.1731H39.3352C39.5028 24.1731 39.6387 24.0372 39.6387 23.8696V19.6089C39.6387 19.4413 39.5028 19.3055 39.3352 19.3055ZM20.5196 18.395C19.8491 18.395 19.3056 18.9385 19.3056 19.6089V23.8696C19.3056 24.54 19.8491 25.0835 20.5196 25.0835H26.8968C26.894 25.1072 26.8926 25.1313 26.8926 25.1557V30.8378H25.9819C24.3058 30.8378 22.9471 32.1965 22.9471 33.8726V56.0264C22.9471 56.8536 23.278 57.6034 23.8147 58.1508H13.3879C13.1365 58.1508 12.9327 58.3546 12.9327 58.606C12.9327 58.8574 13.1365 59.0613 13.3879 59.0613H47.9843C48.2358 59.0613 48.4396 58.8574 48.4396 58.606C48.4396 58.3546 48.2358 58.1508 47.9843 58.1508H36.6465C37.1832 57.6034 37.5141 56.8536 37.5141 56.0264V33.8726C37.5141 32.1965 36.1553 30.8378 34.4793 30.8378H33.2656V25.1557C33.2656 25.1313 33.2642 25.1072 33.2614 25.0835H39.3352C40.0056 25.0835 40.5491 24.54 40.5491 23.8696V19.6089C40.5491 18.9385 40.0056 18.395 39.3352 18.395H20.5196ZM27.803 30.5943V25.4591H32.3552V30.5943H27.803ZM25.9819 31.7482H34.4793C35.6525 31.7482 36.6036 32.6993 36.6036 33.8726V56.0264C36.6036 57.1997 35.6525 58.1508 34.4793 58.1508H25.9819C24.8087 58.1508 23.8576 57.1997 23.8576 56.0264V33.8726C23.8576 32.6993 24.8087 31.7482 25.9819 31.7482ZM14.1154 20.5515C14.9436 19.8437 15.0412 18.5986 14.3334 17.7704C13.6255 16.9422 12.3804 16.8446 11.5522 17.5524L9.24519 19.5241C8.41701 20.2319 8.31943 21.4771 9.02724 22.3053C9.73505 23.1335 10.9802 23.231 11.8084 22.5232L14.1154 20.5515ZM52.5808 22.7596C53.1919 21.8577 54.4184 21.6219 55.3204 22.233L57.8328 23.9353C58.7347 24.5464 58.9704 25.7729 58.3593 26.6748C57.7482 27.5767 56.5217 27.8125 55.6198 27.2014L53.1074 25.4991C52.2055 24.888 51.9697 23.6615 52.5808 22.7596ZM6.25273 26.2594C7.08091 25.5516 7.17849 24.3064 6.47068 23.4782C5.76287 22.65 4.5177 22.5525 3.68952 23.2603L1.38252 25.232C0.554337 25.9398 0.456758 27.1849 1.16457 28.0131C1.87238 28.8413 3.11755 28.9389 3.94573 28.2311L6.25273 26.2594ZM44.5811 9.36309C44.0302 8.4232 44.3455 7.21468 45.2854 6.66378L47.9036 5.12918C48.8435 4.57828 50.052 4.89361 50.6029 5.8335C51.1538 6.77339 50.8385 7.98191 49.8986 8.53281L47.2804 10.0674C46.3405 10.6183 45.132 10.303 44.5811 9.36309ZM53.1759 1.80796C52.236 2.35886 51.9207 3.56738 52.4716 4.50727C53.0225 5.44716 54.231 5.76249 55.1709 5.21159L57.7891 3.67699C58.729 3.12609 59.0443 1.91757 58.4934 0.977681C57.9425 0.0377937 56.734 -0.277543 55.7941 0.273357L53.1759 1.80796Z" fill="#458985"/>
</svg>
