<svg width="46" height="50" viewBox="0 0 46 50" fill="none" xmlns="http://www.w3.org/2000/svg">
<path fill-rule="evenodd" clip-rule="evenodd" d="M23.8616 0.525307L23 1.06667L22.1384 0.525307C22.3181 0.19981 22.6458 0 23 0C23.3542 0 23.6819 0.19981 23.8616 0.525307ZM23 3.23263C22.6707 3.87106 22.281 4.64613 21.8921 5.46509C21.3985 6.50429 20.9137 7.59798 20.5548 8.56518C20.1777 9.58138 20 10.3037 20 10.6667C20 12.4339 21.3432 13.8667 23 13.8667C24.6568 13.8667 26 12.4339 26 10.6667C26 10.3037 25.8223 9.58138 25.4452 8.56518C25.0863 7.59798 24.6015 6.50429 24.1079 5.46509C23.719 4.64613 23.3293 3.87106 23 3.23263ZM23 1.06667C22.1384 0.525307 22.1384 0.525188 22.1384 0.525307L22.1257 0.54826L22.0911 0.611561C22.0609 0.666715 22.0171 0.747306 21.9615 0.850366C21.8502 1.05645 21.6919 1.35259 21.502 1.71502C21.1228 2.43909 20.6159 3.4315 20.1079 4.50097C19.6015 5.56722 19.0863 6.72626 18.6952 7.77996C18.3223 8.78467 18 9.85148 18 10.6667C18 13.6121 20.2386 16 23 16C25.7614 16 28 13.6121 28 10.6667C28 9.85148 27.6777 8.78467 27.3048 7.77996C26.9137 6.72626 26.3985 5.56722 25.8921 4.50097C25.3841 3.4315 24.8772 2.43909 24.498 1.71502C24.3081 1.35259 24.1498 1.05645 24.0385 0.850366C23.9829 0.747306 23.9391 0.666715 23.9089 0.611561L23.8743 0.54826L23.8616 0.525307C23.8616 0.525188 23.8616 0.525307 23 1.06667Z" fill="#5C9894"/>
<path fill-rule="evenodd" clip-rule="evenodd" d="M1.09524 26C1.70012 26 2.19048 26.4884 2.19048 27.0909C2.19048 29.5009 4.1519 31.4545 6.57143 31.4545C8.99094 31.4545 10.9524 29.5009 10.9524 27.0909C10.9524 26.4884 11.4427 26 12.0476 26C12.6525 26 13.1429 26.4884 13.1429 27.0909C13.1429 29.5009 15.1043 31.4545 17.5238 31.4545C19.9433 31.4545 21.9048 29.5009 21.9048 27.0909C21.9048 26.4884 22.3951 26 23 26C23.6049 26 24.0952 26.4884 24.0952 27.0909C24.0952 29.5009 26.0567 31.4545 28.4762 31.4545C30.8957 31.4545 32.8571 29.5009 32.8571 27.0909C32.8571 26.4884 33.3475 26 33.9524 26C34.5573 26 35.0476 26.4884 35.0476 27.0909C35.0476 29.5009 37.0091 31.4545 39.4286 31.4545C41.8481 31.4545 43.8095 29.5009 43.8095 27.0909C43.8095 26.4884 44.2999 26 44.9048 26C45.5096 26 46 26.4884 46 27.0909C46 39.7433 35.7026 50 23 50C10.2974 50 0 39.7433 0 27.0909C0 26.4884 0.490355 26 1.09524 26ZM2.91431 32.5299C5.31294 41.3389 13.3968 47.8182 23 47.8182C32.6032 47.8182 40.6871 41.3389 43.0857 32.5299C42.0402 33.2287 40.7822 33.6364 39.4286 33.6364C37.1429 33.6364 35.1297 32.474 33.9524 30.7103C32.7751 32.474 30.7619 33.6364 28.4762 33.6364C26.1905 33.6364 24.1773 32.474 23 30.7103C21.8227 32.474 19.8095 33.6364 17.5238 33.6364C15.2381 33.6364 13.2249 32.474 12.0476 30.7103C10.8703 32.474 8.85715 33.6364 6.57143 33.6364C5.2178 33.6364 3.95976 33.2287 2.91431 32.5299Z" fill="#5C9894"/>
</svg>
