<svg width="59" height="60" viewBox="0 0 59 60" fill="none" xmlns="http://www.w3.org/2000/svg">
<path d="M45.2022 59.9997C45.0975 59.9299 44.958 59.8601 44.9231 59.7555C44.8184 59.4066 44.5742 58.988 44.6789 58.7089C44.7835 58.4298 45.2022 58.0809 45.5162 58.046C47.8187 57.9762 50.1213 57.9762 52.4239 58.046C52.7379 58.046 53.1565 58.3949 53.2612 58.7089C53.3659 58.988 53.1216 59.4066 53.017 59.7555C52.9821 59.8601 52.8425 59.9299 52.7379 59.9997C50.226 59.9997 47.7141 59.9997 45.2022 59.9997Z" fill="#458985"/>
<path d="M57.1684 60.0002C56.68 59.7211 56.3311 59.3373 56.5055 58.7442C56.6451 58.2558 56.994 58.0465 57.5173 58.0116C58.215 57.9767 58.6337 58.2209 58.8081 58.6745C58.9826 59.1978 58.7732 59.5815 58.1452 60.0002C57.7964 60.0002 57.4824 60.0002 57.1684 60.0002Z" fill="#458985"/>
<path d="M10.6278 43.1844C11.3954 42.2424 12.128 41.3702 12.8607 40.5329C14.6399 38.5094 16.5936 36.6255 18.7218 34.9509C19.0358 34.7067 19.1404 34.4625 19.0706 34.0787C18.6171 31.8459 18.8264 29.648 19.6289 27.5198C19.8731 26.857 20.3615 26.5779 20.9197 26.7523C21.4779 26.9268 21.7221 27.5198 21.4779 28.1827C20.9895 29.5782 20.7801 30.9737 20.8499 32.439C20.8499 32.6832 20.9197 32.9274 20.9546 33.2414C21.129 33.1716 21.2337 33.1368 21.3383 33.067C23.9898 31.2528 26.8855 29.8922 29.9207 28.8107C30.3393 28.6711 30.5138 28.4618 30.4789 27.9734C30.3393 26.0895 30.6882 24.2753 31.4209 22.5309C31.7697 21.6936 32.2582 21.4145 32.8861 21.6587C33.4792 21.9029 33.6188 22.496 33.2699 23.2984C32.7117 24.6242 32.3977 25.9848 32.4326 27.4152C32.4326 27.5198 32.4675 27.6245 32.4675 27.9036C33.5141 27.3105 34.5259 26.8221 35.5027 26.229C38.0146 24.6242 40.0381 22.5658 41.7825 20.1586C41.8871 20.019 41.9569 19.9143 42.0616 19.7748C42.4802 19.2166 43.0384 19.077 43.5269 19.4259C44.0153 19.7748 44.1199 20.3679 43.7013 20.9261C42.864 22.0076 42.0965 23.124 41.1545 24.066C39.8985 25.3219 38.4682 26.4383 37.1075 27.6245C37.0029 27.6943 36.8982 27.7989 36.7587 27.9036C37.7704 28.4967 38.817 28.8107 39.9334 28.9502C40.2125 28.9851 40.5265 29.02 40.8056 29.0549C41.4336 29.1247 41.8174 29.5782 41.7476 30.1713C41.6778 30.6946 41.2243 31.0784 40.6312 31.0435C38.7124 30.9388 36.9331 30.4155 35.3283 29.4038C34.9096 29.1247 34.5956 29.1596 34.177 29.334C32.3628 30.0666 30.5487 30.7295 28.7345 31.4621C24.7224 33.1019 21.129 35.4393 17.9194 38.335C17.8147 38.4397 17.7449 38.5443 17.6054 38.649C19.9777 40.7074 22.6292 41.3353 25.6295 40.3934C25.7342 40.3585 25.8388 40.3236 25.9435 40.2887C26.6413 40.0445 27.1995 40.2538 27.4088 40.812C27.6181 41.3702 27.339 41.8935 26.6413 42.1726C26.0482 42.382 25.4202 42.5564 24.7922 42.7308C25.1411 44.0566 26.6064 45.173 28.1065 45.2776C28.2461 45.2776 28.4205 45.2776 28.5601 45.2776C29.2229 45.3125 29.6416 45.7312 29.6067 46.2894C29.6067 46.8476 29.1532 47.2313 28.5252 47.2662C26.0482 47.336 23.7456 45.8009 22.8734 43.3937C22.699 42.9402 22.4896 42.8006 22.0012 42.7657C19.908 42.5564 18.0938 41.7191 16.5239 40.3585C16.4192 40.2538 16.2796 40.1492 16.0703 39.9747C14.6748 41.5796 13.2793 43.1844 11.9187 44.8241C13.7328 46.9174 15.7214 48.5571 18.0938 49.7433C24.4782 52.9878 30.8278 52.5691 37.1075 49.4293C37.3866 49.2897 37.6309 49.1502 37.8751 49.0106C38.3984 48.7664 38.9217 48.9408 39.2008 49.4293C39.4799 49.9177 39.3403 50.5108 38.7821 50.7899C37.8053 51.3132 36.7936 51.8365 35.7818 52.2203C27.7577 55.3601 20.2917 54.3833 13.4537 49.0804C12.5118 48.3477 11.6745 47.4756 10.7674 46.6383C10.6976 46.7429 10.5581 46.8825 10.4883 47.022C9.61611 48.5571 8.74392 50.0921 7.87173 51.6621C7.52285 52.29 6.96465 52.5343 6.44134 52.2203C5.91802 51.9412 5.74358 51.3481 6.09246 50.755C7.1042 48.9757 8.11594 47.1965 9.16257 45.4521C9.3719 45.0683 9.40678 44.859 9.12768 44.4752C6.51111 40.812 5.04583 36.7999 4.94117 32.3343C4.83651 27.8687 6.33667 23.9613 9.02302 20.4377C10.2441 18.8328 11.6396 17.4024 13.2444 16.1465C13.9771 15.5883 14.6399 15.7278 14.9539 16.1465C15.3377 16.6698 15.1283 17.228 14.4306 17.7862C11.1861 20.2981 8.77881 23.4729 7.62752 27.4501C6.12735 32.6832 7.20886 37.6024 9.99987 42.2075C10.1743 42.5215 10.3836 42.8355 10.6278 43.1844Z" fill="#458985"/>
<path d="M44.0156 47.1963C44.3993 47.8243 44.8878 48.0336 45.6204 48.0336C49.5278 47.9987 53.4352 47.9987 57.3426 48.0336C57.552 48.0336 57.7613 48.0336 57.9706 48.0685C58.4939 48.1383 58.773 48.4522 58.8079 48.9756C58.8428 49.4989 58.5986 49.8477 58.1102 49.9873C57.9357 50.0222 57.7613 50.0571 57.5869 50.0571C53.2608 50.0571 48.8998 50.0571 44.5738 50.0571C44.19 50.0571 43.7365 49.8826 43.4923 49.6384C41.5735 47.7545 39.6546 45.8357 37.7707 43.9517C37.3869 43.6029 37.2125 43.1842 37.4218 42.6958C37.7009 42.0329 38.5382 41.9283 39.1313 42.4865C40.1431 43.4633 41.1199 44.4751 42.1317 45.4519C42.2712 45.5915 42.4108 45.731 42.5852 45.8706C44.6087 44.2308 46.3531 42.4167 47.8183 40.3234C50.9233 35.9625 52.5282 31.1131 52.877 25.8102C53.2259 20.577 52.3188 15.5183 50.5745 10.5643C49.6674 7.98263 46.5973 7.2151 44.6436 9.13391C41.3641 12.3785 37.3869 13.8089 32.8864 14.1228C30.0257 14.2973 27.1998 14.4019 24.339 14.5764C23.397 14.6462 22.4899 14.7857 21.4782 14.8904C21.7922 15.5881 22.0364 16.1463 22.2806 16.7394C22.5597 17.4023 22.3853 17.9256 21.862 18.2047C21.3038 18.4838 20.7456 18.2396 20.4665 17.5418C19.0012 14.1926 17.501 10.8783 16.0706 7.52908C15.8613 7.04066 15.6171 6.90111 15.1287 6.936C13.7331 6.97088 12.3028 6.97088 10.9073 6.97088C10.2095 6.97088 9.86062 6.58712 9.82573 5.81959C9.68618 3.69145 7.97669 2.05173 5.88344 2.05173C4.27861 2.05173 2.81333 3.06347 2.25512 4.56364C1.66203 6.06381 2.0458 7.7733 3.23198 8.85481C4.41816 9.93633 6.16254 10.2154 7.59293 9.55257C7.76737 9.48279 7.90692 9.37813 8.04647 9.30835C8.56978 9.06414 9.09309 9.20369 9.3722 9.65723C9.6513 10.1457 9.54663 10.7039 9.02332 11.0178C7.59293 11.9249 6.02298 12.1342 4.41815 11.6807C1.55737 10.9132 -0.221896 8.36639 0.022317 5.36605C0.231643 2.60993 2.53423 0.307351 5.39501 0.02825C8.2209 -0.250851 10.8375 1.56331 11.6748 4.35431C11.7097 4.52875 11.7794 4.6683 11.8492 4.91251C13.2796 4.91251 14.71 4.9474 16.1404 4.91251C16.9079 4.87763 17.3615 5.19162 17.6406 5.88937C18.5476 8.0524 19.5245 10.2154 20.4665 12.3785C20.5711 12.5878 20.6758 12.7971 20.7804 13.0064C24.3739 12.3087 28.0022 12.4134 31.5956 12.204C34.4913 12.0296 37.3521 11.6807 39.864 10.1805C41.085 9.4479 42.2014 8.50594 43.3178 7.59886C45.132 6.06381 47.0857 5.64515 49.3185 6.48246C50.8536 7.04066 51.9002 8.15706 52.4584 9.69212C54.5865 15.5881 55.5983 21.6586 54.7959 27.9383C53.7841 35.4741 50.4349 41.7538 44.7133 46.7427C44.3993 46.8474 44.2249 46.987 44.0156 47.1963Z" fill="#458985"/>
<path d="M52.9468 54.9759C51.4117 54.9759 49.8767 54.9759 48.3067 54.9759C47.5043 54.9759 47.0508 54.627 47.0508 53.999C47.0508 53.3711 47.5043 52.9873 48.3067 52.9873C51.3768 52.9873 54.4818 52.9873 57.552 52.9873C57.6566 52.9873 57.7613 52.9873 57.8311 52.9873C58.4241 53.0571 58.8079 53.4757 58.773 54.0339C58.7381 54.5572 58.3544 54.941 57.7613 54.941C56.1913 55.0108 54.5865 54.9759 52.9468 54.9759Z" fill="#458985"/>
</svg>
