<svg width="21" height="48" viewBox="0 0 21 48" fill="none" xmlns="http://www.w3.org/2000/svg">
<path d="M15 37.5C14.9996 38.3249 14.7724 39.1338 14.3433 39.8383C13.9143 40.5428 13.2998 41.1159 12.5671 41.4948C11.8344 41.8737 11.0116 42.0439 10.1887 41.9869C9.36576 41.9298 8.57436 41.6476 7.90096 41.1712C7.22756 40.6948 6.69808 40.0424 6.37036 39.2854C6.04265 38.5284 5.92932 37.6959 6.04275 36.8788C6.15619 36.0618 6.49203 35.2916 7.01357 34.6525C7.53511 34.0134 8.22228 33.53 9 33.255V19.5C9 19.1022 9.15804 18.7206 9.43934 18.4393C9.72065 18.158 10.1022 18 10.5 18C10.8978 18 11.2794 18.158 11.5607 18.4393C11.842 18.7206 12 19.1022 12 19.5V33.255C12.8777 33.5653 13.6376 34.1402 14.1749 34.9005C14.7122 35.6608 15.0005 36.569 15 37.5Z" fill="#458985"/>
<path d="M3.00001 7.5C3.00001 5.51088 3.79018 3.60322 5.1967 2.1967C6.60323 0.790176 8.51088 0 10.5 0C12.4891 0 14.3968 0.790176 15.8033 2.1967C17.2098 3.60322 18 5.51088 18 7.5V30.15C19.447 31.6268 20.4258 33.498 20.8136 35.5289C21.2015 37.5598 20.9811 39.66 20.1801 41.5661C19.3791 43.4722 18.0333 45.0995 16.3112 46.2438C14.5891 47.3881 12.5676 47.9985 10.5 47.9985C8.43243 47.9985 6.41086 47.3881 4.68881 46.2438C2.96676 45.0995 1.62086 43.4722 0.819898 41.5661C0.0189339 39.66 -0.201449 37.5598 0.186383 35.5289C0.574216 33.498 1.553 31.6268 3.00001 30.15V7.5ZM10.5 3C9.30653 3 8.16194 3.47411 7.31802 4.31802C6.47411 5.16193 6 6.30653 6 7.5V31.461L5.49901 31.911C4.36672 32.9236 3.56859 34.2561 3.21022 35.7322C2.85185 37.2083 2.95014 38.7584 3.49209 40.1775C4.03404 41.5965 4.99409 42.8175 6.24521 43.679C7.49632 44.5404 8.97951 45.0016 10.4985 45.0016C12.0175 45.0016 13.5007 44.5404 14.7518 43.679C16.0029 42.8175 16.963 41.5965 17.5049 40.1775C18.0469 38.7584 18.1452 37.2083 17.7868 35.7322C17.4284 34.2561 16.6303 32.9236 15.498 31.911L15 31.461V7.5C15 6.30653 14.5259 5.16193 13.682 4.31802C12.8381 3.47411 11.6935 3 10.5 3Z" fill="#458985"/>
</svg>
