<svg width="49" height="54" viewBox="0 0 49 54" fill="none" xmlns="http://www.w3.org/2000/svg">
<path fill-rule="evenodd" clip-rule="evenodd" d="M14.7505 15.5676C13.2499 17.3301 10.209 21.0751 7.52521 25.4471C4.75055 29.967 2.5 34.9336 2.5 39.007C2.5 42.8835 3.71478 45.9176 5.77713 47.9799C7.83947 50.0423 10.8736 51.257 14.75 51.257C18.6264 51.257 21.6605 50.0423 23.7229 47.9799C25.7852 45.9176 27 42.8835 27 39.007C27 34.9336 24.7494 29.967 21.9749 25.4471C19.2913 21.0752 16.2507 17.3303 14.7505 15.5676ZM13.7575 13.2175C14.0689 13.0742 14.4077 13 14.7505 13C15.0933 13 15.432 13.0742 15.7434 13.2175C16.0548 13.3609 16.3315 13.5699 16.5545 13.8303L16.5552 13.8311C18.0589 15.5905 21.2668 19.5147 24.1055 24.1392C26.9116 28.7106 29.5 34.1901 29.5 39.007C29.5 43.4153 28.1071 47.1312 25.4906 49.7477C22.8742 52.3642 19.1582 53.757 14.75 53.757C10.3418 53.757 6.62584 52.3642 4.00936 49.7477C1.39288 47.1312 0 43.4153 0 39.007C0 34.1901 2.58836 28.7106 5.39463 24.1392C8.23348 19.5147 11.4416 15.5904 12.9459 13.831L12.9465 13.8303C13.1694 13.5699 13.4461 13.3609 13.7575 13.2175Z" fill="#458985"/>
<path fill-rule="evenodd" clip-rule="evenodd" d="M23 38.5068C23.6904 38.5068 24.25 39.0665 24.25 39.7568C24.25 41.8786 23.4071 43.9134 21.9069 45.4137C20.4066 46.914 18.3717 47.7568 16.25 47.7568C15.5596 47.7568 15 47.1972 15 46.5068C15 45.8165 15.5596 45.2568 16.25 45.2568C17.7087 45.2568 19.1076 44.6774 20.1391 43.6459C21.1705 42.6145 21.75 41.2155 21.75 39.7568C21.75 39.0665 22.3096 38.5068 23 38.5068Z" fill="#458985"/>
<path fill-rule="evenodd" clip-rule="evenodd" d="M39.2503 1.6102C38.3093 2.71549 36.4023 5.06407 34.7192 7.8058C32.9792 10.6403 31.5678 13.755 31.5678 16.3095C31.5678 18.7405 32.3296 20.6432 33.6229 21.9366C34.9163 23.2299 36.819 23.9917 39.25 23.9917C41.681 23.9917 43.5837 23.2299 44.8771 21.9366C46.1704 20.6432 46.9322 18.7405 46.9322 16.3095C46.9322 13.755 45.5208 10.6403 43.7809 7.80579C42.0979 5.06413 40.1911 2.71559 39.2503 1.6102ZM38.6276 0.136418C38.8229 0.0465384 39.0353 0 39.2503 0C39.4653 0 39.6777 0.0465384 39.873 0.136418C40.0683 0.226299 40.2418 0.35739 40.3816 0.520682L40.3821 0.521218C41.3251 1.62453 43.3368 4.08549 45.117 6.9856C46.8768 9.85243 48.5 13.2887 48.5 16.3095C48.5 19.074 47.6265 21.4043 45.9857 23.0452C44.3448 24.686 42.0145 25.5595 39.25 25.5595C36.4855 25.5595 34.1552 24.686 32.5143 23.0452C30.8735 21.4043 30 19.074 30 16.3095C30 13.2887 31.6232 9.85243 33.3831 6.98559C35.1634 4.08547 37.1752 1.6245 38.1186 0.521125L38.119 0.520682C38.2588 0.357388 38.4323 0.226298 38.6276 0.136418Z" fill="#458985"/>
<path fill-rule="evenodd" clip-rule="evenodd" d="M44.4237 15.9956C44.8566 15.9956 45.2076 16.3466 45.2076 16.7795C45.2076 18.1101 44.679 19.3862 43.7382 20.327C42.7973 21.2679 41.5212 21.7965 40.1906 21.7965C39.7577 21.7965 39.4067 21.4455 39.4067 21.0126C39.4067 20.5796 39.7577 20.2287 40.1906 20.2287C41.1054 20.2287 41.9827 19.8653 42.6296 19.2184C43.2764 18.5716 43.6398 17.6943 43.6398 16.7795C43.6398 16.3466 43.9908 15.9956 44.4237 15.9956Z" fill="#458985"/>
</svg>
