<svg width="77" height="79" viewBox="0 0 77 79" fill="none" xmlns="http://www.w3.org/2000/svg">
<path d="M58.9808 78.2894C58.8442 78.1984 58.6621 78.1073 58.6166 77.9708C58.48 77.5155 58.1614 76.9693 58.298 76.6051C58.4345 76.2409 58.9808 75.7857 59.3905 75.7402C62.395 75.6491 65.3994 75.6491 68.4039 75.7402C68.8136 75.7402 69.3599 76.1954 69.4964 76.6051C69.633 76.9693 69.3143 77.5155 69.1778 77.9708C69.1322 78.1073 68.9502 78.1984 68.8136 78.2894C65.536 78.2894 62.2584 78.2894 58.9808 78.2894Z" fill="white"/>
<path d="M74.5948 78.2895C73.9575 77.9253 73.5023 77.4246 73.7299 76.6507C73.912 76.0134 74.3672 75.7402 75.05 75.6947C75.9605 75.6492 76.5067 75.9679 76.7343 76.5596C76.962 77.2425 76.6888 77.7432 75.8694 78.2895C75.4142 78.2895 75.0045 78.2895 74.5948 78.2895Z" fill="white"/>
<path d="M13.8677 56.348C14.8692 55.1189 15.8252 53.9809 16.7812 52.8883C19.1028 50.248 21.652 47.7898 24.4289 45.6048C24.8386 45.2861 24.9752 44.9675 24.8841 44.4667C24.2923 41.5533 24.5655 38.6854 25.6125 35.9085C25.9311 35.0436 26.5684 34.6794 27.2968 34.907C28.0252 35.1347 28.3438 35.9085 28.0252 36.7735C27.3878 38.5944 27.1147 40.4152 27.2058 42.3272C27.2058 42.6458 27.2968 42.9645 27.3423 43.3742C27.5699 43.2831 27.7065 43.2376 27.8431 43.1466C31.3028 40.7794 35.0811 39.004 39.0415 37.5929C39.5878 37.4108 39.8154 37.1376 39.7699 36.5003C39.5878 34.0421 40.043 31.675 40.999 29.3989C41.4542 28.3063 42.0915 27.9421 42.9109 28.2608C43.6848 28.5795 43.8669 29.3533 43.4117 30.4003C42.6833 32.1302 42.2736 33.9056 42.3191 35.772C42.3191 35.9085 42.3647 36.0451 42.3647 36.4093C43.7303 35.6354 45.0505 34.9981 46.3251 34.2242C49.6027 32.1302 52.243 29.4444 54.5191 26.3033C54.6557 26.1213 54.7467 25.9847 54.8833 25.8026C55.4295 25.0742 56.1579 24.8922 56.7952 25.3474C57.4325 25.8026 57.5691 26.5765 57.0228 27.3048C55.9303 28.716 54.9288 30.1727 53.6997 31.4018C52.0609 33.0406 50.1945 34.4973 48.4191 36.0451C48.2826 36.1361 48.146 36.2727 47.9639 36.4093C49.284 37.1832 50.6497 37.5929 52.1064 37.7749C52.4706 37.8205 52.8803 37.866 53.2445 37.9115C54.0639 38.0026 54.5646 38.5943 54.4736 39.3682C54.3825 40.0511 53.7907 40.5518 53.0169 40.5063C50.5131 40.3697 48.1915 39.6869 46.0975 38.3667C45.5512 38.0026 45.1415 38.0481 44.5952 38.2757C42.2281 39.2317 39.8609 40.0966 37.4938 41.0525C32.2587 43.1921 27.5699 46.2421 23.3819 50.0204C23.2453 50.157 23.1543 50.2936 22.9722 50.4301C26.0677 53.1159 29.5274 53.9353 33.4423 52.7062C33.5789 52.6607 33.7154 52.6152 33.852 52.5697C34.7624 52.251 35.4908 52.5242 35.7639 53.2525C36.0371 53.9809 35.6729 54.6637 34.7624 55.0279C33.9886 55.301 33.1692 55.5286 32.3498 55.7562C32.805 57.4861 34.7169 58.9428 36.6744 59.0794C36.8565 59.0794 37.0841 59.0794 37.2662 59.0794C38.1311 59.1249 38.6774 59.6711 38.6318 60.3995C38.6318 61.1279 38.0401 61.6286 37.2206 61.6741C33.9886 61.7652 30.9841 59.7622 29.846 56.6212C29.6184 56.0294 29.3453 55.8473 28.708 55.8018C25.9767 55.5286 23.6095 54.4361 21.561 52.6607C21.4244 52.5242 21.2423 52.3876 20.9692 52.16C19.1483 54.254 17.3274 56.348 15.5521 58.4876C17.9192 61.2189 20.514 63.3584 23.6095 64.9062C31.9401 69.1398 40.2251 68.5935 48.4191 64.4965C48.7833 64.3144 49.102 64.1323 49.4206 63.9502C50.1034 63.6316 50.7863 63.8592 51.1505 64.4965C51.5146 65.1338 51.3325 65.9077 50.6042 66.2719C49.3296 66.9547 48.0094 67.6375 46.6893 68.1383C36.2192 72.2353 26.4774 70.9607 17.555 64.0413C16.3259 63.0853 15.2334 61.9473 14.0498 60.8547C13.9588 60.9913 13.7767 61.1734 13.6857 61.3555C12.5476 63.3584 11.4095 65.3614 10.2715 67.4099C9.81626 68.2293 9.08791 68.548 8.40507 68.1383C7.72224 67.7741 7.49463 67.0002 7.94985 66.2263C9.27 63.9047 10.5901 61.5831 11.9558 59.307C12.2289 58.8062 12.2745 58.5331 11.9103 58.0323C8.49612 53.2525 6.58418 48.0175 6.44762 42.1906C6.31105 36.3638 8.26851 31.2653 11.7737 26.6675C13.367 24.5735 15.1879 22.7071 17.2819 21.0683C18.2379 20.3399 19.1028 20.522 19.5125 21.0683C20.0132 21.7511 19.7401 22.4795 18.8297 23.2078C14.5961 26.4854 11.4551 30.628 9.95283 35.8175C7.99537 42.6458 9.40656 49.0645 13.0483 55.0734C13.276 55.4831 13.5491 55.8928 13.8677 56.348Z" fill="white"/>
<path d="M57.4327 61.5829C57.9334 62.4023 58.5707 62.6755 59.5267 62.6755C64.6252 62.6299 69.7237 62.6299 74.8222 62.6755C75.0953 62.6755 75.3684 62.6755 75.6416 62.721C76.3244 62.812 76.6886 63.2217 76.7341 63.9046C76.7796 64.5874 76.461 65.0426 75.8236 65.2247C75.596 65.2702 75.3684 65.3158 75.1408 65.3158C69.4961 65.3158 63.8058 65.3158 58.161 65.3158C57.6603 65.3158 57.0685 65.0881 56.7498 64.7695C54.2461 62.3113 51.7424 59.8076 49.2842 57.3494C48.7834 56.8941 48.5558 56.3479 48.829 55.7106C49.1931 54.8456 50.2857 54.7091 51.0595 55.4374C52.3797 56.712 53.6543 58.0322 54.9745 59.3068C55.1565 59.4889 55.3386 59.671 55.5662 59.8531C58.2065 57.7135 60.4827 55.3464 62.3946 52.615C66.4461 46.9248 68.5401 40.5972 68.9953 33.6778C69.4505 26.8495 68.267 20.2487 65.9908 13.7846C64.8073 10.4159 60.8013 9.41444 58.2521 11.9182C53.973 16.1517 48.7834 18.0181 42.9111 18.4278C39.1782 18.6555 35.4909 18.792 31.7581 19.0196C30.529 19.1107 29.3454 19.2928 28.0253 19.4293C28.435 20.3398 28.7537 21.0681 29.0723 21.842C29.4365 22.7069 29.2089 23.3898 28.526 23.7539C27.7977 24.1181 27.0693 23.7995 26.7052 22.889C24.7932 18.5189 22.8358 14.1943 20.9693 9.82414C20.6962 9.18683 20.3776 9.00474 19.7402 9.05027C17.9194 9.09579 16.0529 9.09579 14.2321 9.09579C13.3216 9.09579 12.8664 8.59504 12.8209 7.59355C12.6388 4.8167 10.4082 2.67715 7.67686 2.67715C5.58283 2.67715 3.6709 3.9973 2.94254 5.95475C2.16867 7.91221 2.66941 10.1428 4.21717 11.554C5.76492 12.9652 8.04104 13.3294 9.90745 12.4644C10.1351 12.3734 10.3171 12.2368 10.4992 12.1458C11.1821 11.8271 11.8649 12.0092 12.2291 12.601C12.5933 13.2383 12.4567 13.9667 11.7739 14.3764C9.90745 15.5599 7.85894 15.8331 5.76492 15.2413C2.0321 14.2398 -0.289536 10.9167 0.0291198 7.00177C0.302253 3.40551 3.30672 0.401039 7.03955 0.0368613C10.7268 -0.327317 14.141 2.03984 15.2335 5.68162C15.2791 5.90923 15.3701 6.09132 15.4612 6.40997C17.3276 6.40997 19.194 6.4555 21.0604 6.40997C22.0619 6.36445 22.6537 6.77415 23.0178 7.6846C24.2014 10.507 25.476 13.3294 26.7052 16.1517C26.8417 16.4249 26.9783 16.698 27.1149 16.9711C31.8036 16.0607 36.538 16.1973 41.2267 15.9241C45.0051 15.6965 48.7379 15.2413 52.0155 13.2838C53.6088 12.3279 55.0655 11.0988 56.5222 9.91519C58.8894 7.91221 61.4386 7.36594 64.352 8.45848C66.355 9.18683 67.7207 10.6435 68.449 12.6465C71.2259 20.3398 72.5461 28.2606 71.499 36.4547C70.1789 46.2875 65.8088 54.4815 58.3431 60.9911C57.9334 61.1277 57.7058 61.3098 57.4327 61.5829Z" fill="white"/>
<path d="M69.0863 71.7339C67.0834 71.7339 65.0804 71.7339 63.0319 71.7339C61.9849 71.7339 61.3931 71.2787 61.3931 70.4593C61.3931 69.6399 61.9849 69.1392 63.0319 69.1392C67.0378 69.1392 71.0893 69.1392 75.0953 69.1392C75.2318 69.1392 75.3684 69.1392 75.4594 69.1392C76.2333 69.2302 76.7341 69.7765 76.6885 70.5048C76.643 71.1877 76.1423 71.6884 75.3684 71.6884C73.3199 71.7795 71.2259 71.7339 69.0863 71.7339Z" fill="white"/>
</svg>
