<?xml version="1.0" standalone="no"?>
<!DOCTYPE svg PUBLIC "-//W3C//DTD SVG 20010904//EN"
 "http://www.w3.org/TR/2001/REC-SVG-20010904/DTD/svg10.dtd">
<svg version="1.0" xmlns="http://www.w3.org/2000/svg"
 width="349.000000pt" height="302.000000pt" viewBox="0 0 349.000000 302.000000"
 preserveAspectRatio="xMidYMid meet">
<metadata>
Created by potrace 1.16, written by Peter Selinger 2001-2019
</metadata>
<g transform="translate(0.000000,302.000000) scale(0.100000,-0.100000)"
fill="#458985" stroke="none">
<path d="M709 2305 c-184 -26 -334 -72 -516 -161 -153 -75 -144 -56 -112 -221
27 -138 78 -292 139 -418 47 -96 143 -250 192 -307 l23 -27 116 98 c63 54 166
128 228 164 62 37 115 67 116 67 2 0 32 13 67 29 251 116 594 167 888 131 144
-18 352 -75 477 -131 23 -11 45 -19 48 -19 19 0 -102 168 -197 273 -208 229
-496 399 -814 482 -203 53 -450 68 -655 40z"/>
<path d="M1189 1465 c-219 -30 -437 -106 -636 -223 -87 -50 -133 -86 -87 -68
51 21 220 66 309 82 138 25 433 25 560 0 281 -55 507 -152 725 -310 30 -22
109 -93 175 -158 l120 -118 112 54 c88 43 201 109 242 142 8 7 -102 122 -194
201 -203 176 -408 284 -677 357 -197 54 -441 69 -649 41z"/>
<path d="M815 1243 c-75 -10 -225 -44 -275 -63 -30 -11 -41 -18 -25 -14 183
37 468 45 635 19 208 -34 435 -115 588 -212 29 -18 55 -33 59 -33 9 0 106 -74
183 -140 70 -59 107 -95 156 -152 l32 -36 56 16 c31 8 56 18 56 21 -1 12 -167
180 -231 234 -60 50 -142 106 -240 165 -124 75 -376 160 -554 187 -91 14 -359
19 -440 8z"/>
<path d="M690 1174 c-19 -2 -76 -11 -127 -21 -78 -13 -95 -14 -110 -3 -10 8
-7 2 7 -12 24 -25 27 -26 85 -16 82 13 370 4 480 -17 191 -35 406 -118 579
-223 137 -82 342 -255 357 -301 4 -11 16 -11 69 0 36 6 67 13 69 15 8 7 -201
206 -272 258 -288 212 -589 314 -942 321 -88 2 -176 1 -195 -1z"/>
<path d="M551 1101 c-52 -6 -53 -7 -34 -24 15 -13 43 -18 122 -22 161 -7 402
-56 509 -102 259 -112 398 -198 563 -350 l46 -43 84 1 c46 0 77 3 69 6 -8 3
-51 40 -95 82 -297 285 -673 443 -1083 455 -70 2 -151 0 -181 -3z"/>
<path d="M615 985 c106 -99 268 -208 400 -269 130 -60 369 -136 383 -122 3 4
0 6 -6 6 -10 0 -108 64 -122 80 -12 13 -152 91 -230 128 -81 38 -223 91 -265
99 -11 2 -34 6 -52 9 -35 7 -78 44 -51 44 33 0 127 -23 123 -30 -3 -5 3 -6 13
-3 23 6 183 -48 297 -100 123 -56 292 -162 348 -219 10 -10 22 -18 28 -18 6 0
8 -4 5 -9 -6 -9 73 -21 143 -21 l43 0 -44 40 c-25 21 -73 62 -109 90 -35 27
-75 59 -89 70 -44 35 -302 159 -395 189 -118 39 -278 71 -385 77 l-85 5 50
-46z"/>
</g>
</svg>
