<svg width="177" height="34" viewBox="0 0 177 34" fill="none" xmlns="http://www.w3.org/2000/svg">
<path d="M0 15.2694V20.4578C25.0127 9.25915 33.3153 44.9838 84.0854 23.2538C85.8954 22.4818 87.4389 21.1959 88.5245 19.5555C89.6098 17.9152 90.1896 15.9926 90.1915 14.0261C34.7998 40.9723 26.2391 3.57252 1.18502 13.5251C0.835525 13.6641 0.53578 13.9046 0.324526 14.2155C0.11327 14.5265 0.000225045 14.8936 0 15.2694Z" fill="#458985"/>
<path d="M89.9548 2.23102C73.333 -5.21069 64.0906 8.0682 44.8604 11.4389C55.6886 13.3368 69.6859 12.0917 89.9548 2.23102Z" fill="#67C973"/>
<path d="M0 11.4728C25.8176 -0.0880067 33.8334 38.3462 89.1195 11.9893C89.44 11.8367 89.7107 11.5966 89.9006 11.2967C90.0902 10.9968 90.1912 10.6494 90.1915 10.2947V5.04024C39.978 29.4669 28.2491 1.01674 7.83079 2.8983C5.69065 3.0949 3.70118 4.0832 2.25252 5.66946C0.803862 7.25569 0.000519478 9.32544 0 11.4728Z" fill="#458985"/>
<path d="M0.236328 23.3541C16.8548 15.9124 26.0988 29.1912 45.3287 32.5626C34.498 34.4595 20.5034 33.2147 0.236328 23.3541Z" fill="#EF980C"/>
<path d="M119.463 22.6301C117.8 22.6301 116.374 22.3891 115.184 21.9072C113.993 21.4252 113.092 20.797 112.479 20.0224C111.884 19.2307 111.569 18.3701 111.534 17.4406C111.534 17.3029 111.587 17.1824 111.692 17.0792C111.814 16.9587 111.954 16.8984 112.112 16.8984H115.42C115.63 16.8984 115.796 16.9415 115.919 17.0275C116.059 17.0964 116.199 17.2083 116.339 17.3632C116.566 17.8107 116.934 18.1807 117.442 18.4733C117.949 18.7659 118.623 18.9122 119.463 18.9122C120.461 18.9122 121.222 18.7573 121.747 18.4475C122.273 18.1377 122.535 17.716 122.535 17.1824C122.535 16.8038 122.395 16.494 122.115 16.253C121.853 16.012 121.432 15.7969 120.855 15.6075C120.277 15.4182 119.42 15.203 118.282 14.9621C116.181 14.5318 114.606 13.9035 113.556 13.0774C112.523 12.234 112.007 11.0377 112.007 9.48864C112.007 8.4387 112.304 7.50064 112.899 6.67446C113.495 5.84828 114.343 5.20283 115.446 4.7381C116.549 4.27338 117.835 4.04102 119.306 4.04102C120.829 4.04102 122.15 4.2992 123.27 4.81556C124.391 5.33192 125.239 5.98598 125.817 6.77774C126.412 7.55228 126.727 8.31822 126.762 9.07555C126.762 9.23046 126.71 9.35955 126.605 9.46282C126.5 9.56609 126.368 9.61773 126.211 9.61773H122.745C122.535 9.61773 122.36 9.5833 122.22 9.51446C122.098 9.44561 121.984 9.33373 121.879 9.17882C121.774 8.78294 121.485 8.44731 121.012 8.17191C120.557 7.89652 119.988 7.75882 119.306 7.75882C118.518 7.75882 117.914 7.89652 117.494 8.17191C117.074 8.44731 116.864 8.85179 116.864 9.38537C116.864 9.74682 116.978 10.048 117.205 10.289C117.45 10.53 117.835 10.7537 118.361 10.9603C118.903 11.1496 119.673 11.3475 120.671 11.5541C122.299 11.8467 123.594 12.2168 124.557 12.6643C125.537 13.0946 126.255 13.6626 126.71 14.3683C127.165 15.0567 127.392 15.926 127.392 16.9759C127.392 18.1291 127.051 19.136 126.368 19.9966C125.703 20.84 124.767 21.4941 123.559 21.9588C122.369 22.4063 121.004 22.6301 119.463 22.6301Z" fill="#458985"/>
<path d="M130.677 22.3719C130.502 22.3719 130.344 22.3116 130.204 22.1912C130.081 22.0535 130.02 21.8985 130.02 21.7264V4.94465C130.02 4.75532 130.081 4.60041 130.204 4.47992C130.344 4.35944 130.502 4.2992 130.677 4.2992H134.195C134.387 4.2992 134.545 4.35944 134.667 4.47992C134.807 4.60041 134.877 4.75532 134.877 4.94465V21.7264C134.877 21.9158 134.807 22.0707 134.667 22.1912C134.545 22.3116 134.387 22.3719 134.195 22.3719H130.677Z" fill="#458985"/>
<path d="M139.189 22.3719C139.014 22.3719 138.856 22.3116 138.716 22.1912C138.594 22.0535 138.533 21.8985 138.533 21.7264V4.94465C138.533 4.75532 138.594 4.60041 138.716 4.47992C138.856 4.35944 139.014 4.2992 139.189 4.2992H142.025C142.445 4.2992 142.751 4.48853 142.944 4.8672L147.564 12.9999L152.185 4.8672C152.378 4.48853 152.684 4.2992 153.104 4.2992H155.914C156.106 4.2992 156.264 4.35944 156.386 4.47992C156.526 4.60041 156.596 4.75532 156.596 4.94465V21.7264C156.596 21.9158 156.526 22.0707 156.386 22.1912C156.264 22.3116 156.106 22.3719 155.914 22.3719H152.789C152.597 22.3719 152.43 22.3116 152.29 22.1912C152.168 22.0707 152.107 21.9158 152.107 21.7264V12.0446L149.166 17.4406C148.938 17.8365 148.632 18.0344 148.247 18.0344H146.882C146.654 18.0344 146.47 17.9828 146.33 17.8795C146.19 17.7763 146.068 17.6299 145.963 17.4406L142.996 12.0446V21.7264C142.996 21.8985 142.935 22.0535 142.812 22.1912C142.69 22.3116 142.532 22.3719 142.34 22.3719H139.189Z" fill="#458985"/>
<path d="M159.225 22.3719C159.085 22.3719 158.954 22.3202 158.831 22.217C158.726 22.0965 158.674 21.9674 158.674 21.8297C158.674 21.7264 158.682 21.649 158.7 21.5973L164.87 5.0221C164.922 4.81556 165.036 4.64344 165.211 4.50574C165.386 4.36804 165.614 4.2992 165.894 4.2992H169.78C170.06 4.2992 170.287 4.36804 170.462 4.50574C170.637 4.64344 170.751 4.81556 170.804 5.0221L176.947 21.5973L177 21.8297C177 21.9674 176.939 22.0965 176.816 22.217C176.711 22.3202 176.58 22.3719 176.422 22.3719H173.193C172.773 22.3719 172.493 22.1911 172.353 21.8297L171.329 19.1962H164.319L163.321 21.8297C163.181 22.1911 162.892 22.3719 162.454 22.3719H159.225ZM170.279 15.4784L167.837 8.66246L165.395 15.4784H170.279Z" fill="#458985"/>
</svg>
