<svg width="30" height="33" viewBox="0 0 30 33" fill="none" xmlns="http://www.w3.org/2000/svg">
<path d="M29.2145 21.7914L26.2115 18.8051V11.4465C26.2514 8.71398 25.2903 6.05944 23.5056 3.97302C21.7208 1.8866 19.233 0.509212 16.5015 0.0951943C14.9163 -0.111262 13.3047 0.0189935 11.7744 0.477271C10.244 0.935548 8.83014 1.71131 7.627 2.75279C6.42386 3.79427 5.45915 5.07753 4.79725 6.51693C4.13534 7.95633 3.79145 9.51878 3.78853 11.1V18.8051L0.785463 21.7914C0.408254 22.1706 0.152455 22.6514 0.0500445 23.1737C-0.0523657 23.6959 0.00315659 24.2364 0.20967 24.7276C0.416183 25.2188 0.764526 25.6389 1.21115 25.9354C1.65777 26.2319 2.18286 26.3916 2.72078 26.3946H8.32651V26.9556C8.40444 28.6306 9.1506 30.2067 10.4015 31.3386C11.6524 32.4705 13.306 33.0658 15 32.9942C16.694 33.0658 18.3476 32.4705 19.5985 31.3386C20.8494 30.2067 21.5956 28.6306 21.6735 26.9556V26.3946H27.2792C27.8171 26.3916 28.3422 26.2319 28.7888 25.9354C29.2355 25.6389 29.5838 25.2188 29.7903 24.7276C29.9968 24.2364 30.0524 23.6959 29.95 23.1737C29.8475 22.6514 29.5917 22.1706 29.2145 21.7914V21.7914ZM18.3367 26.9556C18.2442 27.7492 17.8456 28.4769 17.2241 28.9871C16.6025 29.4973 15.8058 29.7507 15 29.6944C14.1942 29.7507 13.3975 29.4973 12.7759 28.9871C12.1544 28.4769 11.7558 27.7492 11.6633 26.9556V26.3946H18.3367V26.9556ZM4.17226 23.0948L6.14094 21.1479C6.45321 20.8409 6.70095 20.4759 6.86989 20.0738C7.03883 19.6717 7.12563 19.2405 7.12528 18.8051V11.1C7.12619 9.98701 7.36783 8.88706 7.83399 7.874C8.30016 6.86093 8.98005 5.9582 9.82804 5.22638C10.6646 4.47681 11.6559 3.91595 12.7333 3.58264C13.8106 3.24933 14.9484 3.15153 16.0678 3.296C17.9972 3.60581 19.7485 4.59449 20.9993 6.08001C22.2501 7.56553 22.9161 9.44788 22.8747 11.3805V18.8051C22.8722 19.2393 22.9564 19.6698 23.1224 20.0719C23.2885 20.4739 23.5331 20.8396 23.8424 21.1479L25.8277 23.0948H4.17226Z" fill="#458985"/>
</svg>
