<svg width="28" height="28" viewBox="0 0 28 28" fill="none" xmlns="http://www.w3.org/2000/svg">
<path d="M16.0697 11.4395L7.3622 6.13602C6.97557 5.9175 6.42926 6.44701 6.63938 6.84204L11.8084 15.7176L20.684 20.8866C20.7842 20.923 20.8927 20.9297 20.9967 20.9059C21.1006 20.8822 21.1954 20.829 21.2699 20.7527C21.3444 20.6765 21.3953 20.5804 21.4166 20.4759C21.4379 20.3715 21.4287 20.2631 21.39 20.1638L16.0697 11.4395ZM12.7077 14.8015L15.2292 12.28L19.0534 18.5333L12.7077 14.8015Z" fill="#055632"/>
<path d="M13.6998 0.251953C11.0401 0.251953 8.44007 1.04066 6.22858 2.51832C4.0171 3.99599 2.29345 6.09626 1.27562 8.55353C0.25778 11.0108 -0.00853235 13.7147 0.510356 16.3233C1.02924 18.932 2.31003 21.3281 4.19074 23.2089C6.07146 25.0896 8.46764 26.3704 11.0763 26.8893C13.6849 27.4081 16.3888 27.1418 18.8461 26.124C21.3033 25.1062 23.4036 23.3825 24.8813 21.171C26.359 18.9595 27.1477 16.3595 27.1477 13.6998C27.1477 10.1332 25.7308 6.7127 23.2089 4.19074C20.6869 1.66878 17.2664 0.251953 13.6998 0.251953ZM14.5403 25.4246V23.3907H12.8593V25.4246C10.0403 25.2201 7.38912 24.0076 5.39054 22.0091C3.39196 20.0105 2.17953 17.3593 1.97496 14.5403H4.00895V12.8593H1.97496C2.17953 10.0403 3.39196 7.38911 5.39054 5.39053C7.38912 3.39195 10.0403 2.17953 12.8593 1.97496V4.00895H14.5403V1.97496C17.3593 2.17953 20.0105 3.39195 22.0091 5.39053C24.0077 7.38911 25.2201 10.0403 25.4247 12.8593H23.3907V14.5403H25.4247C25.2201 17.3593 24.0077 20.0105 22.0091 22.0091C20.0105 24.0076 17.3593 25.2201 14.5403 25.4246Z" fill="#055632"/>
<path fill-rule="evenodd" clip-rule="evenodd" d="M14.7926 23.1387V25.1505C17.45 24.8947 19.9392 23.7227 21.831 21.831C23.7227 19.9392 24.8947 17.45 25.1505 14.7926H23.1387V12.6074H25.1505C24.8947 9.94996 23.7227 7.46075 21.831 5.56902C19.9392 3.6773 17.45 2.50533 14.7926 2.24946V4.26129H12.6074V2.24946C9.94997 2.50533 7.46075 3.6773 5.56903 5.56902C3.6773 7.46075 2.50534 9.94996 2.24947 12.6074H4.26129V14.7926H2.24947C2.50534 17.45 3.6773 19.9392 5.56903 21.831C7.46075 23.7227 9.94997 24.8947 12.6074 25.1505V23.1387H14.7926ZM12.8595 25.4248C12.7753 25.4187 12.6913 25.4117 12.6074 25.4038C9.8827 25.1471 7.32962 23.9481 5.39073 22.0093C3.45185 20.0704 2.25286 17.5173 1.99618 14.7926C1.98828 14.7087 1.98127 14.6247 1.97516 14.5405H4.00915V12.8595H1.97516C1.98127 12.7753 1.98828 12.6912 1.99618 12.6074C2.25286 9.8827 3.45185 7.32961 5.39073 5.39073C7.32962 3.45184 9.8827 2.25285 12.6074 1.99618C12.6913 1.98827 12.7753 1.98126 12.8595 1.97515V4.00914H14.5405V1.97515C14.6247 1.98126 14.7087 1.98827 14.7926 1.99618C17.5173 2.25285 20.0704 3.45184 22.0093 5.39073C23.9482 7.32961 25.1471 9.8827 25.4038 12.6074C25.4117 12.6912 25.4187 12.7753 25.4248 12.8595H23.3909V14.5405H25.4248C25.4187 14.6247 25.4117 14.7087 25.4038 14.7926C25.1471 17.5173 23.9482 20.0704 22.0093 22.0093C20.0704 23.9481 17.5173 25.1471 14.7926 25.4038C14.7087 25.4117 14.6247 25.4187 14.5405 25.4248V23.3909H12.8595V25.4248ZM6.08869 2.30887C8.34164 0.803491 10.9904 0 13.7 0C17.3335 0 20.8181 1.44339 23.3874 4.01264C25.9566 6.58188 27.4 10.0665 27.4 13.7C27.4 16.4096 26.5965 19.0584 25.0911 21.3113C23.5858 23.5643 21.4461 25.3202 18.9428 26.3571C16.4394 27.3941 13.6848 27.6654 11.0273 27.1367C8.36973 26.6081 5.92862 25.3033 4.01264 23.3874C2.09666 21.4714 0.791865 19.0303 0.263248 16.3727C-0.26537 13.7152 0.00593601 10.9606 1.04286 8.45723C2.07978 5.95389 3.83574 3.81424 6.08869 2.30887ZM6.22878 2.51852C8.44026 1.04085 11.0403 0.252147 13.7 0.252147C17.2666 0.252147 20.6871 1.66897 23.2091 4.19093C25.731 6.71289 27.1478 10.1334 27.1478 13.7C27.1478 16.3597 26.3591 18.9597 24.8815 21.1712C23.4038 23.3827 21.3035 25.1063 18.8463 26.1242C16.389 27.142 13.6851 27.4083 11.0765 26.8894C8.46783 26.3706 6.07165 25.0898 4.19094 23.2091C2.31022 21.3283 1.02944 18.9322 0.51055 16.3235C-0.00833822 13.7149 0.257974 11.011 1.27581 8.55373C2.29365 6.09645 4.01729 3.99619 6.22878 2.51852Z" fill="#055632"/>
</svg>
