<svg width="42" height="42" viewBox="0 0 42 42" fill="none" xmlns="http://www.w3.org/2000/svg">
<path d="M41.9918 31.3353C41.9918 32.0262 42.0247 32.6185 41.9589 33.2436C41.9589 33.4081 41.7285 33.6055 41.564 33.6713C38.6354 34.8887 35.6739 36.0731 32.7453 37.2905C28.994 38.8369 25.2099 40.3504 21.4586 41.8967C21.1296 42.0283 20.8663 42.0283 20.5373 41.9296C13.8574 39.5936 7.17757 37.2247 0.530623 34.9216C0.16866 34.79 0.0370376 34.6255 0.0370376 34.2306C0.0699433 31.2037 0.0370376 28.1767 0.0370376 25.1498C0.0370376 24.9853 0.0370376 24.8537 0.0370376 24.6234C1.25455 25.0511 2.43915 25.4788 3.62376 25.8736C9.28353 27.8477 14.9762 29.8547 20.6689 31.7959C20.8992 31.8617 21.1954 31.8617 21.4257 31.763C27.5133 29.3283 33.5679 26.9265 39.6555 24.4588C39.82 24.393 40.0174 24.1956 40.0174 24.064C40.0503 22.2544 40.0174 20.4119 40.0174 18.5036C39.7871 18.5695 39.5897 18.6353 39.4251 18.7011C33.4034 21.1029 27.4146 23.5047 21.3928 25.8736C21.1625 25.9723 20.8663 25.9723 20.636 25.9065C13.9232 23.6692 7.21048 21.399 0.464812 19.1617C0.135756 19.063 -0.0287732 18.9314 0.00413244 18.5695C0.0370381 18.0759 0.00413244 17.5824 0.00413244 17.0231C5.56519 15.378 11.0933 13.7 16.6873 12.022C16.8847 12.6801 17.0822 13.3381 17.2796 14.029C12.7386 15.378 8.23055 16.6941 3.62376 18.0759C4.61093 18.4049 5.46647 18.7011 6.35493 18.9972C11.0933 20.5765 15.7989 22.1886 20.5373 23.7679C20.8663 23.8666 21.1625 23.8666 21.4586 23.735C26.6906 21.6293 31.9226 19.5236 37.1546 17.4508C37.2863 17.385 37.4179 17.3192 37.6811 17.2205C32.3833 15.9044 27.2171 14.5883 21.9851 13.3052C21.9851 14.8845 21.9851 16.4308 21.9851 17.9772C21.2941 17.9772 20.6689 17.9772 19.9779 17.9772C19.9779 15.3451 19.9779 12.713 19.9779 10.015C19.3198 10.015 18.6946 10.015 18.0693 10.015C16.9506 10.015 15.8647 9.8505 14.8117 9.48859C11.4224 8.30413 9.05319 5.01396 8.98738 1.42768C8.98738 0.967052 8.98738 0.539332 8.98738 0.012905C9.25063 0.012905 9.48096 0.012905 9.7113 0.012905C11.1921 0.0458067 12.7386 -0.0858016 14.1865 0.111608C17.9048 0.572232 20.3398 2.71084 21.5573 6.23132C21.5903 6.33003 21.6232 6.42873 21.689 6.56034C21.8206 6.42873 21.9193 6.29712 22.018 6.19842C23.7949 4.12561 26.0325 3.07276 28.7308 3.00696C30.1128 2.97406 31.4949 3.00696 32.9427 3.00696C33.1072 5.04686 32.7782 6.95516 31.7252 8.69895C30.6722 10.4427 29.1586 11.693 27.1184 12.4826C32.153 13.7329 37.0559 14.9503 41.9918 16.2005C41.9918 16.365 41.9918 16.5295 41.9918 16.6941C41.9918 19.5236 41.9918 22.386 41.9918 25.2156C41.9918 25.5446 41.926 25.7091 41.5969 25.8407C34.8512 28.5058 28.1385 31.2037 21.4257 33.9016C21.1954 34.0003 20.8663 34.0003 20.636 33.9016C14.6472 31.8288 8.62542 29.7231 2.63659 27.6174C2.47206 27.5516 2.27462 27.5187 2.07719 27.42C2.07719 27.6174 2.04428 27.7819 2.04428 27.9135C2.04428 29.5257 2.04428 31.1708 2.04428 32.783C2.04428 33.1449 2.143 33.3094 2.47206 33.4081C8.55961 35.5138 14.6472 37.6524 20.7347 39.7581C20.9321 39.8239 21.1954 39.791 21.3928 39.7252C27.25 37.3234 33.1401 34.9216 38.9974 32.5198C39.9516 32.1578 40.9388 31.763 41.9918 31.3353ZM11.0933 2.05281C11.0933 2.18441 11.0933 2.25022 11.1262 2.31602C12.0805 6.85645 15.7989 8.50154 20.0108 7.90931C19.7146 5.93521 18.7604 4.38883 17.148 3.23727C15.3053 1.9541 13.2322 1.9541 11.0933 2.05281ZM22.0838 10.9692C24.5518 11.1666 26.921 11.035 28.8624 9.19247C30.047 8.07382 30.7709 6.72485 30.9684 5.07976C26.3287 4.42173 22.3142 7.11967 22.0838 10.9692Z" fill="#458985"/>
</svg>
