<svg width="24" height="35" viewBox="0 0 24 35" fill="none" xmlns="http://www.w3.org/2000/svg">
<path d="M0.792725 18.4672C0.854491 14.2671 2.83102 9.57284 6.35172 5.49624C7.89589 3.70501 9.68712 2.16084 11.6945 0.863741C12.1269 0.585791 12.5284 0.554908 12.9608 0.863741C18.3653 4.50797 22.1331 9.32577 23.4611 15.7804C24.2949 19.857 24.0479 23.9027 21.9478 27.6087C19.8786 31.2529 16.605 33.353 12.5593 34.2795C12.096 34.3721 11.5401 34.1868 11.046 34.0324C4.49872 32.0559 0.792725 26.8675 0.792725 18.4672ZM11.4475 25.7866C11.4475 23.8718 11.4475 22.0806 11.4475 20.2585C11.4475 19.857 11.2931 19.6717 10.9842 19.4864C9.62535 18.7452 8.26649 18.004 6.90762 17.2628C5.67229 16.5834 4.43696 15.9039 3.13986 15.2245C2.64573 17.201 2.46042 19.1467 2.64572 21.1232C2.67661 21.2776 2.86191 21.4938 3.04721 21.5865C4.00459 22.0806 4.96198 22.5438 5.91936 23.038C7.71059 23.9336 9.5327 24.8292 11.4475 25.7866ZM21.5463 15.2245C18.8286 16.7069 16.1417 18.1584 13.5167 19.6099C13.3622 19.7026 13.2387 19.9805 13.2387 20.1967C13.2078 21.71 13.2387 23.2233 13.2387 24.7365C13.2387 25.0454 13.2387 25.3851 13.2387 25.7866C16.1726 24.3351 18.983 22.9144 21.7934 21.4938C21.9169 21.432 22.0405 21.2467 22.0405 21.1232C22.2257 19.1467 22.0404 17.2319 21.5463 15.2245ZM13.2387 17.7569C15.8947 16.3054 18.458 14.9157 21.0213 13.495C20.311 11.5494 19.4154 9.78902 18.18 8.18309C16.5741 9.32577 14.9991 10.4376 13.4549 11.5803C13.3314 11.6729 13.2696 11.8582 13.2387 11.9817C13.2078 13.8656 13.2387 15.7495 13.2387 17.7569ZM6.50614 8.18309C5.27081 9.8199 4.34431 11.5803 3.66487 13.495C6.25907 14.9157 8.82239 16.3054 11.4475 17.726C11.4475 15.9039 11.4166 14.2053 11.4475 12.4759C11.4475 11.8891 11.2931 11.5494 10.7989 11.2097C9.37829 10.2523 7.95765 9.23312 6.50614 8.18309ZM21.6081 23.6556C21.5772 23.6556 21.5463 23.6556 21.5154 23.6556C18.8286 24.9836 16.1726 26.3116 13.4858 27.6705C13.3622 27.7322 13.2387 27.9175 13.2387 28.0411C13.2078 29.4308 13.2387 30.8514 13.2387 32.2721C16.9447 31.4691 20.8051 27.8558 21.6081 23.6556ZM3.04721 23.563C4.00459 28.0719 8.0503 31.5618 11.4475 32.2103C11.4475 30.8206 11.4475 29.4308 11.4475 28.0411C11.4475 27.8866 11.3239 27.7013 11.1695 27.6396C8.48267 26.3116 5.79582 24.9527 3.04721 23.563ZM13.2387 9.51107C14.5667 8.55369 15.802 7.68896 17.13 6.73157C15.8329 5.49624 14.5976 4.35356 13.3622 3.21087C13.3314 3.24176 13.2696 3.27264 13.2387 3.30352C13.2387 5.34182 13.2387 7.38012 13.2387 9.51107ZM7.52529 6.73157C8.88416 7.68896 10.1195 8.58457 11.3857 9.51107C11.3857 7.38012 11.3857 5.34182 11.3857 3.30352C11.3548 3.27264 11.2931 3.24176 11.2622 3.21087C10.0577 4.35356 8.82239 5.49624 7.52529 6.73157Z" fill="#458985"/>
</svg>
