<svg width="53" height="53" viewBox="0 0 53 53" fill="none" xmlns="http://www.w3.org/2000/svg">
<path d="M0 26.5C0 11.8793 11.8793 0 26.5 0C41.1207 0 53 11.8793 53 26.5397C53 41.1604 41.1207 53 26.5 53C11.919 53 0 41.1207 0 26.5ZM1.86731 26.937C10.1709 24.0367 18.0375 24.8711 25.5465 29.3606C25.5465 27.2151 25.5465 25.1094 25.5465 23.0037C24.8711 22.9243 24.1957 22.8448 23.56 22.7256C20.8186 22.2091 18.4348 21.057 16.9648 18.5142C15.7729 16.488 15.3756 14.2631 15.4153 11.919C15.4153 11.3231 15.7729 10.9655 16.3688 10.9655C17.3223 11.0052 18.3156 11.045 19.2691 11.2039C21.931 11.6807 24.1956 12.8328 25.7054 15.1769C25.7054 15.1769 25.7849 15.1769 25.8246 15.2166C25.8643 15.0975 25.8643 15.018 25.904 14.8988C26.3808 12.952 27.1357 11.1642 28.6852 9.81335C30.9895 7.82684 33.7706 7.27062 36.7106 7.27062C37.2271 7.27062 37.5847 7.66792 37.545 8.22414C37.5052 9.17766 37.4655 10.1709 37.3066 11.1244C36.6709 14.8193 34.7241 17.4813 31.0292 18.5937C29.8771 18.9513 28.6454 19.1102 27.4138 19.3486C27.4138 22.6064 27.4138 25.904 27.4138 29.3208C30.9895 27.0562 34.8433 25.7054 38.9753 25.3081C43.1072 24.8711 47.1597 25.4273 51.0929 26.8973C51.4902 14.1439 41.2001 1.98651 26.7384 1.78786C12.3958 1.66867 1.50974 13.6274 1.86731 26.937ZM31.8636 50.5765C32.0622 50.5367 32.2609 50.497 32.4595 50.4573C33.3336 50.1792 34.2076 49.9408 35.0817 49.6627C35.8763 49.3846 35.8763 49.3846 35.7571 48.5502C34.8036 41.9153 31.7444 36.4723 26.5 32.3403C21.1762 28.1687 15.1372 26.5397 8.42279 27.2549C6.35682 27.4933 4.33058 28.0097 2.42353 28.7646C2.26461 28.8441 2.02623 29.0427 2.02623 29.2017C2.02623 29.7181 2.14542 30.1949 2.22488 30.7114C9.01874 29.8373 15.2564 31.1484 20.898 34.9228C26.5 38.6972 30.1154 43.9813 31.8636 50.5765ZM2.62218 32.539C2.62218 32.6184 2.62219 32.7376 2.66192 32.8171C2.94003 33.6514 3.21814 34.4858 3.45652 35.3201C3.53598 35.6379 3.73463 35.7571 4.05247 35.7969C8.18441 36.2736 11.9985 37.6642 15.455 39.9685C19.587 42.6702 22.6859 46.2856 24.8313 50.6957C24.9108 50.8943 25.1492 51.1724 25.3081 51.1724C26.8576 51.1724 28.407 51.093 29.9963 51.0532C26.7781 37.6642 13.6672 30.6319 2.62218 32.539ZM50.8148 30.6319C50.8546 30.2346 50.8943 29.8771 50.9738 29.5195C51.1327 28.9633 50.8943 28.7646 50.4175 28.6057C43.1072 26.0232 36.0352 26.6192 29.2811 30.4333C28.8838 30.6717 28.4865 30.91 28.2481 31.069C29.5195 32.3403 30.7909 33.6117 32.1019 34.8831C39.3726 30.8306 42.4318 30.1154 50.8148 30.6319ZM22.8846 50.8148C20.8186 46.8418 17.958 43.6634 14.2234 41.2796C11.2834 39.4123 8.10495 38.1807 4.56896 37.6642C8.26387 45.2924 16.2496 50.1792 22.8846 50.8148ZM50.497 32.4595C44.0607 31.6649 38.2998 32.976 33.0555 36.4723C33.9693 38.1012 34.8433 39.6507 35.6777 41.2002C35.7174 41.2002 35.7174 41.2002 35.7571 41.1604C39.6904 38.1012 44.1402 36.2736 49.1064 35.7174C49.2256 35.7174 49.4243 35.5982 49.464 35.5187C49.8216 34.5255 50.1394 33.5322 50.497 32.4595ZM48.5105 37.6244C47.9145 37.7436 47.4775 37.8231 47.0405 37.9026C43.1866 38.6972 39.7301 40.3261 36.6709 42.7894C36.3928 42.988 36.3531 43.1867 36.4325 43.5045C36.6709 44.2594 36.9093 45.0142 37.0682 45.8088C37.2669 46.6829 37.4258 47.5967 37.5847 48.5105C42.392 46.0472 45.9678 42.4715 48.5105 37.6244ZM27.4932 17.4018C31.8636 17.8786 36.3531 13.3891 35.7174 9.17766C30.6717 9.41604 27.6522 12.0382 27.4932 17.4018ZM25.5465 21.0967C25.467 16.0907 21.6926 12.3163 17.3223 12.8726C17.4415 18.1169 20.3816 20.8981 25.5465 21.0967Z" fill="#458985"/>
</svg>
