<svg width="24" height="41" viewBox="0 0 24 41" fill="none" xmlns="http://www.w3.org/2000/svg">
<path d="M17.3072 10.4524C18.4765 10.3492 19.6459 10.2461 20.8153 10.2117C21.4344 10.2117 22.0535 10.3836 22.6382 10.5212C23.1197 10.6244 23.4292 10.9339 23.5324 11.4154C24.2547 14.3389 23.842 17.0216 21.8815 19.4292C21.7783 19.5667 21.6752 19.6699 21.572 19.7731C21.5376 19.8075 21.572 19.8419 21.5376 19.9107C21.8815 20.0139 22.2598 20.0826 22.6382 20.1858C23.0853 20.289 23.3604 20.5985 23.498 21.0457C25.1489 27.0302 20.7121 31.7765 16.241 32.3268C15.7595 32.3956 15.2779 32.3956 14.7964 32.3956C14.3149 32.3956 13.8678 32.3268 13.3175 32.2924C13.3175 32.4987 13.3175 32.6707 13.3175 32.8427C13.3175 34.7687 13.3175 36.6948 13.3175 38.5864C13.3175 38.7584 13.3175 38.9303 13.3175 39.1023C13.2487 39.687 12.8016 40.0653 12.2513 40.0653C11.701 40.0653 11.2883 39.6526 11.2539 39.0679C11.2195 38.8616 11.2539 38.6208 11.2539 38.38C11.2539 36.5572 11.2539 34.6999 11.2539 32.8771C11.2539 32.7051 11.2539 32.4987 11.2539 32.258C10.9443 32.2924 10.6692 32.3268 10.394 32.3612C4.34077 32.9115 -0.54313 27.1677 1.00458 21.252C1.17655 20.5641 1.55488 20.1858 2.24276 20.0482C2.48351 20.0138 2.75866 19.9451 3.1026 19.8763C2.96502 19.7043 2.86184 19.5667 2.72426 19.4292C0.798222 17.056 0.351107 14.3733 1.03898 11.4154C1.17655 10.8995 1.4861 10.59 2.002 10.4524C3.75608 9.97091 5.47576 10.0397 7.29862 10.59C7.26422 10.3836 7.26423 10.2117 7.22983 10.0741C6.50757 6.29079 8.19285 2.61068 11.529 0.684633C12.0449 0.375091 12.4921 0.375091 13.0424 0.684633C16.3441 2.57628 18.0294 6.29079 17.3416 10.0397C17.3416 10.2461 17.3416 10.418 17.3072 10.4524ZM15.4499 8.76714C15.4155 6.15322 14.4869 4.33036 12.6984 2.92022C12.4233 2.71386 12.2513 2.71386 11.9762 2.92022C8.29604 5.60292 8.29603 11.2091 11.9418 13.8918C12.2513 14.0981 12.4577 14.1325 12.7328 13.8918C14.5213 12.516 15.4499 10.6932 15.4499 8.76714ZM21.8127 13.8918C21.7783 13.5479 21.7783 13.2383 21.7439 12.8944C21.7439 12.516 21.5376 12.3441 21.1593 12.2753C16.6881 11.6218 12.7328 15.6115 13.4551 20.117C13.4895 20.4266 13.627 20.5298 13.9366 20.5985C17.995 21.2864 21.8127 18.0534 21.8127 13.8918ZM4.47834 21.9399C4.37516 21.9399 4.30637 21.9399 4.20319 21.9399C2.75866 22.0087 2.89623 21.9399 2.82745 23.3156C2.68987 27.5804 6.54196 30.9854 10.6348 30.2975C10.9787 30.2288 11.1163 30.1256 11.1851 29.7472C11.8042 25.62 8.63997 21.9399 4.47834 21.9399ZM4.47834 12.2409C4.13441 12.2753 3.82487 12.2753 3.48093 12.3097C3.06821 12.3097 2.93063 12.516 2.86184 12.8944C2.17397 17.3655 6.23242 21.3208 10.7036 20.5985C11.0131 20.5641 11.1507 20.4266 11.1851 20.117C11.8386 16.0242 8.63997 12.2753 4.47834 12.2409ZM21.8127 23.5564C21.8127 23.2812 21.7783 23.0061 21.7783 22.7309C21.7783 22.1807 21.5032 22.0087 20.9873 21.9743C16.4817 21.5272 12.8016 25.3105 13.4551 29.7816C13.4895 30.0912 13.5927 30.2288 13.9366 30.2975C17.9606 30.951 21.8127 27.6836 21.8127 23.5564Z" fill="#458985"/>
</svg>
