<svg width="49" height="31" viewBox="0 0 39 21" fill="none" xmlns="http://www.w3.org/2000/svg">
<path fill-rule="evenodd" clip-rule="evenodd" d="M32.9722 15.2682C32.9756 15.2653 33.7133 14.6302 34.6448 13.3763C35.9621 11.6031 37.667 8.59245 38.2303 4.38296C38.3353 3.59799 38.4007 2.77133 38.4164 1.90324C38.4161 1.90324 38.4112 1.90073 38.4017 1.89591C38.0257 1.70541 30.5097 -2.10248 22.1579 1.63935C21.2877 2.0292 20.4085 2.50101 19.5273 3.0674C19.5273 3.0674 20.5218 3.44624 21.9506 4.53285C23.414 5.6457 25.3329 7.50091 27.1058 10.4518C27.1058 10.4518 30.5753 12.5709 32.6782 14.9262C32.7796 15.0397 32.8778 15.1538 32.9722 15.2682ZM32.8478 11.5957C33.0551 11.3022 33.2718 10.9733 33.4898 10.6093C34.4763 8.96268 35.4926 6.59967 35.8153 3.52342C34.9285 3.21161 33.6903 2.85947 32.2152 2.66017C30.0327 2.36529 27.3555 2.40516 24.5062 3.39477C25.8912 4.60747 27.4565 6.30939 28.9332 8.6516C28.9888 8.68779 29.0481 8.7267 29.111 8.76822C29.5286 9.04395 30.1062 9.43791 30.7534 9.91566C31.3852 10.3821 32.1189 10.9541 32.8478 11.5957ZM23.279 6.40555C25.4185 8.46211 26.5131 10.3149 26.5131 10.3149C24.9666 9.52728 23.4617 8.99641 22.0124 8.67028C12.5828 6.54845 5.5033 13.0938 4.57703 14.0011C4.50886 14.0678 4.47402 14.1041 4.47402 14.1041C3.88474 13.5148 3.36829 12.8419 2.91665 12.1288C0.621547 8.5051 0 3.8435 0 3.8435C11.3263 -2.17525 19.2009 2.48543 23.279 6.40555ZM18.3936 5.74969C14.8839 3.58639 9.74688 2.14544 2.82296 5.24325C2.93933 5.72662 3.08859 6.28199 3.27642 6.87505C3.66537 8.10314 4.185 9.38001 4.84956 10.4994C6.05986 9.58768 7.7621 8.47794 9.86145 7.56042C12.239 6.52133 15.1417 5.72693 18.3936 5.74969ZM4.7846 14.3528C4.98016 14.1619 5.64812 13.5318 6.70503 12.7581C8.99154 11.0844 13.0985 8.73901 18.1809 8.71701C22.518 8.69419 27.6882 10.4861 32.7786 15.5764C32.7786 15.5764 32.361 16.1616 31.3964 16.9586C31.2634 17.0685 31.12 17.1824 30.9659 17.2994C29.9594 18.0631 28.495 18.9568 26.4784 19.708C20.7717 21.8309 14.3917 21.3516 9.19863 18.1672C8.28334 17.6086 7.37202 16.9469 6.50679 16.1655L6.50677 16.1655C6.14615 15.8399 5.79354 15.4934 5.45198 15.125L5.45112 15.1241C5.2228 14.8778 4.99941 14.6217 4.78189 14.3555L4.7846 14.3528ZM4.75409 14.3828L4.78168 14.3552L4.78189 14.3555L4.75409 14.3828ZM4.72461 14.4123L4.75409 14.3828C4.73452 14.4022 4.72461 14.4123 4.72461 14.4123ZM10.5055 16.036C15.0064 18.7959 20.578 19.2353 25.6057 17.3653L25.6068 17.3649C27.1292 16.7977 28.2662 16.1491 29.0782 15.5818C25.0927 12.2889 21.2876 11.2007 18.1941 11.217L18.1917 11.217C14.8292 11.2315 11.9063 12.4463 9.76917 13.7235C9.29026 14.0097 8.85677 14.2955 8.47326 14.5659C9.12521 15.1241 9.80828 15.6105 10.501 16.0333L10.5055 16.036Z" fill="#458985"/>
</svg>
