<svg width="24" height="30" viewBox="0 0 24 30" fill="none" xmlns="http://www.w3.org/2000/svg">
<path d="M9.25341 29.0648C9.32867 29.1074 9.41367 29.1298 9.50016 29.1298L9.5 29.6298M9.25341 29.0648L9.74675 8.56498L18.2465 13.3798C18.3235 13.4234 18.3875 13.4867 18.432 13.5631C18.4765 13.6395 18.5 13.7264 18.5 13.8148V23.8148C18.5 23.9033 18.4765 23.9901 18.432 24.0665C18.3875 24.143 18.3235 24.2062 18.2465 24.2498L9.74659 29.0648C9.67133 29.1074 9.58633 29.1298 9.49984 29.1298L9.5 29.6298M9.25341 29.0648L9.25344 29.0648L9.007 29.4998M9.25341 29.0648L9.007 29.4998M9.25341 29.0648L0.753501 24.2498C0.676547 24.2062 0.612537 24.143 0.568002 24.0665C0.523468 23.9901 0.500003 23.9033 0.5 23.8148V13.8148M9.25341 29.0648L0.5 13.8148M9.5 29.6298C9.6728 29.6298 9.84264 29.585 9.993 29.4998H9.007M9.5 29.6298C9.3272 29.6298 9.15736 29.585 9.007 29.4998M0.5 13.8148C0.5 13.8148 0.5 13.8148 0.5 13.8148M0.5 13.8148V13.8148M0.5 13.8148C0.500005 13.7264 0.523471 13.6395 0.568002 13.5631M0.5 13.8148L0.568002 13.5631M0.568002 13.5631C0.612525 13.4867 0.676514 13.4235 0.753442 13.3799M0.568002 13.5631L0.753442 13.3799M0.753442 13.3799C0.753461 13.3799 0.75348 13.3798 0.7535 13.3798M0.753442 13.3799L0.7535 13.3798M0.7535 13.3798L9.25325 8.56498L0.7535 13.3798ZM9.5 8.5C9.41359 8.5 9.32866 8.52235 9.25344 8.56487L9.5 8.5ZM9.5 8.5C9.58641 8.5 9.67134 8.52235 9.74656 8.56487L9.5 8.5ZM1.5 23.2318V23.5233L1.75358 23.6669L9.25358 27.9149L9.5 28.0545L9.74642 27.9149L17.2464 23.6669L17.5 23.5233V23.2318V14.3978V14.1064L17.2464 13.9628L9.74642 9.71476L9.50003 9.57521L9.25363 9.71474L1.75363 13.9617L1.5 14.1054V14.3968V23.2318Z" fill="#458985" stroke="#458985"/>
<path d="M23.4998 15.3148V5.81484C23.4998 5.72639 23.4764 5.63952 23.4318 5.5631C23.3873 5.48668 23.3233 5.42344 23.2463 5.37984L14.7466 0.564976L23.4998 15.3148ZM23.4998 15.3148H22.4998V6.39782V6.10639L22.2463 5.96276L14.7463 1.71476L14.4998 1.57519L14.2534 1.71476L6.68139 6.0034L6.18839 5.13339L14.2531 0.564976L23.4998 15.3148ZM14.4998 0.5C14.4134 0.5 14.3285 0.522347 14.2533 0.564869L14.4998 0.5ZM14.4998 0.5C14.5862 0.5 14.6712 0.522347 14.7464 0.564869L14.4998 0.5Z" fill="#458985" stroke="#458985"/>
</svg>
