<svg width="146" height="146" viewBox="0 0 146 146" fill="none" xmlns="http://www.w3.org/2000/svg">
<path d="M73 146C113.317 146 146 113.317 146 73C146 32.6832 113.317 0 73 0C32.6832 0 0 32.6832 0 73C0 113.317 32.6832 146 73 146Z" fill="#C6D55E"/>
<path d="M92.669 46.5493V45.6594L91.7484 45.8435C81.9292 47.8994 70.6984 35.6254 70.6064 35.5026L69.9926 34.7969L69.4403 35.5333C62.751 44.5548 48.7278 45.997 48.5744 45.997L47.8687 46.0583V46.7641C47.8687 72.9385 69.4403 86.2559 69.6551 86.4093L70.054 86.6548L70.4529 86.4093C93.7736 72.8158 92.7304 46.7948 92.6997 46.5186L92.669 46.5493ZM70.054 84.8751C67.231 83.0033 49.7404 70.453 49.4029 47.4698C52.3487 47.0709 63.6715 45.0764 70.0847 37.1903C72.6009 39.7679 82.0519 48.6973 91.1347 47.5005C91.0734 52.0112 89.7539 73.092 70.0233 84.8751H70.054Z" fill="#3D3D3D"/>
<path d="M76.7744 52.7785C76.5596 52.1341 75.9766 50.6919 74.9947 49.311C73.6752 47.4699 71.4659 46.4266 69.2259 46.6107C67.1699 46.7642 65.4823 47.8995 64.5924 49.6793C64.439 49.9861 64.2855 50.3236 64.1935 50.7226C63.7946 52.1034 63.2422 53.0239 62.5058 53.699C61.6466 54.4355 59.7441 56.43 60.0817 58.9155C60.3272 60.7566 61.5546 62.8739 64.3469 63.5183C65.5129 63.7944 69.1338 63.5489 69.1338 63.5489V71.1282C69.1338 71.5578 69.4713 71.8953 69.9009 71.8953C70.3305 71.8953 70.6681 71.5578 70.6681 71.1282V63.5489H73.307C75.9766 63.5489 78.4621 62.1067 79.6281 59.8054C80.3339 58.3938 80.4873 57.0744 80.0884 55.8777C79.6281 54.6196 78.5541 53.5763 76.8665 52.7478L76.7744 52.7785ZM78.1859 59.161C77.296 60.9407 75.3629 62.0761 73.2456 62.0761H70.6067V60.7259L72.9694 59.6213C73.2149 59.4985 73.399 59.253 73.399 58.9462L73.5218 55.9083C73.5218 55.4788 73.2149 55.1412 72.7853 55.1105C72.3864 55.1105 72.0182 55.4174 71.9875 55.847C71.9875 55.847 72.233 57.8722 71.8648 58.4245C71.6807 58.7314 70.576 59.0382 70.576 59.0382V54.9264C70.576 54.4968 70.2385 54.1593 69.8089 54.1593C69.3793 54.1593 69.0417 54.4968 69.0417 54.9264V58.8234C69.0417 58.8234 67.4768 58.087 67.2006 57.6267C66.9858 57.2585 67.2006 55.9083 67.2006 55.9083C67.2006 55.4788 66.8631 55.1412 66.4335 55.1412C66.0039 55.1412 65.6664 55.4788 65.6664 55.9083V58.0256C65.6664 58.2711 65.7891 58.5166 66.0039 58.67L69.0417 60.6645V62.1067C69.0417 62.1067 65.8198 62.3522 64.7765 62.1067C62.6285 61.6158 61.708 60.0202 61.5239 58.7621C61.2784 56.9823 62.9354 55.356 63.457 54.9264C64.439 54.0672 65.114 52.8705 65.605 51.2442C65.6971 50.968 65.7891 50.6919 65.9119 50.4464C66.5562 49.1576 67.7837 48.3291 69.3179 48.2371C71.0363 48.1143 72.724 48.8814 73.7366 50.293C74.8719 51.8886 75.4243 53.6376 75.4243 53.6376L75.5163 53.9752L75.8232 54.1286C77.296 54.773 78.2166 55.6015 78.5235 56.522C78.7996 57.2892 78.6769 58.2097 78.1552 59.253L78.1859 59.161Z" fill="#3D3D3D"/>
<path d="M65.6968 73.2451C64.9296 73.2451 64.3159 73.8588 64.3159 74.6259C64.3159 75.3931 64.9296 76.0068 65.6968 76.0068C66.4639 76.0068 67.0776 75.3931 67.0776 74.6259C67.0776 73.8588 66.4639 73.2451 65.6968 73.2451Z" fill="#3D3D3D"/>
<path d="M70.269 76.0068C71.0316 76.0068 71.6498 75.3886 71.6498 74.6259C71.6498 73.8633 71.0316 73.2451 70.269 73.2451C69.5064 73.2451 68.8882 73.8633 68.8882 74.6259C68.8882 75.3886 69.5064 76.0068 70.269 76.0068Z" fill="#3D3D3D"/>
<path d="M74.3808 73.2451C73.6137 73.2451 73 73.8588 73 74.6259C73 75.3931 73.6137 76.0068 74.3808 76.0068C75.148 76.0068 75.7617 75.3931 75.7617 74.6259C75.7617 73.8588 75.148 73.2451 74.3808 73.2451Z" fill="#3D3D3D"/>
<path d="M104.667 81.5302C104.084 80.5789 102.918 80.088 101.261 80.088C100.923 80.088 100.647 80.3028 100.525 80.6096C100.494 80.7324 100.156 81.6222 99.3585 82.819C99.3585 80.9472 99.0823 78.6151 97.7629 77.6025C97.2412 77.2036 96.29 76.8354 94.8785 77.4184C94.6023 77.5411 94.4182 77.8173 94.4182 78.1241C94.4182 78.1855 94.2034 85.5806 89.2631 89.7845C88.6801 89.9379 88.097 90.0607 87.4527 90.1527C88.1891 88.9867 88.4653 88.5264 88.4653 88.5264C88.496 88.465 88.5266 88.373 88.5573 88.3116C88.9255 86.6239 89.171 84.6294 87.9129 83.985C86.1639 83.0951 83.0647 86.2557 81.8066 87.6365C76.4367 93.3747 77.7255 106.017 77.7868 106.569C77.8175 106.968 78.1551 107.244 78.554 107.244H78.646C79.0756 107.183 79.3825 106.815 79.3211 106.385C79.3211 106.262 78.0323 93.8963 82.9419 88.6798C84.5989 86.808 86.7162 85.2124 87.1765 85.3658C87.1765 85.3658 87.514 85.7647 87.0538 87.882C86.9003 88.1275 86.5014 88.8026 85.6115 90.1834C85.6115 90.1834 85.5195 90.3982 85.4274 90.6744C85.0899 91.5642 84.4762 93.4053 84.4762 94.6327C84.4762 95.0623 84.8137 95.3999 85.2433 95.3999C85.6729 95.3999 86.0105 95.0623 86.0105 94.6327C86.0105 93.8656 86.348 92.6996 86.6548 91.8404C96.9651 90.6437 100.831 83.7088 101.721 81.7143C102.366 81.7757 103.041 81.9291 103.317 82.4201C103.746 83.0951 103.348 84.2305 103.163 84.6294C101.967 87.1763 94.1727 95.2465 91.3804 98.0388C86.2253 101.629 87.2685 106.477 87.2992 106.692C87.3913 107.06 87.6981 107.275 88.0357 107.275C88.097 107.275 88.1584 107.275 88.2198 107.275C88.6187 107.183 88.8949 106.784 88.8028 106.354C88.7721 106.201 87.9743 102.304 92.3623 99.2355C92.7919 98.8059 103.01 88.6185 104.544 85.3045C104.636 85.0897 105.557 83.1258 104.606 81.6222L104.667 81.5302ZM92.3009 88.7412C95.216 84.9056 95.8297 80.2721 95.9524 78.6765C96.5048 78.5537 96.7809 78.7378 96.873 78.7992C97.8856 79.5663 98.0084 82.7576 97.7629 84.8749C96.5048 86.225 94.725 87.6672 92.3316 88.7105L92.3009 88.7412Z" fill="#3D3D3D"/>
<path d="M53.6375 83.7702C52.3487 84.4145 52.6249 86.4398 52.9931 88.0968C52.9931 88.1888 53.0545 88.2502 53.0852 88.3116C53.0852 88.3116 53.392 88.8025 54.0978 89.9379C53.4534 89.8458 52.8704 89.7231 52.2874 89.5696C47.3471 85.3658 47.1323 77.9707 47.1323 77.9093C47.1323 77.6024 46.9482 77.3263 46.672 77.2035C45.2605 76.6205 44.3399 76.9887 43.7876 77.3876C42.4988 78.4002 42.192 80.7323 42.192 82.6041C41.3941 81.4074 41.0873 80.5175 41.0259 80.3948C40.9032 80.0879 40.627 79.8731 40.2895 79.8731C38.6325 79.8731 37.4664 80.3641 36.8834 81.3153C35.9322 82.8189 36.8834 84.7521 36.9448 84.9669C38.4791 88.2809 48.6972 98.4683 49.2495 98.99C53.5455 101.966 52.717 105.863 52.6863 106.017C52.5942 106.416 52.8397 106.845 53.2693 106.937C53.3307 106.937 53.392 106.937 53.4534 106.937C53.7909 106.937 54.1285 106.692 54.1899 106.354C54.2512 106.14 55.2945 101.291 50.2315 97.7933C47.3164 94.9089 39.5223 86.8387 38.3256 84.2611C38.1415 83.8929 37.7426 82.7575 38.1722 82.0825C38.4484 81.6222 39.1234 81.4381 39.7678 81.3767C40.6577 83.3712 44.524 90.3061 54.8036 91.5028C55.1104 92.3927 55.4479 93.5587 55.4479 94.2952C55.4479 94.7248 55.7855 95.0623 56.2151 95.0623C56.6447 95.0623 56.9822 94.7248 56.9822 94.2952C56.9822 93.1291 56.4299 91.4414 56.0617 90.4902C56.0617 90.4288 56.0616 90.3675 56.0003 90.3368C55.8775 90.0299 55.7855 89.8151 55.7548 89.7538C54.9263 88.465 54.5274 87.7899 54.374 87.5751C53.9444 85.4885 54.2512 85.0589 54.2512 85.0589C54.7422 84.8748 56.8595 86.5318 58.5471 88.3729C63.4261 93.5894 62.168 105.956 62.168 106.078C62.1373 106.508 62.4135 106.876 62.8431 106.937H62.9351C63.334 106.937 63.6409 106.661 63.7023 106.262C63.7636 105.741 65.0524 93.0678 59.6825 87.3603C58.4244 85.9488 55.3252 82.8189 53.5761 83.7088L53.6375 83.7702ZM43.849 84.7521C43.6342 83.003 43.6035 79.5049 44.7388 78.6764C44.8309 78.615 45.107 78.4003 45.6594 78.5537C45.7821 80.1493 46.3958 84.7828 49.3109 88.6184C46.8868 87.5444 45.1377 86.1329 43.8796 84.7828L43.849 84.7521Z" fill="#3D3D3D"/>
</svg>
