<svg width="146" height="146" viewBox="0 0 146 146" fill="none" xmlns="http://www.w3.org/2000/svg">
<path d="M73 146C113.317 146 146 113.317 146 73C146 32.6832 113.317 0 73 0C32.6832 0 0 32.6832 0 73C0 113.317 32.6832 146 73 146Z" fill="#C6D55E"/>
<path d="M74.81 64.0089C74.5952 63.3645 74.0122 61.9223 73.0303 60.5415C71.7108 58.7004 69.5015 57.6571 67.2615 57.8412C65.2056 57.9946 63.5179 59.13 62.628 60.9097C62.4746 61.2166 62.3212 61.5541 62.2291 61.953C61.8302 63.3339 61.2779 64.2544 60.5414 64.9295C59.6823 65.6659 57.7798 67.6605 58.1173 70.146C58.3628 71.9871 59.5902 74.1043 62.3826 74.7487C63.5486 75.0249 67.1694 74.7794 67.1694 74.7794V82.3587C67.1694 82.7882 67.507 83.1258 67.9366 83.1258C68.3662 83.1258 68.7037 82.7882 68.7037 82.3587V74.7794H71.3426C74.0122 74.7794 76.4977 73.3372 77.6638 71.0358C78.3695 69.6243 78.5229 68.3049 78.124 67.1081C77.6638 65.85 76.5898 64.8067 74.9021 63.9782L74.81 64.0089ZM76.2216 70.3914C75.3317 72.1712 73.3985 73.3065 71.2812 73.3065H68.6423V71.9564L71.0051 70.8517C71.2506 70.729 71.4347 70.4835 71.4347 70.1766L71.5574 67.1388C71.5574 66.7092 71.2506 66.3717 70.821 66.341C70.4221 66.341 70.0538 66.6479 70.0232 67.0774C70.0232 67.0774 70.2686 69.1027 69.9004 69.655C69.7163 69.9619 68.6116 70.2687 68.6116 70.2687V66.1569C68.6116 65.7273 68.2741 65.3898 67.8445 65.3898C67.4149 65.3898 67.0774 65.7273 67.0774 66.1569V70.0539C67.0774 70.0539 65.5124 69.3175 65.2363 68.8572C65.0215 68.489 65.2363 67.1388 65.2363 67.1388C65.2363 66.7092 64.8987 66.3717 64.4691 66.3717C64.0396 66.3717 63.702 66.7092 63.702 67.1388V69.2561C63.702 69.5016 63.8248 69.7471 64.0396 69.9005L67.0774 71.895V73.3372C67.0774 73.3372 63.8554 73.5827 62.8121 73.3372C60.6642 72.8463 59.7436 71.2506 59.5595 69.9925C59.314 68.2128 60.971 66.5865 61.4927 66.1569C62.4746 65.2977 63.1497 64.101 63.6406 62.4747C63.7327 62.1985 63.8248 61.9223 63.9475 61.6769C64.5919 60.3881 65.8193 59.5596 67.3536 59.4675C69.0719 59.3448 70.7596 60.1119 71.7722 61.5234C72.9076 63.1191 73.4599 64.8681 73.4599 64.8681L73.552 65.2056L73.8588 65.3591C75.3317 66.0035 76.2523 66.832 76.5591 67.7525C76.8353 68.5196 76.7125 69.4402 76.1909 70.4835L76.2216 70.3914Z" fill="#3D3D3D"/>
<path d="M93.4976 90.46C90.3677 90.46 87.8208 87.9131 87.8208 84.7832C87.8208 81.6533 90.3677 79.1064 93.4976 79.1064C96.6274 79.1064 99.1743 81.6533 99.1743 84.7832C99.1743 87.9131 96.6274 90.46 93.4976 90.46ZM93.4976 80.6714C91.2268 80.6714 89.3551 82.5125 89.3551 84.8139C89.3551 87.1153 91.1962 88.9564 93.4976 88.9564C95.7989 88.9564 97.64 87.1153 97.64 84.8139C97.64 82.5125 95.7989 80.6714 93.4976 80.6714Z" fill="#3D3D3D"/>
<path d="M93.4977 99.6965L90.644 94.6641L83.5557 95.8915V88.2509L78.0938 84.5073L83.9239 80.7944L83.4943 73.6448L89.9382 75.4245L94.0807 70.4229L97.0879 75.1177L104.023 74.7801L103.317 80.7944L108.227 85.5506L103.164 89.1101L103.44 95.2471L96.6276 94.6334L93.5284 99.6965H93.4977ZM91.4418 92.9764L93.5591 96.6893L95.7991 93.0071L101.783 93.5595L101.537 88.343L105.772 85.3665L101.66 81.3775L102.243 76.4065L96.2287 76.7133L93.8659 73.0311L90.4292 77.1736L85.1206 75.7007L85.4889 81.5922L80.8554 84.538L85.0593 87.4531V94.0504L91.4111 92.9458L91.4418 92.9764Z" fill="#3D3D3D"/>
<path d="M84.2919 108.564L83.985 102.274L77.7866 102.734L84.3532 94.3877L85.55 95.3389L81.162 100.954L85.4272 100.617L85.6113 104.391L92.0552 96.1981L93.2519 97.1494L84.2919 108.564Z" fill="#3D3D3D"/>
<path d="M103.071 109.883L94.2954 96.2591L95.5842 95.4306L102.12 105.557L102.642 101.752L106.263 101.967L100.801 94.7555L102.028 93.835L109.485 103.685L103.961 103.378L103.071 109.883Z" fill="#3D3D3D"/>
<path d="M67.0778 91.1347L66.6789 90.7971C65.9731 90.2141 49.3725 76.4365 50.3544 59.3142V58.7925L50.9067 58.6391C50.9067 58.6391 63.0274 54.8341 66.4948 47.3163L67.0471 46.0889L67.8142 47.1935C67.8142 47.1935 74.4422 56.4298 84.2615 57.9333L84.9673 58.0561L84.9059 58.7618C84.8445 59.7131 82.9113 82.1746 67.5688 90.8892L67.1085 91.1347H67.0778ZM51.858 59.9279C51.3363 74.6261 64.7457 87.0842 67.2619 89.2629C80.0576 81.5916 82.85 63.1191 83.3102 59.3142C75.0866 57.7492 69.3178 51.4895 67.3233 49.0346C63.5183 55.632 54.2207 59.1301 51.8886 59.9279H51.858Z" fill="#3D3D3D"/>
<path d="M78.2777 98.9596H40.2588V39.5225H94.7249V68.9188H93.1907V41.0567H41.793V97.4254H78.2777V98.9596Z" fill="#3D3D3D"/>
<path d="M46.7029 44.4629H44.4629V46.795H46.7029V44.4629Z" fill="#3D3D3D"/>
<path d="M51.2137 44.4629H48.9736V46.795H51.2137V44.4629Z" fill="#3D3D3D"/>
<path d="M55.6321 44.4629H53.3921V46.795H55.6321V44.4629Z" fill="#3D3D3D"/>
<path d="M46.7332 92.5469H44.4932V94.8789H46.7332V92.5469Z" fill="#3D3D3D"/>
<path d="M51.2439 92.5469H49.0039V94.8789H51.2439V92.5469Z" fill="#3D3D3D"/>
<path d="M55.6624 92.5469H53.4224V94.8789H55.6624V92.5469Z" fill="#3D3D3D"/>
<path d="M81.4998 44.4629H79.2598V46.795H81.4998V44.4629Z" fill="#3D3D3D"/>
<path d="M86.0105 44.4629H83.7705V46.795H86.0105V44.4629Z" fill="#3D3D3D"/>
<path d="M90.429 44.4629H88.189V46.795H90.429V44.4629Z" fill="#3D3D3D"/>
</svg>
