<?xml version="1.0" standalone="no"?>
<!DOCTYPE svg PUBLIC "-//W3C//DTD SVG 20010904//EN"
 "http://www.w3.org/TR/2001/REC-SVG-20010904/DTD/svg10.dtd">
<svg version="1.0" xmlns="http://www.w3.org/2000/svg"
 width="256.000000pt" height="256.000000pt" viewBox="0 0 256.000000 256.000000"
 preserveAspectRatio="xMidYMid meet">

<g transform="translate(0.000000,256.000000) scale(0.100000,-0.100000)"
fill="#000000" stroke="none">
<path d="M1042 2240 c-398 -56 -706 -332 -814 -728 -29 -106 -31 -323 -4 -437
83 -361 357 -645 710 -735 276 -70 613 2 832 178 l59 48 45 -32 c156 -114 374
-54 459 126 49 105 28 245 -49 325 l-29 30 -3 475 c-3 464 -4 476 -24 515 -12
22 -30 48 -41 57 -28 25 -88 48 -125 48 -73 -1 -162 -67 -175 -131 -3 -16 -9
-29 -12 -29 -4 0 -25 18 -46 41 -54 55 -186 142 -273 179 -146 62 -359 91
-510 70z m368 -100 c41 -11 95 -30 122 -42 l47 -20 -74 -72 c-75 -72 -125
-155 -125 -204 0 -66 69 -133 171 -167 60 -20 86 -52 94 -113 13 -100 17 -114
47 -148 31 -36 100 -76 151 -88 l27 -6 0 -113 0 -112 -62 -24 c-35 -13 -81
-35 -102 -49 -68 -42 -90 -44 -132 -12 -46 37 -120 65 -211 79 -140 22 -215
-17 -228 -117 -11 -81 -26 -112 -72 -155 -24 -23 -57 -64 -71 -92 -24 -46 -27
-60 -27 -163 l0 -113 -25 6 c-136 34 -298 130 -405 239 -62 63 -136 160 -150
198 -4 9 30 26 112 57 261 97 369 166 428 273 24 43 30 65 30 118 0 86 -32
140 -126 216 -39 31 -73 63 -76 72 -4 9 16 59 45 116 65 127 82 176 82 238 0
60 -21 103 -60 123 -17 9 -28 20 -25 25 7 11 113 46 196 65 95 22 321 14 419
-15z m309 -155 c33 -25 80 -69 105 -97 l46 -50 0 -239 c0 -185 -3 -239 -12
-239 -27 1 -97 39 -112 62 -8 13 -20 53 -25 90 -15 107 -49 153 -140 189 -161
64 -162 121 -3 272 33 31 65 57 70 57 6 0 37 -20 71 -45z m400 31 c53 -28 53
-32 52 -542 l-2 -471 42 -49 c53 -61 70 -103 70 -169 0 -94 -49 -171 -136
-211 -156 -73 -324 35 -325 209 0 76 19 119 77 173 l48 43 5 493 c3 271 7 494
8 496 1 1 17 11 35 22 38 23 87 26 126 6z m-1349 -9 c60 -30 47 -115 -41 -269
-28 -48 -53 -103 -56 -121 -7 -43 16 -88 64 -124 114 -88 143 -126 143 -190
-1 -94 -77 -177 -225 -248 -96 -46 -277 -115 -299 -115 -34 0 -76 183 -76 334
0 233 76 439 223 601 94 105 150 145 200 145 23 0 53 -6 67 -13z m670 -1048
c19 -7 62 -30 94 -51 33 -21 72 -38 87 -38 15 0 58 16 94 36 53 28 66 31 60
17 -38 -89 -41 -182 -9 -259 16 -38 16 -38 -12 -62 -168 -140 -367 -212 -585
-212 -66 0 -119 3 -119 6 0 3 -5 36 -11 74 -17 111 -1 166 70 243 71 76 80 92
92 170 15 92 27 101 124 94 44 -3 96 -12 115 -18z" fill="#458985"/>
<path d="M2036 1864 c-14 -14 -16 -70 -16 -474 l0 -458 -30 -12 c-56 -23 -96
-104 -84 -169 9 -47 67 -108 115 -121 114 -31 223 80 189 192 -13 44 -70 108
-96 108 -12 0 -14 69 -14 465 0 449 -1 465 -19 475 -25 13 -27 13 -45 -6z m78
-1025 c55 -43 18 -139 -54 -139 -42 0 -80 39 -80 81 0 69 77 103 134 58z" fill="#458985"/>
</g>
</svg>
