<?xml version="1.0" standalone="no"?>
<!DOCTYPE svg PUBLIC "-//W3C//DTD SVG 20010904//EN"
 "http://www.w3.org/TR/2001/REC-SVG-20010904/DTD/svg10.dtd">
<svg version="1.0" xmlns="http://www.w3.org/2000/svg"
 width="200.000000pt" height="200.000000pt" viewBox="0 0 200.000000 200.000000"
 preserveAspectRatio="xMidYMid meet">

<g transform="translate(0.000000,200.000000) scale(0.100000,-0.100000)"
fill="#458985" stroke="none">
<path d="M1187 1893 c-3 -5 -12 -34 -21 -66 -28 -98 -61 -113 -176 -82 -30 8
-56 12 -58 10 -3 -2 3 -31 12 -63 9 -32 16 -71 16 -86 0 -40 -38 -72 -104 -87
-31 -7 -59 -16 -62 -21 -3 -5 7 -23 23 -41 15 -18 35 -43 43 -55 14 -21 18
-22 47 -11 26 9 35 19 44 52 18 69 58 137 108 187 217 217 583 122 673 -173
55 -183 -28 -381 -197 -469 -50 -26 -65 -38 -65 -55 0 -13 -8 -41 -17 -64
l-16 -42 29 -23 c33 -27 35 -25 54 55 15 63 47 101 86 101 14 0 53 -7 86 -16
33 -8 62 -14 64 -12 2 2 -3 28 -11 58 -32 119 -17 147 95 180 l72 21 -56 59
c-75 79 -76 106 -5 184 28 30 48 59 45 64 -3 5 -30 14 -60 21 -104 23 -123 60
-92 178 8 28 12 54 9 56 -2 3 -28 -1 -56 -9 -69 -18 -117 -18 -139 3 -10 9
-27 47 -38 85 -12 37 -23 68 -27 68 -3 0 -30 -22 -60 -50 -44 -40 -62 -50 -89
-50 -28 0 -45 10 -88 50 -54 51 -62 56 -69 43z"/>
<path d="M1272 1680 c-101 -21 -193 -97 -239 -197 -29 -62 -25 -83 15 -83 44
0 148 -57 187 -102 32 -38 75 -130 75 -161 0 -7 17 -19 38 -26 20 -8 54 -32
74 -53 l37 -40 46 23 c60 30 120 96 153 167 37 80 37 192 0 274 -33 71 -103
142 -171 173 -60 27 -152 38 -215 25z"/>
<path d="M450 1521 c-87 -28 -161 -91 -200 -171 -41 -81 -37 -230 6 -230 54 0
131 -79 148 -152 6 -26 4 -28 -29 -28 -25 0 -35 4 -35 15 0 29 -30 75 -60 90
-70 36 -155 2 -178 -72 -12 -37 -11 -46 6 -86 32 -73 53 -78 304 -75 l213 3 5
152 c5 143 6 153 29 177 52 55 130 55 182 0 23 -24 24 -34 29 -177 l5 -152
213 -3 c249 -3 267 2 302 74 20 40 21 48 8 86 -23 75 -108 109 -178 73 -30
-15 -60 -61 -60 -90 0 -11 -10 -15 -35 -15 -33 0 -35 2 -29 28 14 60 53 110
103 134 44 20 49 26 44 48 -18 77 -90 157 -162 178 -48 15 -118 15 -158 2 -29
-11 -30 -12 -22 -53 4 -23 8 -45 9 -49 0 -5 -16 -8 -35 -8 -32 0 -35 2 -35 30
0 89 -81 204 -176 251 -50 24 -168 35 -214 20z"/>
<path d="M706 1104 c-10 -9 -16 -33 -16 -60 0 -42 1 -44 30 -44 27 0 30 -3 30
-30 0 -27 -3 -30 -30 -30 -28 0 -30 -3 -30 -35 0 -32 2 -35 30 -35 27 0 30 -3
30 -30 0 -27 -3 -30 -30 -30 -27 0 -30 -3 -30 -30 0 -27 3 -30 30 -30 27 0 30
-3 30 -30 0 -27 -3 -30 -30 -30 -28 0 -30 -3 -30 -35 0 -32 2 -35 30 -35 27 0
30 -3 30 -30 0 -27 -3 -30 -30 -30 -27 0 -30 -3 -30 -30 0 -27 3 -30 30 -30
27 0 30 -3 30 -30 0 -27 -3 -30 -30 -30 -29 0 -30 -1 -30 -52 0 -42 -5 -57
-26 -79 -66 -69 -39 -179 52 -209 115 -38 205 111 124 203 l-30 35 0 375 c0
328 -2 378 -16 391 -20 20 -68 20 -88 0z m74 -884 c0 -27 -3 -30 -30 -30 -27
0 -30 3 -30 30 0 27 3 30 30 30 27 0 30 -3 30 -30z"/>
</g>
</svg>
