<svg width="17" height="17" viewBox="0 0 17 17" fill="none" xmlns="http://www.w3.org/2000/svg">
<path d="M1.03897 1.0385C1.31566 0.762153 1.69071 0.606934 2.08176 0.606934C2.47281 0.606934 2.84786 0.762153 3.12455 1.0385L8.47619 6.39012L13.8378 1.04636C14.1148 0.769801 14.4904 0.614634 14.8819 0.615007C15.2733 0.615367 15.6487 0.771241 15.9253 1.04833C16.2018 1.32541 16.3569 1.70101 16.3566 2.09251C16.3562 2.484 16.2004 2.85931 15.9233 3.13587L10.5637 8.47775L15.9233 13.8373C16.0682 13.9724 16.1846 14.1353 16.2652 14.3163C16.3459 14.4973 16.3892 14.6927 16.3927 14.8908C16.3962 15.0889 16.3598 15.2857 16.2856 15.4695C16.2113 15.6532 16.1009 15.8201 15.9607 15.9602C15.8206 16.1004 15.6537 16.2108 15.4699 16.2851C15.2862 16.3593 15.0894 16.3958 14.8913 16.3922C14.6932 16.3887 14.4978 16.3454 14.3168 16.2647C14.1358 16.1841 13.9727 16.0678 13.8378 15.9228L8.47619 10.5652L3.12455 15.9228C2.84482 16.1834 2.47483 16.3253 2.09254 16.3187C1.71026 16.3118 1.3455 16.1571 1.07514 15.8866C0.804769 15.6162 0.64991 15.2515 0.643161 14.8692C0.636411 14.487 0.778325 14.117 1.03897 13.8373L6.39062 8.47775L1.03897 3.12603C0.762641 2.84935 0.607422 2.47429 0.607422 2.08325C0.607422 1.69219 0.762641 1.31714 1.03897 1.04046V1.0385Z" fill="#458985"/>
</svg>
