<svg width="34" height="29" viewBox="0 0 34 29" fill="none" xmlns="http://www.w3.org/2000/svg">
<path fill-rule="evenodd" clip-rule="evenodd" d="M18.5248 3.18069C17.6002 3.01258 16.6469 3.01001 15.7211 3.17316C14.7953 3.33631 13.9212 3.66088 13.1479 4.12288C11.5855 5.05643 10.5472 6.4792 10.1963 8.0423C10.0399 8.73913 9.42123 9.23434 8.70706 9.23434C7.18607 9.23434 5.74029 9.81292 4.68456 10.8227C3.63114 11.8304 3.05267 13.1821 3.05267 14.5765C3.05267 15.9709 3.63114 17.3227 4.68456 18.3303C5.74029 19.3401 7.18607 19.9187 8.70706 19.9187C9.55003 19.9187 10.2334 20.6021 10.2334 21.445C10.2334 22.288 9.55003 22.9714 8.70706 22.9714C6.41916 22.9714 4.21205 22.1027 2.57448 20.5363C0.934609 18.9677 0 16.8254 0 14.5765C0 12.3276 0.934609 10.1853 2.57448 8.61675C3.93361 7.31672 5.68505 6.49726 7.5494 6.25617C8.2791 4.29285 9.70668 2.62291 11.5822 1.50233C12.683 0.84463 13.9096 0.392682 15.1913 0.166811C16.473 -0.0590574 17.7906 -0.0555243 19.0709 0.177254C20.3512 0.410036 21.575 0.868636 22.6717 1.53241C23.7685 2.1963 24.7201 3.05463 25.4655 4.06512C26.2112 5.07611 26.7349 6.21855 26.9982 7.42869C27.128 8.02543 27.1929 8.63097 27.1927 9.23643C28.9529 9.27986 30.6318 9.99801 31.8799 11.2461C33.168 12.5342 33.8916 14.2812 33.8916 16.1029C33.8916 17.9245 33.168 19.6715 31.8799 20.9596C30.5918 22.2477 28.8448 22.9714 27.0231 22.9714H25.4968C24.6538 22.9714 23.9704 22.288 23.9704 21.445C23.9704 20.6021 24.6538 19.9187 25.4968 19.9187H27.0231C28.0351 19.9187 29.0057 19.5167 29.7213 18.8011C30.4369 18.0855 30.839 17.1149 30.839 16.1029C30.839 15.0908 30.4369 14.1203 29.7213 13.4046C29.0057 12.689 28.0351 12.287 27.0231 12.287H25.4968C25.0332 12.287 24.5948 12.0764 24.3051 11.7145C24.0155 11.3526 23.906 10.8787 24.0075 10.4264C24.1816 9.65096 24.1842 8.85384 24.0153 8.07766C23.8464 7.30107 23.5072 6.55286 23.0089 5.87722C22.5101 5.20108 21.8607 4.60984 21.091 4.14398C20.3211 3.678 19.4494 3.34879 18.5248 3.18069Z" fill="#458985"/>
<path d="M15.0652 22.3446H18.3653L19.6914 8.97119H13.7387L15.0652 22.3446Z" fill="#458985"/>
<path d="M16.7158 28.813C15.3162 28.813 14.1816 27.6809 14.1816 26.2844C14.1816 24.8879 15.3162 23.7559 16.7158 23.7559C18.1154 23.7559 19.25 24.8879 19.25 26.2844C19.25 27.6809 18.1154 28.813 16.7158 28.813Z" fill="#458985"/>
</svg>
