<svg width="16" height="10" viewBox="0 0 16 10" fill="none" xmlns="http://www.w3.org/2000/svg">
<path d="M5.2001 3.00021C3.7001 3.00021 2.6001 4.20021 2.6001 5.60021C2.6001 5.70021 2.5001 5.80021 2.4001 5.80021C1.4001 5.80021 0.500095 6.60021 0.500095 7.70021C0.500095 8.70021 1.3001 9.60021 2.4001 9.60021H12.8001C13.8001 9.60021 14.7001 8.80021 14.7001 7.70021C14.7001 6.70021 13.9001 5.80021 12.8001 5.80021C12.7001 5.80021 12.6001 5.70021 12.6001 5.60021C12.6001 5.60021 12.6001 5.60021 12.6001 5.50021C12.7001 5.10021 12.8001 4.80021 12.8001 4.40021C12.8001 2.60021 11.3001 1.10021 9.5001 1.10021C8.2001 1.10021 7.1001 1.80021 6.5001 3.00021C6.5001 3.10021 6.3001 3.20021 6.2001 3.10021C5.9001 3.10021 5.6001 3.00021 5.2001 3.00021ZM12.8001 10.0002H2.4001C1.1001 10.0002 0.100098 9.00021 0.100098 7.70021C0.100098 6.50021 1.0001 5.50021 2.2001 5.40021C2.3001 3.70021 3.8001 2.40021 5.5001 2.60021C5.8001 2.60021 6.0001 2.70021 6.3001 2.80021C7.3001 1.00021 9.5001 0.30021 11.3001 1.20021C12.8001 2.00021 13.6001 3.80021 13.1001 5.40021C14.4001 5.50021 15.3001 6.70021 15.1001 7.90021C15.0001 9.10021 14.0001 10.0002 12.8001 10.0002Z" fill="black"/>
<path d="M6.5001 7.30039L6.9001 7.40039C6.8001 7.70039 6.7001 7.90039 6.5001 8.10039C6.3001 8.30039 6.0001 8.30039 5.8001 8.30039C5.5001 8.30039 5.3001 8.20039 5.1001 8.10039C4.9001 8.00039 4.8001 7.80039 4.7001 7.60039C4.6001 7.40039 4.6001 7.10039 4.6001 6.90039C4.6001 6.60039 4.7001 6.40039 4.8001 6.10039C4.9001 5.90039 5.1001 5.70039 5.3001 5.60039C5.5001 5.50039 5.7001 5.40039 6.0001 5.40039C6.2001 5.40039 6.5001 5.50039 6.7001 5.60039C6.9001 5.70039 7.0001 6.00039 7.1001 6.20039L6.7001 6.30039C6.7001 6.10039 6.6001 6.00039 6.4001 5.90039C6.3001 5.80039 6.1001 5.80039 5.9001 5.80039C5.7001 5.80039 5.5001 5.80039 5.4001 6.00039C5.3001 6.10039 5.2001 6.20039 5.1001 6.40039C5.0001 6.60039 5.0001 6.80039 5.0001 6.90039C5.0001 7.10039 5.0001 7.30039 5.1001 7.50039C5.2001 7.70039 5.3001 7.80039 5.4001 7.90039C5.5001 8.00039 5.7001 8.00039 5.9001 8.00039C6.1001 8.00039 6.3001 7.90039 6.4001 7.80039C6.3001 7.70039 6.4001 7.50039 6.5001 7.30039Z" fill="black"/>
<path d="M7.50019 6.90039C7.50019 7.20039 7.6002 7.50039 7.8002 7.70039C8.2002 8.10039 8.8002 8.10039 9.1002 7.70039C9.3002 7.50039 9.4002 7.20039 9.4002 6.90039C9.4002 6.70039 9.4002 6.50039 9.3002 6.30039C9.2002 6.10039 9.10019 6.00039 9.00019 5.90039C8.90019 5.80039 8.70019 5.80039 8.50019 5.80039C8.20019 5.80039 8.0002 5.90039 7.8002 6.10039C7.6002 6.20039 7.50019 6.50039 7.50019 6.90039ZM7.2002 6.90039C7.2002 6.50039 7.3002 6.10039 7.6002 5.80039C7.8002 5.50039 8.2002 5.40039 8.6002 5.40039C8.8002 5.40039 9.1002 5.50039 9.3002 5.60039C9.5002 5.70039 9.7002 5.90039 9.8002 6.10039C9.9002 6.30039 10.0002 6.60039 10.0002 6.80039C10.0002 7.10039 9.9002 7.30039 9.8002 7.60039C9.7002 7.80039 9.5002 8.00039 9.3002 8.10039C9.1002 8.20039 8.9002 8.30039 8.6002 8.30039C8.4002 8.30039 8.1002 8.20039 7.9002 8.10039C7.7002 8.00039 7.5002 7.80039 7.4002 7.60039C7.2002 7.40039 7.2002 7.10039 7.2002 6.90039Z" fill="black"/>
<path d="M11.5 8.2V8.4H10.5V8.3C10.5 8.2 10.6 8.2 10.6 8.1C10.7 8 10.8 7.9 10.9 7.9C11 7.8 11.1 7.7 11.2 7.6C11.3 7.5 11.3 7.5 11.3 7.4C11.3 7.3 11.3 7.3 11.2 7.2C11.1 7.1 11.1 7.1 11 7.1C10.9 7.1 10.8 7.1 10.8 7.2C10.7 7.3 10.7 7.3 10.7 7.4H10.5C10.5 7.3 10.6 7.2 10.7 7.1C10.8 7 10.9 7 11.1 7C11.2 7 11.4 7 11.5 7.1C11.6 7.2 11.6 7.3 11.6 7.4C11.6 7.5 11.6 7.5 11.6 7.6C11.6 7.7 11.5 7.7 11.5 7.8C11.4 7.9 11.3 8 11.2 8.1C11.1 8.2 11 8.3 11 8.3L10.9 8.4L11.5 8.2Z" fill="black"/>
<path d="M6.4002 7.30039C6.4002 7.50039 6.3002 7.70039 6.1002 7.80039C6.0002 7.90039 5.8002 8.00039 5.6002 8.00039C5.4002 8.00039 5.3002 8.00039 5.1002 7.90039C5.0002 7.80039 4.8002 7.70039 4.8002 7.50039C4.7002 7.30039 4.7002 7.10039 4.7002 6.90039C4.7002 6.70039 4.7002 6.50039 4.8002 6.40039C4.9002 6.20039 5.0002 6.10039 5.1002 6.00039C5.3002 5.90039 5.4002 5.80039 5.6002 5.90039C5.8002 5.90039 5.90019 5.90039 6.00019 6.00039C6.10019 6.10039 6.2002 6.30039 6.3002 6.40039L6.7002 6.30039C6.6002 6.10039 6.5002 5.80039 6.3002 5.70039C6.1002 5.60039 5.8002 5.50039 5.6002 5.50039C5.4002 5.50039 5.1002 5.60039 4.9002 5.70039C4.7002 5.80039 4.5002 6.00039 4.4002 6.20039C4.3002 6.40039 4.2002 6.70039 4.2002 7.00039C4.2002 7.30039 4.2002 7.50039 4.3002 7.80039C4.4002 8.00039 4.5002 8.20039 4.7002 8.30039C4.9002 8.40039 5.2002 8.50039 5.4002 8.50039C5.7002 8.50039 5.9002 8.40039 6.1002 8.30039C6.3002 8.10039 6.50019 7.90039 6.50019 7.60039L6.4002 7.30039ZM6.8002 7.40039C6.7002 7.70039 6.6002 7.90039 6.4002 8.00039C6.2002 8.20039 5.9002 8.20039 5.7002 8.20039C5.4002 8.20039 5.20019 8.10039 5.00019 8.00039C4.80019 7.90039 4.7002 7.70039 4.6002 7.50039C4.5002 7.30039 4.50019 7.00039 4.50019 6.80039C4.50019 6.50039 4.5002 6.30039 4.7002 6.10039C4.8002 5.90039 5.0002 5.70039 5.2002 5.60039C5.4002 5.50039 5.6002 5.40039 5.9002 5.40039C6.1002 5.40039 6.4002 5.50039 6.6002 5.60039C6.8002 5.70039 6.90019 5.90039 7.00019 6.20039L6.7002 6.30039C6.7002 6.10039 6.6002 6.00039 6.4002 5.90039C6.3002 5.80039 6.1002 5.80039 5.9002 5.80039C5.7002 5.80039 5.5002 5.80039 5.4002 6.00039C5.3002 6.10039 5.1002 6.30039 5.1002 6.40039C5.0002 6.60039 5.00019 6.80039 5.00019 6.90039C5.00019 7.10039 5.0002 7.30039 5.1002 7.50039C5.2002 7.70039 5.3002 7.80039 5.4002 7.90039C5.5002 8.00039 5.7002 8.00039 5.9002 8.00039C6.1002 8.00039 6.3002 7.90039 6.4002 7.80039C6.6002 7.70039 6.7002 7.50039 6.7002 7.30039L6.8002 7.40039Z" fill="black"/>
<path d="M9.20024 5.60039C9.00024 5.50039 8.70024 5.40039 8.50024 5.40039C8.10024 5.40039 7.80024 5.50039 7.50024 5.80039C7.20024 6.10039 7.10025 6.50039 7.10025 6.90039C7.10025 7.10039 7.20025 7.40039 7.30025 7.60039C7.40025 7.80039 7.60025 8.00039 7.80025 8.10039C8.00025 8.20039 8.30024 8.30039 8.50024 8.30039C8.70024 8.30039 9.00024 8.20039 9.20024 8.10039C9.40024 8.00039 9.60024 7.80039 9.70024 7.60039C9.80024 7.40039 9.90025 7.10039 9.90025 6.80039C9.90025 6.50039 9.80024 6.30039 9.70024 6.00039C9.60024 5.90039 9.40024 5.70039 9.20024 5.60039ZM9.60025 7.60039C9.50025 7.80039 9.30025 8.00039 9.10025 8.10039C8.90025 8.20039 8.70025 8.30039 8.40025 8.30039C8.20025 8.30039 7.90024 8.20039 7.70024 8.10039C7.50024 8.00039 7.30024 7.80039 7.20024 7.60039C7.10024 7.40039 7.00024 7.20039 7.00024 6.90039C7.00024 6.50039 7.10025 6.10039 7.40025 5.80039C7.60025 5.50039 8.00025 5.40039 8.30025 5.40039C8.50025 5.40039 8.80024 5.50039 9.00024 5.60039C9.20024 5.70039 9.40024 5.90039 9.50024 6.10039C9.60024 6.30039 9.70024 6.60039 9.70024 6.80039C9.80024 7.10039 9.70025 7.40039 9.60025 7.60039Z" fill="black"/>
<path d="M9.00024 5.9002C8.80024 5.8002 8.70024 5.8002 8.50024 5.8002C8.20024 5.8002 8.00025 5.9002 7.80025 6.1002C7.60025 6.3002 7.50024 6.60019 7.50024 7.00019C7.50024 7.30019 7.60025 7.6002 7.80025 7.8002C8.00025 8.0002 8.20024 8.1002 8.50024 8.1002C8.80024 8.1002 9.00024 8.0002 9.20024 7.8002C9.40024 7.6002 9.50024 7.30019 9.50024 7.00019C9.50024 6.80019 9.50025 6.6002 9.40025 6.4002C9.30025 6.1002 9.20024 6.0002 9.00024 5.9002ZM9.10025 7.7002C8.70025 8.1002 8.10025 8.1002 7.80025 7.7002C7.60025 7.5002 7.50024 7.2002 7.50024 6.9002C7.50024 6.5002 7.60025 6.20019 7.80025 6.00019C8.00025 5.80019 8.20024 5.7002 8.50024 5.7002C8.70024 5.7002 8.80024 5.7002 9.00024 5.8002C9.10024 5.9002 9.30025 6.0002 9.30025 6.2002C9.40025 6.4002 9.40025 6.6002 9.40025 6.8002C9.40025 7.2002 9.30025 7.4002 9.10025 7.7002Z" fill="black"/>
<path d="M11.6001 8.20039H10.9001C10.9001 8.20039 11.0001 8.10039 11.1001 8.00039C11.2001 7.90039 11.3001 7.80039 11.4001 7.70039C11.5001 7.60039 11.5001 7.60039 11.5001 7.50039C11.5001 7.40039 11.5001 7.40039 11.5001 7.30039C11.5001 7.20039 11.4001 7.00039 11.4001 7.00039C11.3001 6.90039 11.2001 6.90039 11.0001 6.90039C10.9001 6.90039 10.7001 6.90039 10.6001 7.00039C10.5001 7.10039 10.4001 7.20039 10.4001 7.40039V7.50039H10.7001V7.40039C10.7001 7.30039 10.7001 7.30039 10.8001 7.20039C10.8001 7.20039 10.9001 7.10039 11.0001 7.10039C11.1001 7.10039 11.1001 7.10039 11.2001 7.20039C11.2001 7.20039 11.3001 7.30039 11.3001 7.40039C11.3001 7.50039 11.3001 7.50039 11.2001 7.60039C11.1001 7.70039 11.0001 7.80039 10.9001 7.90039C10.8001 8.00039 10.7001 8.10039 10.6001 8.10039C10.5001 8.20039 10.5001 8.20039 10.5001 8.30039C10.5001 8.30039 10.5001 8.40039 10.5001 8.50039V8.60039H11.6001V8.20039ZM11.5001 8.30039H10.6001C10.6001 8.30039 10.6001 8.30039 10.6001 8.20039C10.6001 8.10039 10.7001 8.10039 10.7001 8.00039C10.8001 8.00039 10.9001 7.90039 10.9001 7.90039C11.0001 7.80039 11.1001 7.70039 11.3001 7.60039C11.4001 7.50039 11.4001 7.40039 11.4001 7.30039C11.4001 7.20039 11.4001 7.10039 11.3001 7.10039C11.2001 7.00039 11.1001 7.00039 11.1001 7.00039C11.0001 7.00039 10.9001 7.00039 10.8001 7.10039C10.7001 7.20039 10.7001 7.20039 10.7001 7.30039H10.6001C10.6001 7.20039 10.7001 7.10039 10.7001 7.10039C10.8001 6.90039 10.9001 6.90039 11.0001 6.90039C11.1001 6.90039 11.2001 6.90039 11.3001 7.00039C11.4001 7.10039 11.4001 7.20039 11.4001 7.30039C11.4001 7.40039 11.4001 7.40039 11.4001 7.50039C11.4001 7.60039 11.3001 7.60039 11.3001 7.70039C11.2001 7.80039 11.1001 7.90039 11.0001 8.00039C10.9001 8.10039 10.8001 8.20039 10.8001 8.20039L10.7001 8.30039V8.40039L11.5001 8.30039Z" fill="black"/>
</svg>
