<svg width="36" height="46" viewBox="0 0 36 46" fill="none" xmlns="http://www.w3.org/2000/svg">
<path d="M5.38479 5.88413C5.38479 5.50164 5.67901 5.20741 6.0615 5.20741H19.2722C19.6547 5.20741 19.949 5.50164 19.949 5.88413V9.79733H5.38479V5.88413ZM4.82576 10.9154H20.5374C20.8611 10.9154 21.0964 10.6506 21.0964 10.3564V5.88413C21.0964 4.88376 20.2726 4.08936 19.2722 4.08936H6.0615C5.06114 4.08936 4.2373 4.88376 4.2373 5.88413V10.3564C4.2373 10.68 4.50211 10.9154 4.79633 10.9154H4.82576Z" fill="#7BC2B0"/>
<path d="M4.56001 16.5354C4.23636 16.5354 4.00098 16.8002 4.00098 17.0944V17.83C4.00098 18.1536 4.26578 18.389 4.56001 18.389C4.85423 18.389 5.11903 18.1242 5.11903 17.83V17.0944C5.11903 16.7708 4.85423 16.5354 4.56001 16.5354Z" fill="#7BC2B0"/>
<path d="M4.56001 18.9478C4.23636 18.9478 4.00098 19.2126 4.00098 19.5068V30.5402C4.00098 30.8639 4.26578 31.0993 4.56001 31.0993C4.85423 31.0993 5.11903 30.8345 5.11903 30.5402V19.5068C5.11903 19.1831 4.85423 18.9478 4.56001 18.9478Z" fill="#7BC2B0"/>
<path d="M13.5042 16.4469C13.5042 16.7705 13.769 17.0059 14.0632 17.0059H26.8032C27.2446 17.0059 27.5976 17.3589 27.5976 17.7709V36.7484C27.5976 37.1898 27.2446 37.5134 26.8032 37.5134H8.94372C8.50238 37.5134 8.14931 37.1603 8.14931 36.7484V17.7709C8.14931 17.3295 8.50238 17.0059 8.94372 17.0059H11.2387C11.5623 17.0059 11.7977 16.7411 11.7977 16.4469C11.7977 16.1526 11.5329 15.8878 11.2387 15.8878H8.94372C7.8845 15.8878 7.03125 16.7411 7.03125 17.8003V36.7778C7.03125 37.8371 7.8845 38.6903 8.94372 38.6903H26.8032C27.8624 38.6903 28.7157 37.8371 28.7157 36.7778V17.7709C28.7157 16.7117 27.8624 15.8584 26.8032 15.8584H14.0632C13.7396 15.8584 13.5042 16.1232 13.5042 16.4174V16.4469Z" fill="#7BC2B0"/>
<path d="M13.6525 27.4512L17.3598 21.1254L21.067 27.4512C22.0674 29.1283 21.7732 31.2762 20.3903 32.659C18.7132 34.3361 15.9769 34.3361 14.2998 32.659C12.917 31.2762 12.6522 29.1578 13.6231 27.4512H13.6525ZM17.3598 35.0128C20.3609 35.0128 22.803 32.6002 22.803 29.5991C22.803 28.6281 22.5382 27.6866 22.0674 26.8628L17.86 19.7131C17.7129 19.4483 17.3598 19.36 17.095 19.5071C17.0067 19.566 16.9479 19.6248 16.889 19.7131L12.6816 26.8628C11.1516 29.452 12.0343 32.7473 14.6235 34.2773C15.4473 34.7775 16.4183 35.0128 17.3892 35.0128H17.3598Z" fill="#7BC2B0"/>
<path d="M18.2418 32.1291C18.2418 32.1291 18.3595 32.1291 18.4184 32.0997C18.6537 32.0115 18.8597 31.9232 19.0657 31.7761C19.2716 31.6584 19.4776 31.4818 19.6541 31.3053C20.1249 30.864 20.4191 30.2755 20.5368 29.6577C20.5956 29.3634 20.3897 29.0692 20.066 29.0104C19.7718 28.9515 19.507 29.1575 19.4187 29.4223C19.3305 29.8342 19.1245 30.2167 18.8303 30.5109C18.7126 30.6286 18.5949 30.7169 18.4478 30.8051C18.3007 30.8934 18.1536 30.9522 18.0064 31.0111C17.7122 31.0994 17.5651 31.423 17.6534 31.7172C17.7416 31.9526 17.9476 32.0997 18.183 32.0997L18.2418 32.1291Z" fill="#7BC2B0"/>
<path d="M33.7477 11.2688L26.7157 7.64987L27.6278 5.67856L34.7186 9.09157L33.7771 11.2394L33.7477 11.2688ZM34.6598 40.3089C34.6598 42.2802 33.0415 43.8691 31.0702 43.8691H4.70761C2.7363 43.8691 1.11806 42.2802 1.11806 40.3089V4.73703C1.11806 2.76572 2.7363 1.1769 4.70761 1.1769H20.537C22.5083 1.1769 24.1265 2.76572 24.1265 4.73703V7.23795C24.1265 7.44391 24.2442 7.64987 24.4207 7.73814L34.6598 13.0048V40.3383V40.3089ZM35.6896 8.32659L27.5984 4.41339C27.3041 4.26627 26.9805 4.41339 26.8334 4.67819L25.7153 7.12026L25.2446 6.88488V4.70761C25.2446 2.11842 23.1261 0.0294226 20.537 0H4.70761C2.089 0 0 2.089 0 4.70761V40.3383C0 42.9275 2.11843 45.0165 4.70761 45.046H31.0702C33.6888 45.046 35.7778 42.9569 35.7778 40.3383V12.6811C35.7778 12.4752 35.6602 12.2692 35.4836 12.1809L34.7481 11.7985L35.9544 9.09157C36.0721 8.82677 35.9544 8.50312 35.6896 8.35601V8.32659Z" fill="#7BC2B0"/>
</svg>
