<svg width="23" height="31" viewBox="0 0 23 31" fill="none" xmlns="http://www.w3.org/2000/svg">
<path fill-rule="evenodd" clip-rule="evenodd" d="M3.83333 2.58333C3.12764 2.58333 2.55556 3.16164 2.55556 3.875V27.125C2.55556 27.8384 3.12764 28.4167 3.83333 28.4167H19.1667C19.8724 28.4167 20.4444 27.8384 20.4444 27.125V11.625H15.3333C13.2162 11.625 11.5 9.8901 11.5 7.75V2.58333H3.83333ZM14.0556 4.41002L18.6374 9.04167H15.3333C14.6276 9.04167 14.0556 8.46336 14.0556 7.75V4.41002ZM0 3.875C0 1.7349 1.71625 0 3.83333 0H12.7778C13.1166 0 13.4417 0.136086 13.6813 0.37832L22.6257 9.41998C22.8653 9.66222 23 9.99076 23 10.3333V27.125C23 29.2652 21.2838 31 19.1667 31H3.83333C1.71625 31 0 29.2652 0 27.125V3.875Z" fill="#458985"/>
</svg>
