<svg width="23" height="33" viewBox="0 0 23 33" fill="none" xmlns="http://www.w3.org/2000/svg">
<path d="M21.4886 4.95L8.21428 3.8445L3.28571 3.432V1.65C3.28571 1.21239 3.11263 0.792709 2.80453 0.483274C2.49644 0.173839 2.07857 0 1.64286 0C1.20714 0 0.789277 0.173839 0.481182 0.483274C0.173087 0.792709 0 1.21239 0 1.65V31.35C0 31.7876 0.173087 32.2073 0.481182 32.5167C0.789277 32.8262 1.20714 33 1.64286 33C2.07857 33 2.49644 32.8262 2.80453 32.5167C3.11263 32.2073 3.28571 31.7876 3.28571 31.35V19.668L8.21428 19.2555L21.4886 18.15C21.9011 18.1167 22.286 17.9283 22.5662 17.6224C22.8464 17.3165 23.0013 16.9157 23 16.5V6.6C23.0013 6.18433 22.8464 5.78347 22.5662 5.47757C22.286 5.17166 21.9011 4.98325 21.4886 4.95ZM6.57143 16.0875L3.28571 16.3515V6.7485L6.57143 7.0125V16.0875ZM13.1429 15.5265L9.85714 15.807V7.293L13.1429 7.5735V15.5265ZM19.7143 14.982L16.4286 15.2625V7.8375L19.7143 8.118V14.982Z" fill="#458985"/>
</svg>
