<svg width="29" height="19" viewBox="0 0 29 19" fill="none" xmlns="http://www.w3.org/2000/svg">
<path d="M28.1105 9.08884C25.1934 3.69613 20.0777 0.432802 14.4166 0.432802C8.75559 0.432802 3.63121 3.69613 0.740095 9.08884L0.497726 9.49567L0.722783 9.91116C3.63987 15.3039 8.75559 18.5672 14.4166 18.5672C20.0777 18.5672 25.2021 15.3472 28.1105 9.91116L28.3355 9.49567L28.1105 9.08884ZM14.4166 16.7927C9.54328 16.7927 5.06811 14.0747 2.4713 9.49567C5.06811 4.91663 9.54328 2.19863 14.4166 2.19863C19.29 2.19863 23.7132 4.92528 26.3533 9.49567C23.7132 14.0747 19.2813 16.7927 14.4166 16.7927Z" fill="#458985"/>
<path fill-rule="evenodd" clip-rule="evenodd" d="M0.497726 9.49567L0.740095 9.08884C3.63121 3.69613 8.75559 0.432802 14.4166 0.432802C20.0777 0.432802 25.1934 3.69613 28.1105 9.08884L28.3355 9.49567L28.1105 9.91116C25.2021 15.3472 20.0777 18.5672 14.4166 18.5672C8.75559 18.5672 3.63987 15.3039 0.722783 9.91116L0.497726 9.49567ZM0.342106 10.1171L0 9.4855L0.363301 8.87567C3.32231 3.36308 8.58223 0 14.4166 0C20.2539 0 25.5063 3.36625 28.4902 8.8812L28.4912 8.88292L28.8289 9.49348L28.4921 10.1153L28.4917 10.1161C25.5154 15.6784 20.2523 19 14.4166 19C8.57879 19 3.32588 15.6329 0.342106 10.1171ZM2.97107 9.49567C5.5141 13.8213 9.78802 16.3599 14.4166 16.3599C19.0338 16.3599 23.267 13.824 25.8514 9.49587C23.2669 5.17515 19.0417 2.63143 14.4166 2.63143C9.78801 2.63143 5.5141 5.17007 2.97107 9.49567ZM2.4713 9.49567C5.06811 4.91663 9.54328 2.19863 14.4166 2.19863C19.29 2.19863 23.7132 4.92528 26.3533 9.49567C23.7132 14.0747 19.2813 16.7927 14.4166 16.7927C9.54328 16.7927 5.06811 14.0747 2.4713 9.49567Z" fill="#458985"/>
<path d="M14.6677 3.58345C13.494 3.59202 12.3492 3.9482 11.3779 4.60701C10.4065 5.26582 9.65219 6.19771 9.21017 7.28498C8.76814 8.37225 8.65823 9.56613 8.89433 10.7158C9.13043 11.8655 9.70194 12.9195 10.5367 13.7445C11.3714 14.5696 12.4319 15.1288 13.5843 15.3515C14.7367 15.5742 15.9292 15.4504 17.0112 14.9957C18.0933 14.5411 19.0163 13.776 19.6638 12.797C20.3112 11.8181 20.6541 10.6692 20.649 9.49553C20.6456 8.71426 20.488 7.94135 20.1854 7.22108C19.8828 6.50081 19.441 5.84735 18.8853 5.29813C18.3297 4.74892 17.6711 4.31475 16.9473 4.02051C16.2236 3.72627 15.4489 3.57775 14.6677 3.58345ZM14.6677 13.7283C13.8386 13.7198 13.0306 13.4665 12.3451 13.0002C11.6596 12.5339 11.1271 11.8755 10.8145 11.1076C10.502 10.3397 10.4233 9.49653 10.5884 8.68406C10.7535 7.87159 11.155 7.12602 11.7424 6.54097C12.3299 5.95593 13.0771 5.5575 13.8902 5.39574C14.7033 5.23397 15.5461 5.31608 16.3128 5.63175C17.0794 5.94742 17.7356 6.48257 18.1991 7.17C18.6626 7.85742 18.9126 8.66647 18.9178 9.49553C18.9201 10.0535 18.8116 10.6064 18.5986 11.1221C18.3856 11.6378 18.0724 12.1061 17.677 12.4999C17.2817 12.8936 16.8121 13.2049 16.2955 13.4158C15.7789 13.6267 15.2256 13.7329 14.6677 13.7283Z" fill="#458985"/>
<path fill-rule="evenodd" clip-rule="evenodd" d="M14.6677 13.7283C13.8386 13.7198 13.0306 13.4665 12.3451 13.0002C11.6596 12.5339 11.1271 11.8755 10.8145 11.1076C10.502 10.3397 10.4233 9.49653 10.5884 8.68406C10.7535 7.87159 11.155 7.12602 11.7424 6.54097C12.3299 5.95593 13.0771 5.5575 13.8902 5.39574C14.7033 5.23397 15.5461 5.31608 16.3128 5.63175C17.0794 5.94742 17.7356 6.48257 18.1991 7.17C18.6626 7.85742 18.9126 8.66647 18.9178 9.49553C18.9201 10.0535 18.8116 10.6064 18.5986 11.1221C18.3856 11.6378 18.0724 12.1061 17.677 12.4999C17.2817 12.8936 16.8121 13.2049 16.2955 13.4158C15.7789 13.6267 15.2256 13.7329 14.6677 13.7283ZM14.6717 13.2955C13.9281 13.2878 13.2034 13.0606 12.5885 12.6423C11.9735 12.224 11.4958 11.6333 11.2154 10.9444C10.935 10.2555 10.8645 9.49912 11.0126 8.77024C11.1607 8.04136 11.5208 7.37249 12.0478 6.84763C12.5748 6.32278 13.2452 5.96534 13.9746 5.82022C14.7041 5.6751 15.4602 5.74876 16.148 6.03195C16.8357 6.31514 17.4245 6.79524 17.8403 7.41194C18.2559 8.02849 18.4802 8.75409 18.485 9.49765C18.487 9.99822 18.3897 10.4942 18.1986 10.9569C18.0075 11.4197 17.7264 11.8399 17.3716 12.1932C17.0169 12.5465 16.5955 12.8259 16.1319 13.0151C15.6685 13.2043 15.1722 13.2996 14.6717 13.2955ZM11.1349 4.24883C12.1771 3.542 13.4053 3.15985 14.6645 3.15066C15.5027 3.14455 16.3338 3.30389 17.1103 3.61958C17.8868 3.93526 18.5934 4.40107 19.1896 4.99032C19.7857 5.57956 20.2597 6.28066 20.5844 7.05342C20.9091 7.82619 21.0781 8.65544 21.0818 9.49364C21.0872 10.7529 20.7194 11.9855 20.0248 13.0358C19.3301 14.0861 18.3398 14.907 17.1789 15.3948C16.018 15.8826 14.7386 16.0154 13.5022 15.7765C12.2658 15.5375 11.128 14.9376 10.2324 14.0524C9.33685 13.1671 8.72368 12.0364 8.47038 10.8029C8.21707 9.5694 8.33499 8.2885 8.80923 7.12198C9.28348 5.95547 10.0928 4.95566 11.1349 4.24883ZM11.3779 4.60701C12.3492 3.9482 13.494 3.59202 14.6677 3.58345C15.4489 3.57775 16.2236 3.72627 16.9473 4.02051C17.6711 4.31475 18.3297 4.74892 18.8853 5.29813C19.441 5.84735 19.8828 6.50081 20.1854 7.22108C20.488 7.94135 20.6456 8.71426 20.649 9.49553C20.6541 10.6692 20.3112 11.8181 19.6638 12.797C19.0163 13.776 18.0933 14.5411 17.0112 14.9957C15.9292 15.4504 14.7367 15.5742 13.5843 15.3515C12.4319 15.1288 11.3714 14.5696 10.5367 13.7445C9.70194 12.9195 9.13043 11.8655 8.89433 10.7158C8.65823 9.56613 8.76814 8.37225 9.21017 7.28498C9.65219 6.19771 10.4065 5.26582 11.3779 4.60701Z" fill="#458985"/>
</svg>
