<?xml version="1.0" standalone="no"?>
<!DOCTYPE svg PUBLIC "-//W3C//DTD SVG 20010904//EN"
 "http://www.w3.org/TR/2001/REC-SVG-20010904/DTD/svg10.dtd">
<svg version="1.0" xmlns="http://www.w3.org/2000/svg"
 width="225.000000pt" height="225.000000pt" viewBox="0 0 225.000000 225.000000"
 preserveAspectRatio="xMidYMid meet">

<g transform="translate(0.000000,225.000000) scale(0.100000,-0.100000)"
fill="#000000" stroke="none">
<path d="M1631 2070 c-120 -47 -128 -52 -203 -127 l-78 -78 0 -104 0 -103 -31
6 c-17 3 -38 6 -45 6 -9 0 -14 11 -14 28 0 33 -16 52 -45 52 -29 0 -45 -19
-45 -52 0 -28 -1 -28 -60 -28 -33 0 -63 0 -67 0 -5 -1 -10 16 -13 37 -5 36 -7
38 -40 38 -34 0 -35 -1 -38 -41 l-3 -41 -67 -7 c-124 -11 -120 -13 -124 42 -3
47 -3 47 -38 47 l-35 0 -3 -52 c-3 -58 0 -56 -97 -68 -27 -4 -60 -9 -72 -12
-22 -5 -23 -2 -23 51 0 45 -4 57 -20 66 -14 7 -26 8 -40 0 -15 -8 -20 -23 -22
-72 l-3 -62 -112 -26 -113 -27 0 57 c0 60 -11 80 -45 80 -43 0 -45 -10 -45
-298 0 -150 3 -272 8 -270 4 2 24 14 44 28 l37 25 3 145 3 145 90 22 c145 35
135 41 135 -81 l0 -105 40 17 40 17 0 97 c0 93 1 98 23 103 25 5 148 25 160
25 4 0 7 -39 7 -86 0 -75 2 -85 16 -80 9 3 27 9 40 12 23 6 24 10 24 84 l0 77
53 7 c28 3 71 6 95 6 l42 0 0 -60 c0 -64 4 -68 57 -54 19 5 22 14 25 63 l3 56
68 3 67 3 0 -51 0 -50 45 0 45 0 0 50 0 50 45 0 45 0 0 -45 0 -45 44 0 c24 0
64 -3 90 -6 l46 -7 0 126 c0 101 3 129 16 141 13 13 46 16 209 16 163 0 196
-3 209 -16 13 -12 16 -41 16 -153 l0 -138 53 -7 c28 -4 69 -10 90 -13 l37 -6
0 219 0 219 -77 76 c-69 67 -89 80 -173 114 -52 21 -108 44 -125 51 -27 11
-41 8 -154 -36z m153 -146 c9 -8 16 -24 16 -34 0 -22 -25 -50 -45 -50 -20 0
-45 28 -45 50 0 22 25 50 45 50 7 0 21 -7 29 -16z" fill="#458985"/>
<path d="M1265 1359 c-449 -232 -744 -468 -1075 -860 l-100 -119 0 -145 0
-145 198 0 197 0 49 98 c99 201 257 448 395 619 147 183 378 411 544 536 l49
37 -109 0 c-89 -1 -115 -5 -148 -21z" fill="#458985"/>
<path d="M1603 1324 c-354 -241 -716 -665 -955 -1120 l-60 -114 244 0 244 0
58 153 c143 372 311 664 564 979 122 151 122 148 20 148 -39 0 -58 -7 -115
-46z" fill="#458985"/>
<path d="M995 1353 c-11 -2 -72 -16 -135 -30 -270 -59 -487 -142 -644 -247
-136 -91 -127 -66 -124 -324 l3 -222 70 82 c219 257 511 508 775 668 58 35
109 67 115 72 9 8 -25 9 -60 1z" fill="#458985"/>
<path d="M1851 1266 c-289 -338 -463 -625 -617 -1019 -30 -75 -54 -142 -54
-147 0 -6 81 -10 218 -10 l218 0 18 78 c72 310 225 762 365 1081 23 51 40 95
39 96 -2 1 -27 5 -56 7 l-53 5 -78 -91z" fill="#458985"/>
<path d="M2076 1200 c-143 -326 -311 -829 -361 -1078 l-7 -32 226 0 226 0 0
620 c0 518 -2 620 -14 620 -8 0 -37 -54 -70 -130z" fill="#458985"/>
</g>
</svg>
