<svg width="14" height="17" viewBox="0 0 14 17" fill="none" xmlns="http://www.w3.org/2000/svg">
<path d="M13.5481 8.99878C12.1741 5.61617 7.28168 5.43377 8.4632 0.517379C8.55072 0.152588 8.13938 -0.129296 7.8068 0.06139C4.62982 1.8356 2.34554 5.39232 4.26223 10.0517C4.41977 10.4331 3.94716 10.7896 3.60583 10.5408C2.02172 9.40502 1.85543 7.77175 1.99546 6.60276C2.04797 6.17164 1.45284 5.96438 1.19903 6.32088C0.603889 7.18311 0 8.57595 0 10.6735C0.332577 15.3163 4.47228 16.7423 5.96013 16.9247C8.08687 17.1817 10.3886 16.8086 12.0428 15.3743C13.8632 13.7742 14.5284 11.2207 13.5481 8.99878ZM5.42625 13.169C6.68654 12.8788 7.33419 12.0166 7.50923 11.2538C7.79805 10.0683 6.66904 8.90758 7.43046 7.03388C7.71928 8.58424 10.2924 9.55425 10.2924 11.2456C10.3624 13.3431 7.96434 15.1422 5.42625 13.169Z" fill="#FF5500"/>
</svg>
