<svg width="40" height="40" viewBox="0 0 40 40" fill="none" xmlns="http://www.w3.org/2000/svg">
<path d="M38.383 18.3455C37.902 18.3298 37.419 18.3232 36.9379 18.3461C36.6523 18.3598 36.5726 18.2644 36.5373 17.9834C36.0798 14.3723 34.6171 11.2214 32.1145 8.57764C29.3655 5.67377 25.9904 3.96792 22.0205 3.46531C21.6977 3.42414 21.646 3.30257 21.6558 3.02676C21.6722 2.55879 21.6709 2.08887 21.6545 1.6209C21.6232 0.696732 20.8983 -0.00325652 19.9938 1.13951e-05C19.0899 0.00327931 18.3729 0.707189 18.3454 1.63397C18.3311 2.11501 18.3271 2.59801 18.3461 3.07904C18.3566 3.34309 18.2722 3.42479 18.0062 3.45943C13.7364 4.01498 10.1724 5.91168 7.35543 9.16783C5.15874 11.7063 3.87444 14.6651 3.46269 17.9958C3.42609 18.2932 3.3189 18.3553 3.05028 18.3448C2.56924 18.3265 2.08624 18.3298 1.6052 18.3461C0.914363 18.3696 0.43594 18.7226 0.137906 19.3389C0.0941161 19.4297 0.101959 19.548 0 19.6088C0 19.869 0 20.1297 0 20.3899C0.243133 21.4545 0.720903 21.8291 1.83984 21.8317C2.09996 21.8323 2.36074 21.8297 2.62087 21.833C3.15158 21.8395 3.25354 21.9291 3.32478 22.4532C3.55811 24.1715 4.07379 25.8055 4.83391 27.359C5.84696 29.4309 7.22733 31.2217 8.97501 32.7341C10.6613 34.1929 12.5534 35.2811 14.6638 35.9922C15.6161 36.3131 16.5906 36.5412 17.5866 36.6798C18.0572 36.7451 18.1592 36.8621 18.167 37.3399C18.1729 37.7046 18.167 38.0693 18.1703 38.4334C18.1722 38.6294 18.1958 38.8177 18.2729 39.0046C18.5219 39.6065 18.9657 39.9353 19.6108 40C19.8709 40 20.1317 40 20.3918 40C20.418 39.9752 20.4395 39.9386 20.4702 39.9261C21.3075 39.5961 21.6526 39.1007 21.6604 38.2059C21.6643 37.7765 21.6768 37.3458 21.6558 36.917C21.6428 36.6497 21.7362 36.5732 21.9983 36.5393C26.5041 35.9484 30.1962 33.8824 33.0452 30.3459C35.0014 27.9172 36.1491 25.131 36.5334 22.0375C36.5745 21.7055 36.6961 21.6389 36.9948 21.6532C37.4621 21.6755 37.9327 21.6702 38.4007 21.6526C39.3013 21.6186 39.9954 20.897 40 20.0101C40.0046 19.1049 39.3039 18.3762 38.383 18.3455ZM33.1877 21.9395C32.423 27.5401 27.8028 32.2602 22.2277 33.1315C22.1251 33.1478 22.0219 33.1648 21.9205 33.187C21.7428 33.2256 21.6585 33.1896 21.6009 32.9818C21.3683 32.1393 20.7474 31.6505 19.9814 31.6629C19.2206 31.6753 18.6226 32.1524 18.401 32.9812C18.335 33.2276 18.2186 33.2132 18.0428 33.1811C12.7658 32.2132 9.19984 29.2119 7.35347 24.1748C7.08877 23.4532 6.94498 22.6977 6.81426 21.9402C6.77897 21.7362 6.82145 21.6552 7.03779 21.5957C7.84954 21.3742 8.33646 20.7559 8.33646 19.9984C8.33581 19.2389 7.84954 18.6232 7.03714 18.403C6.82015 18.3441 6.78485 18.2624 6.8123 18.0585C7.52928 12.6599 11.9606 7.9685 17.3121 6.95153C17.5932 6.89793 17.8755 6.84957 18.2546 6.7816C18.4258 6.73911 18.3722 6.97244 18.4095 7.09532C18.6853 7.99988 19.516 8.5051 20.4049 8.27504C21.0389 8.11099 21.4415 7.68812 21.5898 7.05349C21.6447 6.81689 21.7421 6.78225 21.9604 6.81362C27.7035 7.64237 32.3968 12.3436 33.1864 18.0592C33.2151 18.2651 33.1772 18.3435 32.9615 18.4017C32.1504 18.6219 31.6629 19.2402 31.6642 19.999C31.6648 20.7598 32.1491 21.3722 32.9641 21.5938C33.1805 21.6539 33.2158 21.7356 33.1877 21.9395Z" fill="#458985"/>
<path d="M28.3317 20.2518C28.1238 24.9007 24.2808 28.5261 19.7671 28.3327C15.0881 28.132 11.4483 24.2556 11.6692 19.708C11.8954 15.0643 15.758 11.4539 20.2717 11.6683C24.9232 11.8892 28.5343 15.7349 28.3317 20.2518Z" fill="#458985"/>
</svg>
