<svg width="40" height="40" viewBox="0 0 40 40" fill="none" xmlns="http://www.w3.org/2000/svg">
<path fill-rule="evenodd" clip-rule="evenodd" d="M20 0C25.3044 0 30.3916 2.10697 34.142 5.85802C37.893 9.60843 40 14.6956 40 20C40 25.3044 37.893 30.3916 34.142 34.142C30.3916 37.893 25.3044 40 20 40C14.6956 40 9.60843 37.893 5.85802 34.142C2.10697 30.3916 0 25.3044 0 20C0 14.6956 2.10697 9.60843 5.85802 5.85802C9.60908 2.10762 14.6956 0 20 0ZM35.0587 12.3079C33.0853 8.47131 29.7271 5.52739 25.6648 4.07391C27.0308 6.65867 28.0188 9.42755 28.5971 12.3079H35.0587ZM36.8493 21.5229C36.8985 21.0165 36.9232 20.5083 36.9232 20C36.9199 18.4389 36.6995 16.8849 36.2677 15.3848H29.0613C29.1598 16.4032 29.2305 17.4276 29.2305 18.4616C29.224 20.529 29.012 22.5906 28.5964 24.6152H36.2671C36.5595 23.6032 36.7533 22.5692 36.8519 21.5229H36.8493ZM25.9721 21.5229L25.9903 21.366C26.0953 20.4013 26.1498 19.4321 26.1536 18.4616C26.1329 17.4321 26.0551 16.4052 25.9196 15.3848H14.0797C13.9436 16.4052 13.8652 17.4327 13.8457 18.4616C13.8535 20.5335 14.094 22.5977 14.5627 24.6152H25.4366C25.6739 23.5942 25.8522 22.5634 25.9721 21.5229ZM25.3815 12.3079C24.6567 9.05348 23.3485 5.95721 21.5203 3.16953C21.0159 3.12674 20.5109 3.07747 20 3.07747C19.6797 3.07877 19.3595 3.09433 19.0399 3.1235L18.4797 3.16953L18.4616 3.2C16.6431 5.9799 15.3407 9.06515 14.6185 12.3079H25.3815ZM11.4029 12.3079C11.9929 9.43015 12.9938 6.65154 14.3754 4.059C10.2956 5.50729 6.92123 8.4577 4.94133 12.3079H11.4029ZM3.73225 15.3848C3.30113 16.8856 3.08071 18.4389 3.07682 20C3.08071 21.5611 3.30113 23.1144 3.73225 24.6152H11.4029C10.9861 22.5906 10.7734 20.529 10.7689 18.4616C10.7689 17.4276 10.8395 16.4032 10.9381 15.3848H3.73225ZM12.2062 27.6921H4.94457C6.10762 29.9643 7.76856 31.9442 9.80292 33.4853C11.8373 35.0263 14.1932 36.0888 16.6956 36.5932C14.7261 33.8898 13.2097 30.8836 12.2062 27.6921ZM20 35.8276C21.9676 33.3945 23.5053 30.6425 24.5478 27.6921H15.4522C16.4947 30.6431 18.0324 33.3938 20 35.8276ZM27.7938 27.6921C26.7903 30.883 25.2739 33.8891 23.3044 36.5938C25.8062 36.0888 28.1621 35.0263 30.1964 33.4853C32.2308 31.9442 33.8917 29.9637 35.0548 27.6921H27.7938Z" fill="#458985"/>
</svg>
