<svg width="22" height="22" viewBox="0 0 22 22" fill="none" xmlns="http://www.w3.org/2000/svg">
<path d="M18.9002 7.0999V8.2999L14.8002 4.19991L11.4002 7.5999L4.1002 0.399902L3.7002 0.899902L11.4002 8.5999L14.8002 5.19991L18.5002 8.7999H17.2002V9.4999H19.6002V7.0999H18.9002Z" fill="black"/>
<path d="M20.0001 20.3999H17.9001V16.2999H20.0001V20.3999ZM15.9001 20.3999H13.8001V10.7999H15.9001V20.3999ZM11.8001 20.3999H9.7001V12.8999H11.8001V20.3999ZM7.7001 20.3999H5.6001V8.0999H7.7001V20.3999ZM3.6001 20.3999H1.5001V5.9999H3.6001V20.3999ZM20.7001 20.3999V15.5999H17.3001V20.3999H16.6001V10.0999H13.2001V20.3999H12.5001V12.1999H9.1001V20.3999H8.4001V7.3999H4.9001V20.3999H4.2001V5.3999H0.800097V20.3999H0.100098V21.0999H21.3001V20.3999H20.7001Z" fill="black"/>
</svg>
