<svg width="40" height="27" viewBox="0 0 40 27" fill="none" xmlns="http://www.w3.org/2000/svg">
<path d="M39.5159 3.54013C39.4812 3.50931 39.4472 3.4772 39.3945 3.42584C39.252 3.28908 39.0574 3.10159 38.8025 2.93979C36.3531 1.38086 33.6936 0.42867 30.8993 0.110847C28.8608 -0.120939 26.7933 0.0113264 24.7528 0.502507C22.6777 1.00268 20.7014 1.89387 18.7123 3.2268C17.4718 4.05827 16.2705 4.67658 15.0409 5.11768C12.6447 5.97805 10.2203 6.06987 7.83438 5.39185C6.33772 4.96616 4.84877 4.25603 3.28213 3.21909C2.08339 2.4255 0.896205 2.85247 0.343386 3.68459C0.0364779 4.14559 -0.0694632 4.68493 0.0448247 5.2018C0.132788 5.59988 0.392183 6.16875 1.12992 6.61884L1.50681 6.85062C2.05963 7.19092 2.63107 7.54277 3.23461 7.86123C5.58714 9.10235 7.89473 9.76175 10.2896 9.87732C10.5336 9.88888 10.7776 9.89466 11.021 9.89466C13.6753 9.89466 16.3135 9.19416 18.8632 7.81244C19.5168 7.45802 20.1454 7.07149 20.7585 6.69524C21.4577 6.26506 22.1184 5.85927 22.8067 5.50357C25.3423 4.19375 28.1031 3.75265 31.0123 4.19054C32.995 4.48974 34.9097 5.2217 36.7023 6.36586C37.8433 7.09461 38.9136 6.90327 39.7156 5.83038L40 5.44963V3.96646L39.5159 3.54013Z" fill="#458985"/>
<path d="M39.4612 19.6588L39.4465 19.6427C39.3078 19.4989 39.1177 19.3024 38.8545 19.1316C37.4464 18.2167 35.9228 17.4982 34.326 16.9961C31.1856 16.0099 27.9837 15.8918 24.808 16.6468C22.7187 17.1438 20.7405 18.0299 18.7591 19.3551C17.4647 20.2212 16.2345 20.8543 14.9979 21.2915C12.5747 22.1481 10.2279 22.2315 7.82405 21.5452C6.34922 21.1246 4.84806 20.4068 3.23583 19.3506C2.56102 18.9082 1.95941 18.9133 1.57352 18.9955C1.06308 19.1034 0.621339 19.4122 0.327914 19.8655C-0.295533 20.8312 -0.00210784 22.0286 1.02648 22.7131C2.65605 23.7975 4.21306 24.5918 5.78548 25.1407C7.51842 25.7456 9.27961 26.0525 11.019 26.0525C11.0196 26.0525 11.0203 26.0525 11.0203 26.0525C12.4411 26.0525 13.8704 25.8477 15.2695 25.4438C17.0467 24.9308 18.7437 24.1475 20.4612 23.0463C21.5129 22.3728 22.5999 21.6755 23.7595 21.2113C26.1473 20.254 28.618 19.9695 31.1028 20.3657C33.0669 20.679 34.8987 21.3853 36.7029 22.525C37.8246 23.2332 38.8545 23.0701 39.6802 22.053L39.9999 21.6588V20.1705L39.5492 19.7455C39.5184 19.7185 39.4895 19.6883 39.4612 19.6588Z" fill="#458985"/>
<path d="M38.9759 11.1224C34.6638 8.37633 30.0447 7.48321 25.2466 8.47007C23.0083 8.92979 20.8773 9.85308 18.7322 11.2926C17.4968 12.1209 16.3071 12.7372 15.0942 13.1771C12.9915 13.9398 10.9657 14.1183 8.9002 13.7235C7.5005 13.4557 6.12005 12.9453 4.79804 12.2075C4.48535 12.0329 4.17909 11.8441 3.85548 11.6451C3.5993 11.4871 3.34247 11.3292 3.08244 11.1777C2.46348 10.8168 1.72767 10.7796 1.11386 11.0794C0.522515 11.3671 0.114803 11.9353 0.0236291 12.5992C-0.0283784 12.9799 -0.0354411 13.9418 1.0259 14.639C2.62079 15.6869 4.12644 16.4606 5.62887 17.0038C7.40098 17.6446 9.20968 17.9694 11.0049 17.9694C12.7969 17.9694 14.6063 17.6452 16.3835 17.0063C18.2628 16.3302 19.9059 15.3081 21.4982 14.318L21.633 14.2339C24.8215 12.2512 28.3131 11.6541 32.0133 12.4631C33.6166 12.813 35.1595 13.4666 36.7293 14.4612C37.8953 15.1989 39.0311 14.9511 39.7727 13.7992L39.9994 13.4461V12.047L39.4908 11.5623C39.381 11.448 39.216 11.2753 38.9759 11.1224Z" fill="#458985"/>
</svg>
