<?xml version="1.0" standalone="no"?>
<!DOCTYPE svg PUBLIC "-//W3C//DTD SVG 20010904//EN"
 "http://www.w3.org/TR/2001/REC-SVG-20010904/DTD/svg10.dtd">
<svg version="1.0" xmlns="http://www.w3.org/2000/svg"
 width="233.000000pt" height="216.000000pt" viewBox="0 0 233.000000 216.000000"
 preserveAspectRatio="xMidYMid meet">

<g transform="translate(0.000000,216.000000) scale(0.100000,-0.100000)"
fill="#458985" stroke="none">
<path d="M455 2151 c-37 -8 -44 -46 -7 -45 102 3 113 5 119 20 11 30 -37 41
-112 25z"/>
<path d="M1871 2151 c-24 -16 -5 -41 32 -41 19 0 48 -3 66 -6 23 -5 32 -2 37
10 4 10 3 21 -2 26 -14 14 -117 22 -133 11z"/>
<path d="M675 2130 c-10 -17 6 -30 51 -41 65 -15 94 -12 94 10 0 23 -15 29
-85 37 -36 5 -55 3 -60 -6z"/>
<path d="M1643 2129 c-24 -7 -33 -16 -33 -31 0 -19 4 -20 56 -14 63 7 97 22
91 39 -5 15 -72 19 -114 6z"/>
<path d="M233 2095 c-51 -23 -68 -50 -40 -61 15 -5 127 42 127 54 0 9 -21 32
-29 32 -4 0 -30 -11 -58 -25z"/>
<path d="M2122 2107 c-6 -7 -8 -18 -4 -24 11 -16 109 -56 121 -48 21 13 10 35
-26 54 -58 29 -79 33 -91 18z"/>
<path d="M922 2053 c4 -22 103 -77 123 -69 29 11 14 36 -35 61 -59 30 -93 33
-88 8z"/>
<path d="M1418 2044 c-48 -24 -61 -49 -33 -60 20 -8 119 47 123 69 5 25 -33
21 -90 -9z"/>
<path d="M1135 1920 c-8 -13 63 -120 80 -120 15 0 87 109 80 121 -12 18 -43 9
-60 -18 l-18 -27 -23 27 c-24 28 -48 35 -59 17z"/>
<path d="M557 1894 c-4 -4 -7 -15 -7 -25 0 -14 12 -19 64 -24 63 -7 86 -3 86
15 0 5 -8 13 -17 18 -25 13 -117 25 -126 16z"/>
<path d="M1932 1888 c-20 -24 3 -38 71 -45 63 -6 67 -5 67 15 0 22 -10 27 -81
37 -32 4 -49 2 -57 -7z"/>
<path d="M337 1878 c-39 -11 -57 -32 -41 -48 6 -6 35 -4 74 4 53 10 65 16 65
32 0 23 -40 28 -98 12z"/>
<path d="M1735 1885 c-5 -2 -22 -6 -37 -9 -20 -5 -28 -13 -28 -27 0 -20 3 -21
68 -14 73 7 88 15 79 39 -6 15 -53 21 -82 11z"/>
<path d="M802 1828 c-7 -7 -12 -15 -12 -19 0 -13 112 -70 126 -65 28 11 13 36
-38 66 -61 34 -60 34 -76 18z"/>
<path d="M1488 1799 c-55 -28 -71 -50 -47 -65 6 -3 38 6 71 22 46 22 58 32 56
48 -4 29 -17 28 -80 -5z"/>
<path d="M1004 1675 c-8 -20 65 -115 88 -115 29 0 21 32 -18 83 -38 48 -60 58
-70 32z"/>
<path d="M1314 1676 c-29 -21 -77 -93 -69 -105 13 -21 34 -10 76 40 36 44 40
52 28 65 -13 12 -17 12 -35 0z"/>
<path d="M387 1586 c-11 -27 19 -38 80 -31 69 9 74 11 66 30 -7 21 -138 21
-146 1z"/>
<path d="M1896 1585 c-7 -18 1 -21 72 -30 57 -6 85 5 75 31 -8 21 -139 20
-147 -1z"/>
<path d="M640 1561 c0 -23 117 -65 137 -49 20 16 3 36 -45 52 -62 22 -92 21
-92 -3z"/>
<path d="M1696 1565 c-52 -18 -64 -31 -46 -49 13 -13 23 -12 78 6 46 16 62 25
62 39 0 23 -37 25 -94 4z"/>
<path d="M874 1456 c-8 -20 65 -118 85 -114 27 5 22 31 -14 81 -35 47 -61 59
-71 33z"/>
<path d="M1135 1460 c-5 -8 18 -111 30 -130 11 -18 35 -10 41 14 3 13 6 45 7
72 l2 48 -37 2 c-21 2 -40 -1 -43 -6z"/>
<path d="M1485 1423 c-36 -50 -41 -76 -14 -81 20 -4 93 94 85 114 -10 26 -36
14 -71 -33z"/>
<path d="M880 1115 l0 -135 48 0 c40 0 53 -5 74 -27 58 -63 62 -82 66 -300 l4
-203 -537 0 -537 0 7 -53 c21 -150 109 -278 239 -344 101 -51 123 -53 916 -53
425 0 760 4 794 10 131 21 263 115 320 228 28 54 56 150 56 189 l0 23 -530 0
-530 0 0 183 c0 201 9 253 55 312 24 32 30 35 81 35 l54 0 0 135 0 135 -290 0
-290 0 0 -135z"/>
</g>
</svg>
