<svg width="22" height="28" viewBox="0 0 22 28" fill="none" xmlns="http://www.w3.org/2000/svg">
<path d="M11 3.19607C11.2474 3.19607 11.4948 2.95097 11.4948 2.70587V0.867637C11.4948 0.622539 11.2474 0.377441 11 0.377441C10.7525 0.377441 10.5051 0.745088 10.5051 0.990187V2.82842C10.5051 3.07352 10.7525 3.19607 11 3.19607Z" fill="#7BC2B0"/>
<path d="M5.43283 2.58338L6.29882 4.17652C6.42253 4.42161 6.66995 4.42161 6.91737 4.29907C7.16479 4.17652 7.16479 3.93142 7.04108 3.68632L6.1751 2.09318C6.05139 1.84808 5.80397 1.84808 5.55655 1.97063C5.43284 2.09318 5.30912 2.46083 5.43283 2.58338Z" fill="#7BC2B0"/>
<path d="M1.84525 6.50481L3.4535 7.36265C3.70092 7.4852 3.94834 7.36265 4.07205 7.2401C4.19576 6.995 4.07205 6.7499 3.94834 6.62735L2.34009 5.76951C2.09267 5.64696 1.84525 5.76951 1.72154 5.89206C1.47411 6.13716 1.59783 6.38226 1.84525 6.50481Z" fill="#7BC2B0"/>
<path d="M2.83493 11.2844C2.83493 11.0393 2.58751 10.7942 2.34008 10.7942H0.608126C0.360703 10.7942 0.113281 11.0393 0.113281 11.2844C0.113281 11.5295 0.360703 11.7746 0.608126 11.7746H2.4638C2.71122 11.652 2.83493 11.5295 2.83493 11.2844Z" fill="#7BC2B0"/>
<path d="M3.32989 15.0832L1.84535 15.9411C1.59793 16.0636 1.59793 16.3087 1.72164 16.5538C1.84535 16.7989 2.09278 16.7989 2.3402 16.6764L3.94845 15.8185C4.19587 15.696 4.19587 15.4509 4.07216 15.2058C3.82473 15.0832 3.57731 14.9607 3.32989 15.0832Z" fill="#7BC2B0"/>
<path d="M20.2783 15.9411L18.67 15.0832C18.4226 14.9607 18.1752 15.0832 18.0515 15.2058C17.9278 15.4509 18.0515 15.696 18.1752 15.8185L19.7834 16.6764C20.0309 16.7989 20.2783 16.6764 20.402 16.5538C20.5257 16.4313 20.402 16.0636 20.2783 15.9411Z" fill="#7BC2B0"/>
<path d="M21.3915 10.7942H19.5359C19.2884 10.7942 19.041 11.0393 19.041 11.2844C19.041 11.5295 19.2884 11.7746 19.5359 11.7746H21.3915C21.639 11.7746 21.8864 11.5295 21.8864 11.2844C21.8864 11.0393 21.639 10.7942 21.3915 10.7942Z" fill="#7BC2B0"/>
<path d="M18.4226 7.4854C18.5463 7.4854 18.5463 7.4854 18.67 7.4854L20.2783 6.62756C20.5257 6.50501 20.5257 6.25991 20.402 6.01481C20.2783 5.76971 20.0309 5.76972 19.7834 5.89226L18.1752 6.75011C17.9278 6.87266 17.9278 7.11775 18.0515 7.36285C18.1752 7.36285 18.2989 7.4854 18.4226 7.4854Z" fill="#7BC2B0"/>
<path d="M15.0824 4.29912C15.3298 4.42166 15.5773 4.29912 15.701 4.17657L16.5669 2.58343C16.6907 2.33833 16.5669 2.09323 16.4432 1.97068C16.1958 1.84813 15.9484 1.97068 15.8247 2.09323L14.9587 3.68637C14.835 3.93147 14.835 4.17657 15.0824 4.29912Z" fill="#7BC2B0"/>
<path d="M9.63906 12.1421H8.77308C8.27824 12.1421 7.9071 11.7745 7.9071 11.2843C7.9071 10.7941 8.27824 10.4264 8.77308 10.4264C9.26793 10.4264 9.63906 10.7941 9.63906 11.2843V12.1421ZM12.3607 11.2843C12.3607 10.7941 12.7318 10.4264 13.2267 10.4264C13.7215 10.4264 14.0927 10.7941 14.0927 11.2843C14.0927 11.7745 13.7215 12.1421 13.2267 12.1421H12.3607V11.2843ZM11.8659 18.3921C12.1133 18.3921 12.3607 18.147 12.3607 17.9019V13H13.2267C14.2164 13 15.0824 12.1421 15.0824 11.1617C15.0824 10.1813 14.2164 9.32349 13.2267 9.32349C12.237 9.32349 11.371 10.1813 11.371 11.1617V12.0196H10.505V11.2843C10.505 10.3039 9.63906 9.44604 8.64937 9.44604C7.65968 9.44604 6.7937 10.3039 6.7937 11.2843C6.7937 12.2647 7.65968 13.1225 8.64937 13.1225H9.51535V18.0245C9.51535 18.2696 9.76277 18.5147 10.0102 18.5147C10.2576 18.5147 10.505 18.2696 10.505 18.0245V13.1225H11.371V18.0245C11.4947 18.147 11.6184 18.3921 11.8659 18.3921Z" fill="#7BC2B0"/>
<path d="M11.371 4.17634C7.41221 3.93124 3.94829 6.99497 3.82458 10.9165C3.70087 13.1224 4.69056 15.3283 6.42252 16.7989C6.79365 17.044 6.91737 17.4116 6.91737 17.7793V18.8822C6.91737 19.495 7.2885 19.9852 7.78334 20.1077V20.5979C7.78334 20.9656 7.90706 21.2107 8.15448 21.4558C7.65963 21.9459 7.65963 22.6812 8.15448 23.294C7.65963 23.7842 7.65963 24.642 8.27819 25.1322C8.52561 25.3773 8.89675 25.4999 9.14417 25.4999C9.39159 25.4999 9.63901 25.3773 9.63901 25.1322C9.63901 25.0097 9.63902 24.8871 9.51531 24.8871C9.51531 24.8871 9.51531 24.8871 9.51531 24.7646C9.51531 24.7646 9.39159 24.7646 9.39159 24.642H9.26788C9.02046 24.642 8.77304 24.3969 8.77304 24.1518C8.77304 23.9067 9.02046 23.6616 9.26788 23.6616H11.1236C11.371 23.6616 11.6184 23.4165 11.6184 23.1714C11.6184 22.9263 11.371 22.6812 11.1236 22.6812H9.26788C9.02046 22.6812 8.77304 22.4361 8.77304 22.191C8.77304 21.9459 9.02046 21.7009 9.26788 21.7009H11.1236C11.371 21.7009 11.6184 21.4558 11.6184 21.2107C11.6184 20.9656 11.371 20.7205 11.1236 20.7205L9.26788 21.0881C9.02046 21.0881 8.77304 20.843 8.77304 20.5979V20.1077H10.9998C11.2473 20.1077 11.4947 19.8626 11.4947 19.6175C11.4947 19.3724 11.2473 19.1273 10.9998 19.1273H8.27819C8.03077 19.1273 7.78334 18.8822 7.78334 18.6371V17.5342C7.78334 16.9214 7.41221 16.1861 6.91737 15.8185C4.19572 13.6126 3.82458 9.69105 6.05139 6.99497C7.2885 5.52438 9.26788 4.66654 11.2473 4.66654C14.5875 4.91164 17.1854 7.60771 17.3091 10.794C17.3091 12.6322 16.4431 14.4705 14.9586 15.696C14.4638 16.0636 14.0926 16.7989 14.0926 17.4116V18.392C14.0926 18.6371 13.8452 18.8822 13.5978 18.8822H12.237C11.9895 18.8822 11.7421 19.1273 11.7421 19.3724C11.7421 19.6175 11.9895 19.8626 12.237 19.8626H13.1029V20.3528C13.1029 20.5979 12.8555 20.843 12.6081 20.843H12.1132C11.8658 20.843 11.6184 21.0881 11.6184 21.3332C11.6184 21.5783 11.8658 21.8234 12.1132 21.8234H12.6081C12.8555 21.8234 13.1029 22.0685 13.1029 22.3136C13.1029 22.5587 12.8555 22.8038 12.6081 22.8038H12.1132C11.8658 22.8038 11.6184 23.0489 11.6184 23.294C11.6184 23.5391 11.8658 23.7842 12.1132 23.7842H12.6081C12.8555 23.7842 13.1029 24.0293 13.1029 24.2744C13.1029 24.5195 12.8555 24.7646 12.6081 24.7646H10.505C10.2576 24.7646 10.0102 25.0097 10.0102 25.2548C10.0102 25.4999 10.2576 25.745 10.505 25.745H12.237C11.9895 26.4803 11.2473 26.8479 10.505 26.6028C10.2576 26.4803 10.1339 26.3577 9.88644 26.2352C9.76273 26.1126 9.39159 25.9901 9.26788 26.2352C9.02046 26.3577 9.02046 26.7254 9.26788 26.8479C10.1339 27.7058 11.4947 27.8283 12.4844 27.093C12.8555 26.7254 13.1029 26.3577 13.2266 25.745C13.9689 25.4999 14.34 24.7646 14.0926 24.0293C14.0926 23.7842 13.9689 23.6616 13.8452 23.5391C14.34 23.0489 14.34 22.3136 13.8452 21.7009C14.0926 21.4558 14.2163 21.0881 14.2163 20.843V20.3528C14.7112 20.1077 15.0823 19.6175 15.0823 19.1273V18.1469C15.0823 17.7793 15.206 17.4116 15.5772 17.1665C17.3091 15.8185 18.2988 13.7352 18.2988 11.5293C18.1751 7.48517 15.206 4.42144 11.371 4.17634Z" fill="#7BC2B0"/>
</svg>
