<svg width="40" height="33" viewBox="0 0 40 33" fill="none" xmlns="http://www.w3.org/2000/svg">
<path d="M39.9993 16.299C39.9993 15.7069 39.6485 15.1702 39.1038 14.931L34.7138 13.0223L39.1044 11.0784C39.6479 10.8398 39.9993 10.2984 39.9993 9.69889C39.9993 9.10005 39.6479 8.55866 39.1058 8.32074L20.6012 0.128927C20.2187 -0.0427496 19.78 -0.0427498 19.4015 0.127575L0.894882 8.32007C0.351464 8.55866 0 9.10005 0 9.69957C0 10.2984 0.351464 10.8398 0.89353 11.0777L5.28886 13.0236L0.898937 14.9317C0.352816 15.1682 0.000676037 15.7042 0.000676037 16.299C0.000676037 16.8944 0.353492 17.4311 0.898261 17.6656L5.15909 19.5176L0.899613 21.3695C0.353492 21.6047 0.000676037 22.1414 0.000676037 22.7369C0.000676037 23.3323 0.353492 23.869 0.898261 24.1035L19.4022 32.1473C19.5914 32.2311 19.7928 32.2737 20.0003 32.2737C20.2078 32.2737 20.4093 32.2311 20.5944 32.1493L39.1011 24.1042C39.6472 23.869 40 23.3323 40 22.7369C40 22.1448 39.6492 21.6081 39.1044 21.3689L34.8443 19.5169L39.1011 17.6663C39.6465 17.4311 39.9993 16.8944 39.9993 16.299ZM19.3995 25.7088C19.5887 25.7932 19.7908 25.8365 19.9997 25.8365C20.2085 25.8365 20.4106 25.7939 20.5938 25.7115L31.1032 21.1431L34.7679 22.7375L19.9997 29.1565L5.23276 22.7369L8.89948 21.1438L19.3995 25.7088ZM19.9997 22.7193L5.23276 16.299L8.99545 14.664L19.3981 19.2695C19.5887 19.3547 19.7915 19.3986 19.9997 19.3986C20.2078 19.3986 20.4106 19.3554 20.5978 19.2709L31.0066 14.6626L34.7672 16.2983L19.9997 22.7193ZM5.20572 9.69889L19.9997 3.14949L34.7936 9.69889L19.9997 16.2483L5.20572 9.69889Z" fill="#458985"/>
</svg>
