<svg width="19" height="17" viewBox="0 0 19 17" fill="none" xmlns="http://www.w3.org/2000/svg">
<path d="M1.31479e-09 1.59993V6.06954C-1.76364e-05 6.92634 0.177421 7.77344 0.520644 8.55511C0.863866 9.33678 1.3651 10.0353 1.99136 10.6048C2.61762 11.1742 3.35473 11.6016 4.1542 11.859C4.95366 12.1163 5.79737 12.1977 6.62981 12.0978C6.85544 12.5567 7.13094 12.9864 7.44919 13.3773L4.9115 15.9714C4.80334 16.0859 4.7435 16.2392 4.74485 16.3983C4.7462 16.5575 4.80865 16.7097 4.91873 16.8222C5.02882 16.9348 5.17774 16.9986 5.33342 17C5.4891 17.0014 5.63908 16.9402 5.75106 16.8296L8.28875 14.2355C9.24256 15.0476 10.403 15.5651 11.6342 15.7272C12.8653 15.8894 14.1162 15.6895 15.2402 15.151C16.3643 14.6126 17.3149 13.7578 17.9808 12.6869C18.6467 11.616 19.0002 10.3733 19 9.10431V4.13943C19 3.19258 18.2519 2.42782 17.3256 2.42782H12.4688C11.9047 2.42782 11.3573 2.50065 10.8359 2.63782C10.2909 1.82406 9.55985 1.1585 8.70626 0.698839C7.85267 0.23918 6.90228 -0.000699446 5.9375 1.53189e-06H1.56513C0.700625 1.53189e-06 1.31479e-09 0.716207 1.31479e-09 1.59993ZM9.13306 13.3724L12.8891 9.53403C13.0006 9.42023 13.0633 9.2658 13.0634 9.10474C13.0635 8.94368 13.0011 8.78916 12.8897 8.67519C12.7784 8.56122 12.6273 8.49713 12.4698 8.49702C12.3122 8.49691 12.1611 8.56078 12.0496 8.67459L8.29231 12.5154C7.66371 11.7116 7.26998 10.7427 7.15648 9.72024C7.04297 8.69776 7.21431 7.66329 7.65075 6.73599C8.08719 5.80869 8.77098 5.02627 9.62337 4.47883C10.4758 3.9314 11.4621 3.64122 12.4688 3.64173H17.3256C17.3896 3.64173 17.4529 3.6546 17.5119 3.67961C17.571 3.70462 17.6247 3.74128 17.6699 3.7875C17.7151 3.83371 17.751 3.88858 17.7754 3.94897C17.7999 4.00935 17.8125 4.07407 17.8125 4.13943V9.10431C17.8126 10.133 17.5285 11.1409 16.993 12.0118C16.4574 12.8828 15.6921 13.5815 14.7853 14.0274C13.8784 14.4734 12.8668 14.6485 11.8668 14.5326C10.8669 14.4167 9.91927 14.0146 9.13306 13.3724ZM5.9375 1.21391C7.45275 1.21391 8.80294 1.93983 9.67219 3.06876C8.39813 3.68786 7.35329 4.71038 6.69275 5.98457L4.57662 3.81896C4.52142 3.76252 4.45588 3.71776 4.38376 3.68722C4.31163 3.65668 4.23432 3.64096 4.15625 3.64096C4.07818 3.64096 4.00087 3.65668 3.92874 3.68722C3.85662 3.71776 3.79108 3.76252 3.73587 3.81896C3.68067 3.87539 3.63688 3.94238 3.607 4.01611C3.57713 4.08985 3.56175 4.16887 3.56175 4.24868C3.56175 4.32849 3.57713 4.40751 3.607 4.48124C3.63688 4.55498 3.68067 4.62197 3.73587 4.6784L6.20587 7.20333C6.02727 7.82046 5.93688 8.46074 5.9375 9.10431C5.9375 9.73312 6.023 10.3425 6.18212 10.9191C5.53857 10.953 4.89499 10.8527 4.29056 10.6243C3.68613 10.3959 3.13348 10.0442 2.66624 9.59054C2.19901 9.13687 1.82696 8.59077 1.57274 7.98546C1.31852 7.38014 1.18745 6.72828 1.1875 6.06954V1.59993C1.1875 1.38628 1.35613 1.21391 1.56513 1.21391H5.9375Z" fill="#67C973"/>
</svg>
