<svg width="37" height="37" viewBox="0 0 37 37" fill="none" xmlns="http://www.w3.org/2000/svg">
<path d="M36.9943 5.10244L36.9951 1.79183C36.9951 1.57048 36.975 1.35478 36.9354 1.1512C36.8166 0.53238 36.4442 0.163995 35.8303 0.05655C35.626 0.0201963 35.4216 0.00161483 35.2237 0.00161483C34.7318 0.00161483 34.2576 0.114716 33.8133 0.336878L31.2802 1.6036C29.2656 2.6102 27.2518 3.6176 25.2405 4.63065C25.0878 4.7074 24.9626 4.74295 24.8463 4.74295C24.7509 4.74295 24.6508 4.71871 24.5393 4.66943C23.5078 4.21057 22.4771 3.7517 21.4463 3.29203C19.2322 2.30483 16.9422 1.2845 14.6845 0.290829C14.2443 0.0977503 13.7911 0 13.3355 0C12.9139 0 12.4873 0.0840172 12.0657 0.249629C11.745 0.375655 11.4308 0.518646 11.1271 0.657598C10.9833 0.723035 10.8395 0.788472 10.6957 0.852293C9.00585 1.60199 7.3168 2.35249 5.62775 3.10299C4.18264 3.74524 2.73754 4.38749 1.29163 5.02893C0.77223 5.25917 0.157516 5.62917 0.00727088 6.454C0.00242425 6.47904 0 6.50489 0 6.53074V35.6557C0 35.6791 0.00161614 35.7026 0.005655 35.7252C0.154285 36.6252 0.6963 36.8966 1.15996 36.9564C1.21731 36.9838 1.28113 36.9992 1.34413 36.9992H1.97904C1.996 36.9992 2.01297 36.9984 2.02993 36.996C2.73431 36.9111 3.35064 36.634 3.94677 36.3658L4.18507 36.2592L5.43227 35.7058C7.91536 34.6039 10.4833 33.4648 13.0027 32.3281C13.1247 32.2732 13.2232 32.2474 13.3153 32.2474C13.3937 32.2474 13.472 32.2659 13.5609 32.3055C14.5714 32.7531 15.5811 33.2031 16.59 33.653C18.2233 34.3809 19.9124 35.1338 21.5796 35.865C21.801 35.9619 22.0191 36.0653 22.238 36.1687C22.9577 36.5088 23.7016 36.8602 24.5466 36.9943C24.5684 36.9976 24.591 37 24.6136 37H25.1774C25.2138 37 25.2493 36.9951 25.2849 36.9863C25.385 36.9604 25.4852 36.9386 25.5862 36.9168C25.8834 36.8522 26.1904 36.7843 26.4998 36.6284C29.7947 34.969 32.7689 33.4745 35.798 31.9832C36.6195 31.5793 37.0008 30.958 37 30.0274C36.9903 21.7177 36.9919 13.2707 36.9943 5.10244ZM26.6436 8.05033C26.6436 7.99943 26.6476 7.9752 26.65 7.96793C26.6532 7.96793 26.6726 7.95258 26.7211 7.92834C28.3843 7.10513 30.0443 6.27465 31.7042 5.44417L33.5185 4.53694L33.5193 10.8067C33.5201 16.8495 33.5201 22.8923 33.5282 28.9351C33.5282 29.07 33.5282 29.07 33.399 29.1339C31.6275 30.0088 29.831 30.9071 28.0943 31.7764L26.6492 32.4994V30.0564C26.6492 22.7219 26.65 15.3857 26.6436 8.05033ZM23.2049 32.6343L21.7048 31.9678C19.5069 30.9911 17.3081 30.0144 15.1061 29.0458C15.0593 29.0256 15.0383 29.0111 15.0302 29.0054C15.0318 29.0014 15.027 28.9747 15.0278 28.9198C15.0367 25.5203 15.0359 22.1224 15.0359 18.7238V16.5442V4.39799L16.7096 5.14122C18.8615 6.09773 21.0126 7.05343 23.1677 8.00266C23.1871 8.01074 23.2 8.01801 23.2089 8.02286C23.2105 8.03498 23.2113 8.05356 23.2113 8.08022C23.2057 15.4398 23.2057 22.7994 23.2057 30.159L23.2049 32.6343ZM3.43222 8.08264C3.43222 8.05437 3.43384 8.03498 3.43545 8.02286C3.44434 8.01801 3.45807 8.01074 3.47827 8.00186C6.56315 6.64142 9.1561 5.48941 11.6109 4.3883C11.6061 7.49048 11.6069 10.5919 11.6069 13.6932V16.5579V19.1511C11.6061 22.4003 11.6053 25.6488 11.6141 28.898C11.6141 28.9747 11.6053 29.003 11.6036 29.0086C11.602 29.0086 11.5802 29.0264 11.518 29.0539C9.24737 30.0532 6.98157 31.0598 4.71577 32.0672L3.43788 32.6351V30.151C3.43788 22.7946 3.43788 15.4382 3.43222 8.08264Z" fill="#458985"/>
</svg>
