<?xml version="1.0" standalone="no"?>
<!DOCTYPE svg PUBLIC "-//W3C//DTD SVG 20010904//EN"
 "http://www.w3.org/TR/2001/REC-SVG-20010904/DTD/svg10.dtd">
<svg version="1.0" xmlns="http://www.w3.org/2000/svg"
 width="280.000000pt" height="280.000000pt" viewBox="280.000000"
 preserveAspectRatio="xMidYMid meet">

<g transform="translate(0.000000,400.000000) scale(0.100000,-0.100000)"
fill="#000000" stroke="none">
<path d="M1734 2860 c-150 -16 -353 -99 -485 -199 -300 -228 -460 -610 -405
-968 37 -243 139 -439 317 -608 129 -122 278 -205 457 -252 84 -23 117 -26
247 -26 129 0 164 4 247 26 196 52 355 145 495 290 168 175 253 352 284 596
15 123 6 136 -99 147 -68 7 -141 -1 -166 -19 -11 -8 -25 -53 -40 -127 -42
-204 -79 -275 -211 -405 -150 -148 -262 -195 -476 -203 -115 -3 -149 -1 -218
16 -266 68 -455 257 -523 523 -17 69 -19 103 -16 218 8 217 56 329 208 481
153 153 264 200 486 208 158 5 252 -12 358 -64 82 -40 84 -44 38 -106 -54 -74
-58 -86 -24 -99 15 -6 132 -13 260 -16 207 -5 232 -4 232 10 0 66 -96 503
-112 513 -11 7 -85 -64 -105 -100 -10 -17 -14 -16 -81 23 -206 120 -426 166
-668 141z" fill="#458985"/>
<path d="M1853 2423 c-42 -16 20 -53 90 -53 35 0 48 27 22 46 -18 14 -87 18
-112 7z"/>
<path d="M1660 2396 c-24 -9 -36 -20 -38 -36 -4 -22 -2 -23 44 -16 53 7 97 31
91 49 -5 17 -55 18 -97 3z"/>
<path d="M2060 2366 c0 -29 37 -47 51 -25 14 23 10 36 -13 43 -35 9 -38 8 -38
-18z"/>
<path d="M1480 2282 c-44 -43 -50 -62 -20 -62 23 0 100 66 100 86 0 26 -39 14
-80 -24z"/>
<path d="M1800 2251 c-16 -16 -32 -41 -36 -57 -8 -30 11 -377 26 -467 9 -57
28 -77 75 -77 72 0 76 17 96 333 12 195 12 210 -5 241 -33 62 -108 75 -156 27z"/>
<path d="M2292 2174 c36 -37 58 -38 58 -4 0 11 -12 22 -31 29 -59 20 -66 13
-27 -25z"/>
<path d="M1345 2125 c-27 -45 -30 -85 -8 -92 13 -5 35 25 57 79 15 35 15 38
-4 48 -16 9 -23 4 -45 -35z"/>
<path d="M2370 2055 c0 -44 30 -105 52 -105 19 0 20 4 14 43 -4 23 -14 52 -22
65 -20 30 -44 29 -44 -3z"/>
<path d="M1280 1931 c-11 -22 -13 -80 -4 -105 9 -24 33 -19 38 7 9 45 13 92 9
105 -7 18 -31 14 -43 -7z"/>
<path d="M2417 1863 c-3 -5 -6 -37 -8 -73 -4 -57 -2 -65 15 -68 25 -5 36 14
36 66 0 59 -26 103 -43 75z"/>
<path d="M1290 1698 c0 -41 31 -102 55 -107 15 -3 17 2 13 37 -8 53 -29 96
-51 100 -13 3 -17 -4 -17 -30z"/>
<path d="M2372 1628 c-34 -44 -56 -128 -33 -128 23 0 87 112 75 131 -8 13 -30
11 -42 -3z"/>
<path d="M1813 1546 c-39 -33 -48 -67 -28 -106 31 -59 98 -68 147 -20 26 26
29 36 24 63 -8 40 -42 75 -82 83 -24 4 -37 0 -61 -20z"/>
<path d="M1383 1514 c-8 -21 49 -98 76 -102 28 -5 28 26 -1 64 -41 53 -64 65
-75 38z"/>
<path d="M2209 1411 c-43 -42 -49 -61 -21 -61 19 0 80 41 94 62 32 51 -23 50
-73 -1z"/>
<path d="M1544 1365 c-9 -22 14 -45 65 -68 29 -13 46 -16 53 -9 18 18 1 40
-51 67 -59 29 -60 30 -67 10z"/>
<path d="M2024 1319 c-69 -20 -69 -66 0 -55 48 8 86 30 86 51 0 17 -36 19 -86
4z"/>
<path d="M1747 1286 c-10 -25 20 -46 68 -46 52 0 75 8 75 25 0 16 -19 24 -84
31 -43 5 -54 3 -59 -10z"/>
</g>
</svg>
