<svg width="23" height="28" viewBox="0 0 23 28" fill="none" xmlns="http://www.w3.org/2000/svg">
<path d="M4.11084 4.05386C4.11084 3.80876 4.23197 3.68621 4.47424 3.68621H12.2268C12.4691 3.68621 12.5902 3.80876 12.5902 4.05386V6.38229H3.9897V4.05386H4.11084ZM3.74744 6.99504H12.9536C13.1959 6.99504 13.317 6.87249 13.317 6.62739V3.93131C13.317 3.31856 12.8325 2.82837 12.2268 2.82837H4.47424C3.86857 2.82837 3.38403 3.31856 3.38403 3.93131V6.62739C3.38403 6.87249 3.6263 6.99504 3.74744 6.99504Z" fill="black"/>
<path d="M3.62634 10.304C3.38407 10.304 3.26294 10.4265 3.26294 10.6716V11.1618C3.26294 11.4069 3.38407 11.5294 3.62634 11.5294C3.86861 11.5294 3.98974 11.4069 3.98974 11.1618V10.6716C3.98974 10.5491 3.74747 10.304 3.62634 10.304Z" fill="black"/>
<path d="M3.62634 11.7744C3.38407 11.7744 3.26294 11.897 3.26294 12.1421V18.6372C3.26294 18.8823 3.38407 19.0048 3.62634 19.0048C3.86861 19.0048 3.98974 18.8823 3.98974 18.6372V12.0195C3.98974 11.897 3.74747 11.7744 3.62634 11.7744Z" fill="black"/>
<path d="M8.83523 10.3039C8.83523 10.549 8.95637 10.6716 9.19863 10.6716H16.7089C16.9512 10.6716 17.1935 10.9167 17.1935 11.1618V22.4363C17.1935 22.6814 16.9512 22.9265 16.7089 22.9265H6.17028C5.92802 22.9265 5.68575 22.6814 5.68575 22.4363V11.1618C5.68575 10.9167 5.92802 10.6716 6.17028 10.6716H7.50276C7.74503 10.6716 7.86616 10.549 7.86616 10.3039C7.86616 10.0588 7.74503 9.93628 7.50276 9.93628H6.17028C5.56461 9.93628 5.08008 10.4265 5.08008 11.0392V22.3137C5.08008 22.9265 5.56461 23.4167 6.17028 23.4167H16.7089C17.3146 23.4167 17.7992 22.9265 17.7992 22.3137V11.0392C17.7992 10.4265 17.3146 9.93628 16.7089 9.93628H9.19863C8.95637 9.93628 8.83523 10.0588 8.83523 10.3039Z" fill="black"/>
<path d="M8.95626 16.9215L11.1367 13.1225L13.3171 16.9215C13.9228 17.9019 13.6805 19.2499 12.9537 19.9852C11.9846 20.9656 10.4099 20.9656 9.31966 19.9852C8.59286 19.1274 8.35059 17.9019 8.95626 16.9215ZM11.1367 21.3332C12.9537 21.3332 14.2862 19.8627 14.2862 18.147C14.2862 17.5342 14.165 17.044 13.8016 16.5538L11.3789 12.2646C11.2578 12.1421 11.1367 12.0195 10.8944 12.1421L10.7733 12.2646L8.35059 16.5538C7.50265 18.147 7.98719 20.1078 9.4408 20.9656C10.0465 21.2107 10.531 21.3332 11.1367 21.3332Z" fill="black"/>
<path d="M11.6212 19.6175C11.7423 19.6175 11.7423 19.6175 11.6212 19.6175C11.8635 19.495 11.9846 19.495 12.1057 19.3724C12.2269 19.2499 12.348 19.2499 12.4692 19.1273C12.7114 18.8822 12.9537 18.5146 12.9537 18.1469C12.9537 18.0244 12.8326 17.7793 12.7114 17.7793C12.5903 17.7793 12.348 17.9018 12.348 18.0244C12.348 18.2695 12.2269 18.5146 11.9846 18.6371C11.8635 18.7597 11.8635 18.7597 11.7423 18.7597C11.6212 18.7597 11.6212 18.8822 11.5001 18.8822C11.3789 18.8822 11.2578 19.1273 11.2578 19.2499C11.3789 19.6175 11.5001 19.6175 11.6212 19.6175Z" fill="black"/>
<path d="M20.8274 7.2402L16.7088 5.03431L17.1934 3.80882L21.3119 5.89216L20.8274 7.2402ZM21.3119 24.5196C21.3119 25.7451 20.3429 26.6029 19.2527 26.6029H3.74751C2.53617 26.6029 1.68823 25.6225 1.68823 24.5196V3.31863C1.68823 2.09314 2.6573 1.23529 3.74751 1.23529H13.0748C14.2862 1.23529 15.1341 2.21569 15.1341 3.31863V4.78922C15.1341 4.91176 15.2552 5.03431 15.2552 5.03431L21.3119 8.22059V24.5196ZM21.9176 5.52451L17.1934 3.19608C17.0723 3.07353 16.83 3.19608 16.7088 3.31863L16.1032 4.78922L15.8609 4.66667V3.31863C15.8609 1.72549 14.6496 0.5 13.0748 0.5H3.74751C2.17277 0.5 0.961426 1.72549 0.961426 3.31863V24.5196C0.961426 26.1127 2.17277 27.3382 3.74751 27.3382H19.2527C20.8274 27.3382 22.0387 26.1127 22.0387 24.5196V8.09804C22.0387 7.97549 21.9176 7.85294 21.9176 7.85294L21.4331 7.60784L22.1599 6.01471C22.1599 5.76961 22.1599 5.52451 21.9176 5.52451Z" fill="black"/>
</svg>
