<?xml version="1.0" standalone="no"?>
<!DOCTYPE svg PUBLIC "-//W3C//DTD SVG 20010904//EN"
 "http://www.w3.org/TR/2001/REC-SVG-20010904/DTD/svg10.dtd">
<svg version="1.0" xmlns="http://www.w3.org/2000/svg"
 width="256.000000pt" height="256.000000pt" viewBox="0 0 256.000000 256.000000"
 preserveAspectRatio="xMidYMid meet">

<g transform="translate(0.000000,256.000000) scale(0.100000,-0.100000)"
fill="#000000" stroke="none">
<path d="M1541 2494 c-92 -99 -87 -185 12 -201 30 -4 40 -1 63 22 24 24 26 32
21 83 -5 58 -33 142 -47 142 -4 0 -26 -21 -49 -46z" fill="#458985"/>
<path d="M894 2418 c-82 -86 -92 -124 -48 -177 32 -39 71 -41 113 -5 23 19 31
34 31 57 0 51 -34 167 -49 167 -4 0 -25 -19 -47 -42z" fill="#458985"/>
<path d="M2170 2194 c-14 -10 -44 -35 -67 -58 -34 -31 -43 -47 -43 -74 0 -46
37 -82 85 -82 25 0 44 8 60 25 22 21 25 33 25 92 0 113 -11 130 -60 97z" fill="#458985"/>
<path d="M1255 2161 c-30 -13 -42 -31 -50 -78 -6 -40 -9 -43 -43 -48 -379 -53
-696 -281 -847 -607 -32 -71 -85 -234 -85 -264 0 -29 29 -25 74 9 25 20 62 41
83 48 51 18 149 16 194 -4 45 -19 115 -81 135 -119 19 -37 38 -35 63 6 32 51
94 103 138 115 92 26 208 8 260 -41 l23 -21 0 -452 c0 -528 0 -526 83 -609 80
-80 183 -99 282 -52 118 54 184 204 124 280 -43 55 -139 18 -139 -54 0 -64
-76 -109 -133 -78 -47 25 -46 18 -47 510 l0 467 28 20 c66 47 201 52 281 12
21 -11 62 -46 90 -78 l52 -58 17 22 c9 11 30 37 45 57 33 43 105 81 169 91 62
9 144 -15 203 -61 46 -35 75 -39 75 -10 0 30 -52 192 -84 261 -98 212 -267
387 -476 494 -98 51 -222 94 -300 105 -99 15 -97 14 -104 55 -10 66 -61 103
-111 82z" fill="#458985"/>
<path d="M426 2075 c-72 -87 -82 -130 -41 -170 34 -34 93 -34 125 0 20 21 22
31 17 77 -6 64 -34 138 -52 138 -7 0 -29 -20 -49 -45z" fill="#458985"/>
</g>
</svg>
