<svg width="37" height="36" fill="none" xmlns="http://www.w3.org/2000/svg">
    <path d="M18.44.204c6.221 0 9.75 3.972 10.261 8.767h.157c4.002 0 7.247 3.121 7.247 6.972 0 3.85-3.245 6.972-7.247 6.972l-1.774-.002v.002h-.076l-2.415 4.394a1.262 1.262 0 0 1-2.21-1.216l1.748-3.18h-4.587v.002h-.104l-2.417 4.394a1.262 1.262 0 0 1-2.21-1.216l1.748-3.18h-4.6v.002h-.091L9.452 27.31a1.262 1.262 0 0 1-2.21-1.216l1.748-3.18-.966.002c-4.002 0-7.248-3.121-7.248-6.972 0-3.71 3.008-6.74 6.806-6.96l.598-.013C8.698 4.143 12.22.204 18.44.204zm-7.292 20.188h17.844c2.538 0 4.59-1.966 4.59-4.391 0-2.423-2.054-4.388-4.588-4.388h-1.388c-.732 0-1.375-.55-1.375-1.252 0-4.484-3.626-7.634-7.79-7.634s-7.79 3.205-7.79 7.634c0 .701-.641 1.252-1.375 1.252H7.888c-2.534 0-4.588 1.965-4.588 4.39 0 2.42 2.054 4.389 4.588 4.389h3.262-.002zM12.758 28.76a1.262 1.262 0 0 1 .47 1.72l-2.524 4.417a1.262 1.262 0 0 1-2.19-1.252l2.523-4.416a1.262 1.262 0 0 1 1.72-.47zM20.798 30.48a1.262 1.262 0 0 0-2.19-1.25l-2.524 4.415a1.262 1.262 0 0 0 2.19 1.252l2.524-4.416z" fill="#fff"/>
</svg>
