<?xml version="1.0" standalone="no"?>
<!DOCTYPE svg PUBLIC "-//W3C//DTD SVG 20010904//EN"
 "http://www.w3.org/TR/2001/REC-SVG-20010904/DTD/svg10.dtd">
<svg version="1.0" xmlns="http://www.w3.org/2000/svg"
 width="512.000000pt" height="512.000000pt" viewBox="0 0 512.000000 512.000000"
 preserveAspectRatio="xMidYMid meet">

<g transform="translate(0.000000,512.000000) scale(0.100000,-0.100000)"
fill="#000000" stroke="none">
<path d="M1450 4366 c-694 -310 -981 -443 -997 -461 l-23 -26 0 -1214 0 -1214
22 -25 c16 -17 336 -164 973 -447 523 -232 969 -429 993 -437 43 -15 43 -15
130 29 107 54 132 87 113 150 -13 44 -58 79 -100 79 -14 0 -44 -9 -67 -21
l-43 -20 -906 402 -905 402 0 1053 c0 580 3 1054 6 1054 4 0 407 -178 897
-396 718 -319 897 -395 922 -391 17 3 422 179 900 392 479 213 878 390 888
392 16 5 17 -22 17 -463 0 -429 2 -471 18 -490 44 -55 109 -59 158 -10 l34 34
0 564 c0 534 -1 565 -19 594 -17 27 -126 78 -992 464 -536 238 -990 434 -1009
436 -29 3 -204 -71 -1010 -430z m1632 -77 c-8 -8 -1610 -720 -1634 -726 -16
-5 -638 266 -638 277 0 3 370 170 822 371 l822 365 317 -140 c175 -78 314
-144 311 -147z m650 -281 c203 -90 368 -165 368 -168 0 -3 -370 -169 -823
-371 l-823 -365 -372 165 c-205 91 -372 168 -372 171 1 7 1621 728 1640 729 8
1 180 -72 382 -161z" fill="#458985"/>
<path d="M3505 2659 c-514 -61 -912 -483 -942 -1000 -21 -372 160 -737 469
-942 711 -473 1658 32 1658 883 0 543 -401 992 -945 1059 -100 12 -138 12
-240 0z m353 -238 c282 -82 502 -301 588 -586 24 -80 27 -106 27 -235 0 -129
-3 -155 -27 -235 -86 -285 -306 -504 -588 -586 -104 -30 -288 -37 -396 -15
-177 36 -299 103 -437 241 -89 88 -107 112 -153 205 -73 146 -94 234 -94 390
0 147 20 239 81 367 48 100 99 169 182 249 125 118 241 180 414 220 89 20 309
12 403 -15z" fill="#458985"/>
<path d="M4000 1904 c-14 -9 -127 -118 -252 -242 l-227 -226 -110 107 c-107
105 -111 107 -156 107 -38 0 -52 -5 -76 -29 -24 -24 -29 -38 -29 -77 l0 -48
158 -157 c171 -171 193 -184 255 -154 18 8 158 140 309 293 234 234 277 283
283 313 16 89 -83 161 -155 113z" fill="#458985"/>
</g>
</svg>
