<svg width="45" height="45" viewBox="0 0 45 45" fill="none" xmlns="http://www.w3.org/2000/svg">
<path d="M27.439 9.9064C27.439 7.70051 28.2657 5.49463 28.689 5.2941C29.1124 5.49463 29.939 7.70051 29.939 9.9064C29.939 11.8516 29.2536 11.8716 28.689 11.8716H28.6487C28.0842 11.8716 27.3987 11.8516 27.3987 9.9064H27.439ZM33.8907 9.9064C33.8907 7.70051 34.7173 5.49463 35.1407 5.2941C35.564 5.49463 36.3907 7.70051 36.3907 9.9064C36.3907 11.8516 35.7052 11.8716 35.1407 11.8716H35.1003C34.5358 11.8716 33.8503 11.8716 33.8503 9.9064H33.8907ZM42.7011 15.6818H35.7657V13.0347C37.0157 12.7941 37.6407 11.7714 37.6407 9.9064C37.6407 7.9211 36.8947 4.05078 35.1608 4.05078C33.4269 4.05078 32.681 7.9211 32.681 9.9064C32.681 11.7714 33.2858 12.7941 34.556 13.0347V15.6818H29.3342V13.0347C30.5842 12.7941 31.2092 11.7714 31.2092 9.9064C31.2092 7.9211 30.4632 4.05078 28.7294 4.05078C26.9955 4.05078 26.2495 7.9211 26.2495 9.9064C26.2495 11.7714 26.8544 12.7941 28.1245 13.0347V15.6818H2.33824C1.9955 15.6818 1.7334 15.9625 1.7334 16.3035C1.7334 16.6444 2.01566 16.9251 2.33824 16.9251H21.4713C17.2173 18.8502 13.5681 23.0214 10.7253 29.258C8.83017 33.5294 7.45921 38.0214 6.65275 42.6136C6.59227 42.9545 6.83421 43.2553 7.15679 43.3155C7.15679 43.3155 7.21727 43.3155 7.25759 43.3155C7.56001 43.3155 7.82211 43.0949 7.86243 42.7941C7.90275 42.5334 12.056 16.9251 27.1568 16.9251H42.681C43.0237 16.9251 43.2858 16.6444 43.2858 16.3035C43.2858 15.9625 43.0036 15.6818 42.681 15.6818H42.7011Z" fill="#7BC2B0"/>
<path d="M9.99962 2.94787C11.5924 2.94787 12.9028 4.25135 12.9028 5.83557C12.9028 7.4198 11.6125 8.72327 9.99962 8.72327C8.40688 8.72327 7.0964 7.4198 7.0964 5.83557C7.0964 4.23129 8.38672 2.94787 9.99962 2.94787ZM9.99962 9.96659C12.2778 9.96659 14.1125 8.12167 14.1125 5.83557C14.1125 3.54948 12.2778 1.72461 9.99962 1.72461C7.7214 1.72461 5.88672 3.56953 5.88672 5.85563C5.88672 8.12167 7.74156 9.96659 9.99962 9.98664V9.96659Z" fill="#7BC2B0"/>
<path d="M8.04357 19.833H5.1605C4.81776 19.833 4.55566 20.1138 4.55566 20.4547C4.55566 20.7956 4.83792 21.0763 5.1605 21.0763H8.04357C8.38631 21.0763 8.64841 20.7956 8.64841 20.4547C8.64841 20.1138 8.36615 19.833 8.04357 19.833Z" fill="#7BC2B0"/>
<path d="M5.90723 25.6282C5.90723 25.9692 6.18948 26.2499 6.51207 26.2499H9.09271C9.43545 26.2499 9.69755 25.9692 9.69755 25.6282C9.69755 25.2873 9.41529 25.0066 9.09271 25.0066H6.51207C6.16932 25.0066 5.90723 25.2873 5.90723 25.6282Z" fill="#7BC2B0"/>
<path d="M7.21724 33.5697C7.21724 33.2287 6.93498 32.948 6.6124 32.948H2.62046C2.27772 32.948 2.01562 33.2287 2.01562 33.5697C2.01562 33.9106 2.29788 34.1913 2.62046 34.1913H6.59224C6.93498 34.1913 7.19708 33.9106 7.19708 33.5697H7.21724Z" fill="#7BC2B0"/>
<path d="M25.6444 27.0321C25.9872 27.0321 26.2493 26.7514 26.2493 26.4105C26.2493 26.0696 25.967 25.7888 25.6444 25.7888H19.5961C19.2533 25.7888 18.9912 26.0696 18.9912 26.4105C18.9912 26.7514 19.2735 27.0321 19.5961 27.0321H25.6444Z" fill="#7BC2B0"/>
<path d="M29.1733 19.833H26.4515C26.1088 19.833 25.8467 20.1138 25.8467 20.4547C25.8467 20.7956 26.1289 21.0763 26.4515 21.0763H29.1733C29.516 21.0763 29.7781 20.7956 29.7781 20.4547C29.7781 20.1138 29.4959 19.833 29.1733 19.833Z" fill="#7BC2B0"/>
<path d="M40.8465 25.8088H37.5199C37.1771 25.8088 36.915 26.0896 36.915 26.4305C36.915 26.7714 37.1973 27.0522 37.5199 27.0522H40.8465C41.1892 27.0522 41.4513 26.7714 41.4513 26.4305C41.4513 26.0896 41.1691 25.8088 40.8465 25.8088Z" fill="#7BC2B0"/>
<path d="M20.7258 39.8865H17.1371C16.7943 39.8865 16.5322 40.1672 16.5322 40.5081C16.5322 40.849 16.8145 41.1298 17.1371 41.1298H20.7258C21.0685 41.1298 21.3306 40.849 21.3306 40.5081C21.3306 40.1672 21.0484 39.8865 20.7258 39.8865Z" fill="#7BC2B0"/>
<path d="M37.0767 38.1218H33.2259C32.8832 38.1218 32.6211 38.4026 32.6211 38.7435C32.6211 39.0844 32.9034 39.3651 33.2259 39.3651H37.0767C37.4195 39.3651 37.6816 39.0844 37.6816 38.7435C37.6816 38.4026 37.3993 38.1218 37.0767 38.1218Z" fill="#7BC2B0"/>
<path d="M32.6211 31.9854C32.6211 32.3263 32.9034 32.6071 33.2259 32.6071H37.0364C37.3792 32.6071 37.6413 32.3263 37.6413 31.9854C37.6413 31.6445 37.359 31.3638 37.0364 31.3638H33.2259C32.8832 31.3638 32.6211 31.6445 32.6211 31.9854Z" fill="#7BC2B0"/>
<path d="M26.7539 34.9734H22.641C22.2982 34.9734 22.0361 35.2541 22.0361 35.595C22.0361 35.936 22.3184 36.2167 22.641 36.2167H26.7539C27.0966 36.2167 27.3587 35.936 27.3587 35.595C27.3587 35.2541 27.0765 34.9734 26.7539 34.9734Z" fill="#7BC2B0"/>
<path d="M36.4715 23.8437C36.8143 23.8437 37.0764 23.5629 37.0764 23.222C37.0764 22.8811 36.7941 22.6003 36.4715 22.6003H32.8626C32.5199 22.6003 32.2578 22.8811 32.2578 23.222C32.2578 23.5629 32.5401 23.8437 32.8626 23.8437H36.4715Z" fill="#7BC2B0"/>
<path d="M20.4029 31.3637C20.7457 31.3637 21.0078 31.0829 21.0078 30.742C21.0078 30.4011 20.7255 30.1204 20.4029 30.1204H16.5521C16.2094 30.1204 15.9473 30.4011 15.9473 30.742C15.9473 31.0829 16.2295 31.3637 16.5521 31.3637H20.4029Z" fill="#7BC2B0"/>
</svg>
