<svg width="26" height="27" viewBox="0 0 26 27" fill="none" xmlns="http://www.w3.org/2000/svg">
<path d="M15.5283 5.87252C15.5283 4.52449 16.0129 3.17645 16.2552 3.0539C16.4974 3.17645 16.982 4.52449 16.982 5.87252C16.982 7.09801 16.6186 7.09801 16.2552 7.09801C15.8917 7.09801 15.5283 6.97547 15.5283 5.87252ZM19.4046 5.87252C19.4046 4.52449 19.8892 3.17645 20.1314 3.0539C20.3737 3.17645 20.8582 4.52449 20.8582 5.87252C20.8582 7.09801 20.4948 7.09801 20.1314 7.09801C19.768 7.09801 19.4046 6.97547 19.4046 5.87252ZM24.6134 9.42645H20.4948V7.83331C21.2216 7.71076 21.585 7.09801 21.585 5.87252C21.585 4.64703 21.1005 2.3186 20.1314 2.3186C19.1624 2.3186 18.6778 4.64703 18.6778 5.87252C18.6778 6.97547 19.0412 7.58821 19.768 7.83331V9.42645H16.6186V7.83331C17.3454 7.71076 17.7088 7.09801 17.7088 5.87252C17.7088 4.64703 17.2242 2.3186 16.2552 2.3186C15.1649 2.3186 14.8015 4.64703 14.8015 5.87252C14.8015 6.97547 15.1649 7.58821 15.8918 7.83331V9.42645H0.386595C0.144326 9.42645 0.0231934 9.549 0.0231934 9.79409C0.0231934 10.0392 0.144326 10.1617 0.386595 10.1617H11.8943C9.35051 11.3872 7.1701 13.8382 5.47422 17.6372C4.38402 20.2108 3.53608 23.0294 3.05154 25.848C3.05154 26.0931 3.17268 26.2157 3.41494 26.2157C3.65721 26.2157 3.77835 26.0931 3.77835 25.848C3.77835 25.7255 6.32216 10.0392 15.4072 10.0392H24.7345C24.9768 10.0392 25.0979 9.91664 25.0979 9.67155C25.0979 9.42645 24.8557 9.42645 24.6134 9.42645Z" fill="black"/>
<path d="M4.98957 1.58343C5.95865 1.58343 6.68545 2.31872 6.68545 3.29912C6.68545 4.27951 5.95865 5.0148 4.98957 5.0148C4.0205 5.0148 3.2937 4.27951 3.2937 3.29912C3.2937 2.44127 4.0205 1.58343 4.98957 1.58343ZM4.98957 5.87264C6.32205 5.87264 7.41226 4.7697 7.41226 3.29912C7.41226 1.95108 6.32205 0.725586 4.98957 0.725586C3.6571 0.725586 2.56689 1.82853 2.56689 3.29912C2.56689 4.7697 3.6571 5.87264 4.98957 5.87264Z" fill="black"/>
<path d="M3.77827 11.8774H2.0824C1.84013 11.8774 1.71899 12 1.71899 12.2451C1.71899 12.4902 1.84013 12.6127 2.0824 12.6127H3.77827C4.02054 12.6127 4.14167 12.4902 4.14167 12.2451C4.14167 12 4.02054 11.8774 3.77827 11.8774Z" fill="black"/>
<path d="M2.56689 15.4314C2.56689 15.6765 2.68803 15.799 2.9303 15.799H4.50504C4.74731 15.799 4.86844 15.6765 4.86844 15.4314C4.86844 15.1863 4.74731 15.0637 4.50504 15.0637H2.9303C2.68803 15.0637 2.56689 15.3088 2.56689 15.4314Z" fill="black"/>
<path d="M3.29377 20.3335C3.29377 20.0884 3.17264 19.9658 2.93037 19.9658H0.507689C0.265421 19.9658 0.144287 20.0884 0.144287 20.3335C0.144287 20.5786 0.265421 20.7011 0.507689 20.7011H2.93037C3.17264 20.7011 3.29377 20.5786 3.29377 20.3335Z" fill="black"/>
<path d="M14.4381 16.2892C14.6804 16.2892 14.8015 16.1667 14.8015 15.9216C14.8015 15.6765 14.6804 15.554 14.4381 15.554H10.8041C10.5618 15.554 10.4407 15.6765 10.4407 15.9216C10.4407 16.1667 10.5618 16.2892 10.8041 16.2892H14.4381Z" fill="black"/>
<path d="M16.4975 11.8774H14.9227C14.6805 11.8774 14.5593 12 14.5593 12.2451C14.5593 12.4902 14.6805 12.6127 14.9227 12.6127H16.4975C16.7397 12.6127 16.8609 12.4902 16.8609 12.2451C16.8609 12 16.7397 11.8774 16.4975 11.8774Z" fill="black"/>
<path d="M23.5233 15.554H21.464C21.2217 15.554 21.1006 15.6765 21.1006 15.9216C21.1006 16.1667 21.2217 16.2892 21.464 16.2892H23.5233C23.7655 16.2892 23.8867 16.1667 23.8867 15.9216C23.8867 15.6765 23.7655 15.554 23.5233 15.554Z" fill="black"/>
<path d="M11.4098 24.1323H9.22937C8.9871 24.1323 8.86597 24.2549 8.86597 24.5C8.86597 24.7451 8.9871 24.8676 9.22937 24.8676H11.4098C11.652 24.8676 11.7732 24.7451 11.7732 24.5C11.7732 24.3774 11.652 24.1323 11.4098 24.1323Z" fill="black"/>
<path d="M21.2216 23.1521H18.92C18.6778 23.1521 18.5566 23.2746 18.5566 23.5197C18.5566 23.7648 18.6778 23.8874 18.92 23.8874H21.2216C21.4639 23.8874 21.585 23.7648 21.585 23.5197C21.585 23.2746 21.4639 23.1521 21.2216 23.1521Z" fill="black"/>
<path d="M18.5566 19.353C18.5566 19.5981 18.6778 19.7206 18.92 19.7206H21.2216C21.4639 19.7206 21.585 19.5981 21.585 19.353C21.585 19.1079 21.4639 18.9854 21.2216 18.9854H18.92C18.7989 18.9854 18.5566 19.1079 18.5566 19.353Z" fill="black"/>
<path d="M15.0439 21.1912H12.6212C12.3789 21.1912 12.2578 21.3137 12.2578 21.5588C12.2578 21.8039 12.3789 21.9265 12.6212 21.9265H15.0439C15.2862 21.9265 15.4073 21.8039 15.4073 21.5588C15.4073 21.3137 15.2862 21.1912 15.0439 21.1912Z" fill="black"/>
<path d="M20.8583 14.3286C21.1005 14.3286 21.2217 14.206 21.2217 13.9609C21.2217 13.7158 21.1005 13.5933 20.8583 13.5933H18.6779C18.4356 13.5933 18.3145 13.7158 18.3145 13.9609C18.3145 14.206 18.4356 14.3286 18.6779 14.3286H20.8583Z" fill="black"/>
<path d="M11.2887 18.9853C11.531 18.9853 11.6521 18.8627 11.6521 18.6176C11.6521 18.3725 11.531 18.25 11.2887 18.25H8.98718C8.74491 18.25 8.62378 18.3725 8.62378 18.6176C8.62378 18.8627 8.74491 18.9853 8.98718 18.9853H11.2887Z" fill="black"/>
</svg>
