<svg width="11" height="15" viewBox="0 0 11 15" fill="none" xmlns="http://www.w3.org/2000/svg">
<path d="M10.0997 14.0998C10.0997 14.0998 10.0997 13.3998 9.59971 12.8998C9.39971 12.6998 9.09971 12.5998 8.79971 12.4998C8.89971 12.3998 8.99971 12.3998 9.09971 12.2998C9.79971 11.5998 10.3997 9.69981 9.69971 5.09981H10.1997V3.1998H8.59971C8.59971 2.7998 8.59971 2.39981 8.39971 2.09981C8.19971 1.89981 7.99971 1.7998 7.89971 1.7998C7.79971 1.4998 7.69971 1.19981 7.39971 1.09981C6.99971 0.899806 6.49971 0.899805 6.29971 0.999805C5.99971 0.499805 5.59971 0.299805 5.29971 0.299805C4.79971 0.299805 4.39971 0.799805 4.19971 0.999805C3.49971 0.899805 3.09971 0.899806 2.89971 1.09981C2.49971 1.39981 2.39971 1.8998 2.39971 2.1998C2.09971 2.1998 1.89971 2.29981 1.79971 2.39981C1.59971 2.59981 1.59971 2.9998 1.69971 3.1998H0.499708V5.09981H0.799711C0.499711 6.09981 -0.900292 10.6998 0.999708 12.5998C0.699708 12.6998 0.299711 13.0998 0.299711 14.0998V14.2998H0.499708C0.499708 14.2998 1.29971 14.1998 1.99971 13.9998C2.29971 13.8998 2.59971 13.7998 2.89971 13.8998C3.89971 13.9998 5.79971 14.0998 7.69971 13.9998C7.99971 13.9998 8.29971 13.9998 8.59971 14.1998C8.89971 14.2998 9.19971 14.4998 9.69971 14.4998C9.79971 14.4998 9.99971 14.4998 10.0997 14.4998H10.1997L10.0997 14.0998ZM1.99971 2.59981C2.09971 2.49981 2.29971 2.39981 2.49971 2.49981C2.59971 2.49981 2.59971 2.3998 2.69971 2.2998C2.69971 2.0998 2.69971 1.59981 2.99971 1.39981C3.19971 1.29981 3.49971 1.29981 3.99971 1.39981H4.09971L4.19971 1.2998C4.19971 1.2998 4.59971 0.599806 5.09971 0.599806C5.39971 0.599806 5.69971 0.799804 5.99971 1.1998L6.09971 1.2998H6.19971C6.19971 1.2998 6.79971 1.09981 7.19971 1.39981C7.39971 1.49981 7.49971 1.69981 7.59971 1.99981V2.09981H7.69971C7.69971 2.09981 7.99971 2.09981 8.09971 2.39981C8.29971 2.59981 8.29971 2.8998 8.29971 3.2998H1.89971C1.89971 3.0998 1.89971 2.79981 1.99971 2.59981ZM0.699712 3.49981H9.79971V4.7998H0.699712V3.49981ZM8.59971 13.7998C8.29971 13.6998 7.99971 13.5998 7.59971 13.5998C5.69971 13.6998 3.79971 13.5998 2.79971 13.4998C2.49971 13.4998 2.09971 13.4998 1.79971 13.6998C1.29971 13.8998 0.799708 13.8998 0.499708 13.9998C0.499708 13.2998 0.899706 12.9998 1.09971 12.8998C1.19971 12.8998 1.19971 12.7998 1.19971 12.6998C1.19971 12.5998 1.19971 12.4998 1.09971 12.4998C-0.700294 10.6998 0.799708 5.8998 0.999708 5.1998H9.29971C9.99971 9.6998 9.39971 11.4998 8.79971 12.1998C8.49971 12.4998 8.59971 12.4998 8.39971 12.5998C8.29971 12.5998 8.29971 12.5998 8.19971 12.5998V12.8998C8.19971 12.8998 8.29971 12.8998 8.39971 12.8998C8.89971 12.8998 8.99971 12.9998 9.29971 13.2998C9.59971 13.5998 9.69971 13.9998 9.69971 14.1998C9.29971 13.9998 8.89971 13.8998 8.59971 13.7998Z" fill="#7BC2B0"/>
<path d="M3.5997 2.2C3.4997 2.1 3.49971 2.1 3.39971 2.2C3.29971 2.3 3.29971 2.3 3.39971 2.4L3.79971 2.9H3.89971H3.99971C4.09971 2.8 4.09971 2.8 3.99971 2.7L3.5997 2.2Z" fill="#7BC2B0"/>
<path d="M5.29961 1.9C5.39961 1.9 5.39961 1.9 5.29961 1.9C5.49961 1.8 5.49961 1.7 5.39961 1.7L4.99961 1.2C4.89961 1.1 4.89961 1.1 4.79961 1.2C4.69961 1.3 4.69961 1.3 4.79961 1.4L5.19961 1.9C5.29961 1.9 5.29961 1.9 5.29961 1.9Z" fill="#7BC2B0"/>
<path d="M6.29966 1.89971C6.19966 1.79971 6.19966 1.79971 6.09966 1.89971C5.99966 1.99971 5.99966 1.99971 6.09966 2.09971L6.49966 2.59971H6.59966H6.69966C6.79966 2.49971 6.79966 2.49971 6.69966 2.39971L6.29966 1.89971Z" fill="#7BC2B0"/>
<path d="M5.0997 2.29961C4.9997 2.19961 4.99971 2.19961 4.89971 2.29961C4.79971 2.39961 4.79971 2.39961 4.89971 2.49961L5.29971 2.99961H5.39971H5.49971C5.59971 2.89961 5.59971 2.89961 5.49971 2.79961L5.0997 2.29961Z" fill="#7BC2B0"/>
<path d="M8.19962 11.2999C8.19962 11.1999 8.09961 11.1999 8.09961 11.1999H5.19962V11.0999V9.7999H5.29961C7.69961 9.5999 8.29961 8.5999 8.39961 7.7999C8.39961 7.3999 8.29961 7.0999 7.99961 6.7999C7.69961 6.5999 7.39961 6.3999 6.99961 6.4999C5.49961 6.7999 5.09961 9.0999 5.09961 9.5999C5.09961 9.5999 5.09961 9.5999 4.99961 9.5999C4.89961 9.0999 4.59961 6.7999 3.09961 6.4999C2.69961 6.3999 2.39961 6.4999 2.09961 6.7999C1.79961 7.0999 1.69962 7.3999 1.69962 7.7999C1.79962 8.5999 2.39961 9.6999 4.79961 9.7999V11.0999V11.1999H1.69962C1.59962 11.1999 1.59961 11.2999 1.59961 11.2999L1.69962 11.3999H7.89961C8.09961 11.4999 8.19962 11.3999 8.19962 11.2999ZM7.09961 6.7999H7.19962C7.39962 6.7999 7.59961 6.8999 7.79961 6.9999C7.99961 7.1999 8.09961 7.4999 8.09961 7.7999C7.99961 8.7999 7.09961 9.3999 5.59961 9.4999L6.99961 8.0999C7.09961 7.9999 7.09961 7.9999 6.99961 7.8999C6.89961 7.7999 6.89961 7.7999 6.79961 7.8999L5.39961 9.2999C5.59961 8.4999 5.99961 6.9999 7.09961 6.7999ZM1.99961 7.7999C1.99961 7.4999 2.09961 7.1999 2.29961 6.9999C2.49961 6.7999 2.69961 6.7999 2.89961 6.7999H2.99961C4.09961 6.9999 4.49961 8.5999 4.59961 9.2999L3.29961 7.8999C3.19961 7.7999 3.19961 7.7999 3.09961 7.8999C2.99961 7.9999 2.99961 7.9999 3.09961 8.0999L4.49961 9.4999C2.99961 9.2999 2.09961 8.7999 1.99961 7.7999Z" fill="#7BC2B0"/>
</svg>
