<?xml version="1.0" encoding="UTF-8" standalone="no"?>
<!-- Svg Vector Icons : http://www.onlinewebfonts.com/icon -->

<svg
   version="1.1"
   x="0px"
   y="0px"
   viewBox="0 0 980 891"
   enable-background="new 0 0 1000 1000"
   xml:space="preserve"
   id="svg8"
   sodipodi:docname="55bb66258578fe484fb83ee33e72bb9c.svg"
   width="980"
   height="891"
   xmlns:inkscape="http://www.inkscape.org/namespaces/inkscape"
   xmlns:sodipodi="http://sodipodi.sourceforge.net/DTD/sodipodi-0.dtd"
   xmlns="http://www.w3.org/2000/svg"
   xmlns:svg="http://www.w3.org/2000/svg"><defs
   id="defs12" /><sodipodi:namedview
   id="namedview10"
   pagecolor="#ffffff"
   bordercolor="#666666"
   borderopacity="1.0"
   inkscape:pageshadow="2"
   inkscape:pageopacity="0.0"
   inkscape:pagecheckerboard="0" />
<metadata
   id="metadata2"> Svg Vector Icons : http://www.onlinewebfonts.com/icon </metadata>
<g
   id="g6"
   transform="translate(-10,-54.5)"><path
     d="M 927.2,285.3 H 72.8 C 38,285.3 10,309.6 10,339.5 v 551.7 c 0,30 28,54.3 62.8,54.3 h 854.4 c 34.7,0 62.8,-24.3 62.8,-54.3 V 339.5 c 0,-29.9 -28.1,-54.2 -62.8,-54.2 z M 503.1,54.5 C 372.5,54.5 266.6,160.4 266.6,291 V 397.5 H 739.7 V 291 C 739.6,160.3 633.7,54.5 503.1,54.5 Z M 660,356.9 H 346.2 v -70.7 c 0,-86.7 70.3,-156.9 156.9,-156.9 86.7,0 156.9,70.3 156.9,156.9 z"
     id="path4" /></g>
</svg>
