<svg width="26" height="23" viewBox="0 0 26 23" fill="none" xmlns="http://www.w3.org/2000/svg">
<path d="M21.3 21.7C19.3 21.7 17.7 20.1 17.7 18.1C17.7 16.1 19.3 14.5 21.3 14.5C23.3 14.5 24.9 16.1 24.9 18.1C24.9 20.1 23.3 21.7 21.3 21.7ZM12.3 18.6C12.6 18 12.7 17.3 12.8 16.5C13.3 16.4 13.8 16.1 14.1 15.7C14.5 15.2 14.6 14.6 14.4 14C13.8 11.9 12.5 10.2 10.7 9.1H21.9C22.8 9.1 23.5 9.6 24 10.3H22.4C21.7 10.3 21.1 10.9 21.1 11.6C21.1 12.3 21.7 12.9 22.4 12.9H22.9C23.1 12.9 23.3 12.7 23.3 12.5C23.3 12.3 23.1 12.1 22.9 12.1H22.3C22 12.1 21.7 11.8 21.7 11.5C21.7 11.2 22 10.9 22.3 10.9H24.2C24.2 11.1 24.3 11.2 24.3 11.4V14.6C23.5 13.9 22.5 13.5 21.4 13.5C19 13.5 17 15.5 17 17.9C17 18.1 17 18.2 17 18.4H12.3V18.6ZM6.5 21.7C3.4 21.7 1 19.2 1 16.2C1 14.1 2.2 12.2 4.1 11.2C4.3 11.1 4.4 10.9 4.3 10.7C4.2 10.5 4 10.4 3.8 10.5C3.2 10.8 2.7 11.2 2.3 11.6C2.3 11.6 1.7 10.5 2.7 9.8C3.9 9.1 5.3 8.7 6.7 8.7C10 8.7 13 10.9 13.9 14.2C14 14.6 13.9 15 13.7 15.3C13.5 15.5 13.3 15.7 13 15.8C12.8 12.5 10.1 9.9 6.7 9.9C6.3 9.9 5.8 9.9 5.4 10C5.2 10 5.1 10.2 5.1 10.4C5.1 10.6 5.3 10.7 5.5 10.7C5.9 10.6 6.2 10.6 6.6 10.6C9.7 10.6 12.1 13.1 12.1 16.1C12 19.2 9.5 21.7 6.5 21.7ZM4.4 2.4H9.6V8.4H8.9C8.1 8.1 7.3 8 6.4 8C5.7 8 5 8.1 4.4 8.3V2.4ZM16.3 8.4H10.4V2.4H14.5L16.3 8.4ZM18.8 6.2H19.9V8.4H18.8V6.2ZM18.3 4.4C18.3 4.1 18.6 3.8 18.9 3.8H19.9C20.2 3.8 20.5 4.1 20.5 4.4V4.9C20.5 5.2 20.2 5.5 19.9 5.5H18.8C18.5 5.5 18.2 5.2 18.2 4.9V4.4H18.3ZM25 15.6V11.5C25 11.2 24.9 8.3 21.8 8.3H20.6V5.9C20.9 5.7 21.2 5.3 21.2 4.8V4.3C21.2 3.6 20.6 3 19.9 3H18.8C18.1 3 17.5 3.6 17.5 4.3V4.9C17.5 5.4 17.7 5.7 18.1 6V8.4H17.1L15.3 2.4C15.8 2.2 16.2 1.8 16.2 1.2C16.2 0.5 15.7 0 15 0H13.5C13.3 0 13.1 0.2 13.1 0.4C13.1 0.6 13.3 0.799999 13.5 0.799999H14.9C15.2 0.799999 15.4 0.999999 15.4 1.3C15.4 1.6 15.2 1.8 14.9 1.8H3.9C3.6 1.8 3.4 1.6 3.4 1.3C3.4 0.999999 3.6 0.799999 3.9 0.799999H11.9C12.1 0.799999 12.3 0.6 12.3 0.4C12.3 0.2 12.1 0 11.9 0H3.9C3.2 0 2.7 0.5 2.7 1.2C2.7 1.8 3.1 2.3 3.6 2.4V8.5C3 8.7 2.5 9 2 9.3C0.3 10.4 1.4 12.3 1.4 12.3C1.3 12.5 1.1 12.7 1 12.9C0.4 13.9 0 15.1 0 16.3C0 19.8 2.8 22.6 6.3 22.6C8.6 22.6 10.6 21.3 11.7 19.5H16.9C17.4 21.3 19.1 22.6 21.1 22.6C23.5 22.6 25.5 20.6 25.5 18.2C25.7 17.1 25.4 16.3 25 15.6Z" fill="black"/>
<path d="M6.4999 18.5001C5.1999 18.5001 4.1999 17.4001 4.1999 16.2001C4.1999 14.9001 5.2999 13.9001 6.4999 13.9001C7.7999 13.9001 8.7999 15.0001 8.7999 16.2001C8.7999 17.4001 7.7999 18.5001 6.4999 18.5001ZM6.4999 13.1001C4.7999 13.1001 3.3999 14.5001 3.3999 16.2001C3.3999 17.9001 4.7999 19.3001 6.4999 19.3001C8.1999 19.3001 9.5999 17.9001 9.5999 16.2001C9.5999 14.5001 8.1999 13.1001 6.4999 13.1001Z" fill="black"/>
<path d="M21.3 19.3C20.6 19.3 20 18.7 20 18C20 17.3 20.6 16.7 21.3 16.7C22 16.7 22.6 17.3 22.6 18C22.6 18.8 22 19.3 21.3 19.3ZM21.3 16C20.2 16 19.3 16.9 19.3 18C19.3 19.1 20.2 20 21.3 20C22.4 20 23.3 19.1 23.3 18C23.3 16.9 22.4 16 21.3 16Z" fill="black"/>
</svg>
