<svg width="30" height="36" fill="none" xmlns="http://www.w3.org/2000/svg">
    <path d="m17.181 21.31-6.788-11.026a1.048 1.048 0 0 0-1.735 0L1.84 21.362A10.582 10.582 0 0 0 .31 26.54c0 2.493.971 4.884 2.7 6.647a9.125 9.125 0 0 0 6.517 2.754c2.444 0 4.788-.99 6.516-2.754a9.497 9.497 0 0 0 2.7-6.647 10.662 10.662 0 0 0-1.56-5.23zM9.526 33.852a7.107 7.107 0 0 1-5.066-2.144 7.396 7.396 0 0 1-2.103-5.168 8.452 8.452 0 0 1 1.248-4.118l.957-1.557 10.316 10.523a7.156 7.156 0 0 1-2.416 1.82 7.026 7.026 0 0 1-2.936.645v-.001zM28.454 8.041 23.928.907a.708.708 0 0 0-.578-.295.716.716 0 0 0-.578.295l-4.546 7.168a6.702 6.702 0 0 0-1.02 3.35c0 1.614.647 3.16 1.8 4.302a6.175 6.175 0 0 0 4.344 1.781c1.63 0 3.192-.64 4.345-1.781a6.052 6.052 0 0 0 1.8-4.302 6.752 6.752 0 0 0-1.041-3.384zm-5.104 8.116a4.81 4.81 0 0 1-3.377-1.388 4.713 4.713 0 0 1-1.402-3.344 5.354 5.354 0 0 1 .832-2.665l.638-1.007 6.877 6.81a4.758 4.758 0 0 1-1.61 1.176 4.804 4.804 0 0 1-1.958.418z" fill="#fff"/>
</svg>
