<svg width="20" height="26" viewBox="0 0 20 26" fill="none" xmlns="http://www.w3.org/2000/svg">
<path d="M16.4758 3.36461L16.4757 3.36458C14.8548 1.74412 12.6912 0.781503 10.4023 0.662511C8.11344 0.54352 5.86161 1.27659 4.08145 2.72024C2.30129 4.16389 1.11898 6.21577 0.762713 8.47988C0.406446 10.744 0.901478 13.0598 2.15227 14.9804L2.15228 14.9804L8.35396 24.501L8.64722 24.31L8.35396 24.5011C8.52377 24.7617 8.75594 24.9759 9.02943 25.1241C9.30293 25.2724 9.6091 25.35 9.92019 25.35C10.2313 25.35 10.5374 25.2724 10.8109 25.1241C11.0844 24.9759 11.3166 24.7617 11.4864 24.5011L11.1931 24.31L11.4864 24.5011L17.6883 14.9804C18.8489 13.1988 19.3618 11.0724 19.141 8.95759C18.9203 6.84278 17.9793 4.86813 16.4758 3.36461ZM15.7265 13.7024L9.92021 22.6157L4.11388 13.7024C2.33712 10.9748 2.71846 7.32208 5.02025 5.02019C5.66372 4.3767 6.42763 3.86626 7.26837 3.51801C8.1091 3.16976 9.0102 2.99052 9.92021 2.99052C10.8302 2.99052 11.7313 3.16976 12.5721 3.51801C13.4128 3.86626 14.1767 4.3767 14.8202 5.02018C17.122 7.32207 17.5033 10.9748 15.7265 13.7024Z" fill="#458985" stroke="#458985" stroke-width="0.7"/>
</svg>
