<svg class="svg-icon" style="width: 1em; height: 1em;vertical-align: middle;fill: currentColor;overflow: hidden;" viewBox="0 0 1024 1024" version="1.1" xmlns="http://www.w3.org/2000/svg"><path d="M655 642 655 382l-26 0 0 546-78 0L551 590 473 564 473 382l-26 0 0 182-52 0L395 356c0 0 13.8-39.4 26-52 12.2-12.6 52-26 52-26l156 0c0 0 40.3 17.1 52 26 11.7 8.9 26 50.6 26 50.6L707 642 655 642zM551.1 252c-43.1 0-78-34.9-78-78 0-43.1 34.9-78 78-78 43.1 0 78 34.9 78 78C629.1 217.1 594.2 252 551.1 252zM447 589.9l0 26 78 0 0 52-78 0 0-26-52 0 0 26-78 0 0-52 0 0 78 0 0-26L447 589.9zM395 720l52 0 0-26 78 0 0 78L317 772l0-78 78 0L395 720zM525 928l-78 0L447 798l78 0L525 928z" fill="#458985"/></svg>