<svg width="35" height="33" viewBox="0 0 35 33" fill="none" xmlns="http://www.w3.org/2000/svg">
<path d="M29.5263 6.94737H24.3158V5.21053C24.3158 3.82861 23.7668 2.50329 22.7897 1.52613C21.8125 0.548965 20.4872 0 19.1053 0H15.6316C14.2497 0 12.9243 0.548965 11.9472 1.52613C10.97 2.50329 10.4211 3.82861 10.4211 5.21053V6.94737H5.21053C3.82861 6.94737 2.50329 7.49633 1.52613 8.4735C0.548965 9.45066 0 10.776 0 12.1579V27.7895C0 29.1714 0.548965 30.4967 1.52613 31.4739C2.50329 32.451 3.82861 33 5.21053 33H29.5263C30.9082 33 32.2336 32.451 33.2107 31.4739C34.1879 30.4967 34.7368 29.1714 34.7368 27.7895V12.1579C34.7368 10.776 34.1879 9.45066 33.2107 8.4735C32.2336 7.49633 30.9082 6.94737 29.5263 6.94737ZM13.8947 5.21053C13.8947 4.74989 14.0777 4.30812 14.4034 3.98239C14.7292 3.65667 15.1709 3.47368 15.6316 3.47368H19.1053C19.5659 3.47368 20.0077 3.65667 20.3334 3.98239C20.6591 4.30812 20.8421 4.74989 20.8421 5.21053V6.94737H13.8947V5.21053ZM31.2632 27.7895C31.2632 28.2501 31.0802 28.6919 30.7545 29.0176C30.4287 29.3433 29.987 29.5263 29.5263 29.5263H5.21053C4.74989 29.5263 4.30812 29.3433 3.98239 29.0176C3.65667 28.6919 3.47368 28.2501 3.47368 27.7895V18.2368C7.89614 19.9913 12.6107 20.893 17.3684 20.8942C22.126 20.8913 26.8402 19.9897 31.2632 18.2368V27.7895ZM31.2632 14.4332C26.8835 16.3572 22.152 17.3507 17.3684 17.3507C12.5848 17.3507 7.85331 16.3572 3.47368 14.4332V12.1579C3.47368 11.6973 3.65667 11.2555 3.98239 10.9298C4.30812 10.604 4.74989 10.4211 5.21053 10.4211H29.5263C29.987 10.4211 30.4287 10.604 30.7545 10.9298C31.0802 11.2555 31.2632 11.6973 31.2632 12.1579V14.4332Z" fill="#458985"/>
</svg>
