<svg width="40" height="41" viewBox="0 0 40 41" fill="none" xmlns="http://www.w3.org/2000/svg">
<path d="M0.937745 9.61662L3.23977 10.5987L3.37868 10.6478C3.52366 10.6915 3.67045 10.7121 3.81422 10.7121C4.4111 10.7121 4.96553 10.3542 5.2021 9.77191C5.51632 8.9979 5.14569 8.10317 4.37713 7.77803L2.07572 6.79717L1.96532 6.75714C1.95561 6.75289 1.9459 6.74925 1.93559 6.74622C1.19009 6.52299 0.405761 6.89908 0.111563 7.62275C-0.0394791 7.99944 -0.0370527 8.41314 0.118235 8.78801C0.273524 9.16289 0.564689 9.45709 0.937745 9.61662Z" fill="#458985"/>
<path d="M7.56123 4.41169L7.62189 4.53786C7.80872 4.88544 8.11869 5.14445 8.49417 5.26759C8.65068 5.31855 8.81142 5.34402 8.97156 5.34402C9.19661 5.34402 9.42044 5.29428 9.62911 5.19541C9.98579 5.02617 10.26 4.72954 10.4019 4.36073C10.5432 3.99192 10.5384 3.58793 10.3867 3.22337L9.435 0.938328L9.38101 0.823682C9.37919 0.819436 9.37677 0.81519 9.37434 0.810944C9.18751 0.462152 8.87754 0.201316 8.50206 0.0775708C8.12597 -0.046781 7.72198 -0.0206975 7.36409 0.149149C7.0068 0.318995 6.73202 0.616833 6.59068 0.986249C6.44934 1.35567 6.45602 1.76087 6.60888 2.12483L7.56123 4.41169Z" fill="#458985"/>
<path d="M5.0675 11.7588C4.7727 13.598 5.12695 15.496 6.06596 17.1047C6.10842 17.1769 6.17878 17.2284 6.26007 17.2466C6.2819 17.2515 6.30374 17.2539 6.32618 17.2539C6.38624 17.2539 6.44568 17.2357 6.49664 17.2011C7.12386 16.7705 7.80567 16.4223 8.52206 16.1663C8.60759 16.136 8.67492 16.068 8.70464 15.9825C8.73497 15.897 8.72466 15.8023 8.67674 15.7247C8.10411 14.7948 7.84631 13.7272 7.93245 12.6383C8.01798 11.5495 8.43956 10.5353 9.1517 9.70667C9.86324 8.87807 10.8016 8.30787 11.865 8.05856C12.929 7.80864 14.0227 7.90205 15.0284 8.32788C15.1182 8.36549 15.2213 8.35821 15.3044 8.30665C16.062 7.83654 16.8918 7.45196 17.7653 7.16626L17.8266 7.14745C17.9534 7.10924 18.0401 6.99095 18.0401 6.85871C18.0401 6.76469 17.9965 6.67613 17.9212 6.61911C16.4393 5.49084 14.6007 4.90972 12.7373 4.97463C10.8762 5.04318 9.08255 5.76017 7.68738 6.99398C6.29282 8.2278 5.36231 9.91959 5.0675 11.7588Z" fill="#458985"/>
<path d="M16.0603 5.24161C16.2271 5.30045 16.4006 5.32957 16.5735 5.32957C16.7858 5.32957 16.9981 5.28529 17.1971 5.19794C17.558 5.03901 17.8419 4.75088 17.9954 4.39056L18.9805 2.12796L19.0308 1.9842C19.2528 1.22656 18.8689 0.426466 18.1385 0.123169C18.1385 0.123169 18.1385 0.123169 18.1379 0.123169C17.7564 -0.0345458 17.3366 -0.0345458 16.9544 0.123169C16.5729 0.280883 16.2757 0.578114 16.1198 0.95481L15.1359 3.21741L15.0849 3.3642C14.9776 3.74393 15.0188 4.1461 15.2008 4.49611C15.3828 4.84551 15.6879 5.11059 16.0603 5.24161Z" fill="#458985"/>
<path d="M4.52453 18.1679C4.85755 17.9877 5.1105 17.6923 5.23728 17.3362C5.36406 16.9795 5.35435 16.5907 5.20938 16.2413C5.05348 15.8646 4.75989 15.5716 4.3832 15.4157C4.0065 15.2599 3.59159 15.2599 3.21489 15.4157L0.922575 16.3693L0.793976 16.4312C0.450644 16.6198 0.195875 16.928 0.0757689 17.3004C-0.0443368 17.6729 -0.0182532 18.072 0.149773 18.4257C0.3178 18.7787 0.611391 19.0517 0.975955 19.193C1.15429 19.2622 1.34112 19.2967 1.52796 19.2967C1.72389 19.2967 1.91921 19.2585 2.10604 19.1827L4.39836 18.2285L4.52453 18.1679Z" fill="#458985"/>
<path d="M15.07 33.5215C14.4634 33.5215 13.8926 33.7575 13.4638 34.1869C13.0349 34.6158 12.7983 35.186 12.7983 35.7932C12.7983 36.3998 13.0349 36.9706 13.4638 37.3994C13.8932 37.8283 14.4634 38.0649 15.07 38.0649C15.6766 38.0649 16.2468 37.8283 16.6763 37.3994C17.1052 36.9706 17.3417 36.3998 17.3417 35.7932C17.3417 35.1866 17.1052 34.6158 16.6763 34.1869C16.2474 33.7581 15.6766 33.5215 15.07 33.5215Z" fill="#458985"/>
<path d="M28.863 33.5215C28.2564 33.5215 27.6862 33.7575 27.2567 34.1869C26.8279 34.6158 26.5913 35.186 26.5913 35.7932C26.5913 36.3998 26.8273 36.97 27.2567 37.3994C27.6862 37.8283 28.2564 38.0649 28.863 38.0649C29.4696 38.0649 30.0398 37.8289 30.4693 37.3994C30.8981 36.97 31.1347 36.3998 31.1347 35.7932C31.1347 35.1866 30.8981 34.6158 30.4693 34.1869C30.0404 33.7581 29.4696 33.5215 28.863 33.5215Z" fill="#458985"/>
<path d="M32.5355 17.009C31.8452 11.4563 27.724 7.88525 21.9662 7.88525C16.2084 7.88525 12.0866 11.4563 11.3969 17.009C7.27022 17.0685 3.93213 20.4357 3.93213 24.5654C3.93213 28.7321 7.33088 32.1223 11.5079 32.1223H32.4245C36.6015 32.1223 40.0002 28.7321 40.0002 24.5654C40.0002 20.4357 36.6615 17.0685 32.5355 17.009ZM36.9357 24.7116C36.9357 27.1107 34.9946 29.0627 32.6089 29.0627H11.3223C8.93653 29.0627 6.99543 27.1107 6.99543 24.7116C6.99543 22.3131 8.93653 20.3611 11.3223 20.3611H12.7211C13.6516 20.3611 14.4092 19.6307 14.4092 18.733C14.4092 14.3661 17.7285 10.9455 21.9656 10.9455C26.2026 10.9455 29.5219 14.3661 29.5219 18.733C29.5219 19.6313 30.2796 20.3623 31.2101 20.3623H32.6089C34.9952 20.3623 36.9357 22.3131 36.9357 24.7116Z" fill="#458985"/>
<path d="M21.9665 35.4922C21.3599 35.4922 20.7897 35.7282 20.3603 36.1576C19.9314 36.5865 19.6948 37.1573 19.6948 37.7639C19.6948 38.3705 19.9314 38.9413 20.3603 39.3701C20.7897 39.799 21.3599 40.0356 21.9665 40.0356C22.5731 40.0356 23.1433 39.799 23.5728 39.3701C24.0016 38.9413 24.2382 38.3711 24.2382 37.7639C24.2382 37.1573 24.0016 36.5865 23.5728 36.1576C23.1439 35.7282 22.5731 35.4922 21.9665 35.4922Z" fill="#458985"/>
</svg>
