<svg width="33" height="31" fill="none" xmlns="http://www.w3.org/2000/svg">
    <path d="M10.246 26.321a1.987 1.987 0 1 1 0 3.975 1.987 1.987 0 0 1 0-3.975zm16.887-13.91a4.968 4.968 0 0 1 0 9.936l-.103-.004-.227.017-1.474-.002c.222.54.346 1.13.346 1.75a4.67 4.67 0 0 1-4.72 4.725c-1.993 0-3.458-.882-4.233-2.337a1.49 1.49 0 0 1 2.526-1.57l.199.324c.27.386.715.602 1.51.602a1.689 1.689 0 0 0 1.737-1.745c0-.874-.72-1.62-1.677-1.72l-.428-.027H1.8a1.49 1.49 0 0 1-.202-2.966l.203-.014h25.003l.096.004.117-.014.35-.018a1.987 1.987 0 1 0-2.005-2.88l-.18.412a1.49 1.49 0 0 1-2.718-1.207 4.972 4.972 0 0 1 4.67-3.267zM15.21 2.463a6.955 6.955 0 0 1 .864 13.86l-.199.039-.204.012H1.8a1.49 1.49 0 0 1-.203-2.967l.203-.014h13.412a3.975 3.975 0 1 0-3.975-3.974 1.49 1.49 0 1 1-2.98 0 6.956 6.956 0 0 1 6.955-6.956h-.002zm-12.913.01a1.987 1.987 0 1 1 0 3.975 1.987 1.987 0 0 1 0-3.975zM30.118.487a1.987 1.987 0 1 1 0 3.974 1.987 1.987 0 0 1 0-3.974z" fill="#fff"/>
</svg>
