<svg width="22" height="24" viewBox="0 0 22 24" fill="none" xmlns="http://www.w3.org/2000/svg">
<path d="M7.4141 18.5343C7.41388 18.942 7.30161 19.3418 7.08954 19.69C6.87747 20.0382 6.57377 20.3215 6.21162 20.5087C5.84947 20.696 5.44282 20.7801 5.03609 20.7519C4.62936 20.7237 4.23821 20.5843 3.90538 20.3488C3.57255 20.1133 3.31085 19.7909 3.14887 19.4167C2.9869 19.0426 2.93089 18.6311 2.98695 18.2273C3.04302 17.8234 3.20901 17.4428 3.46678 17.1269C3.72455 16.811 4.06419 16.5721 4.44858 16.4362V3.70671C4.44858 3.51009 4.52669 3.32151 4.66572 3.18248C4.80476 3.04344 4.99333 2.96533 5.18996 2.96533C5.38658 2.96533 5.57516 3.04344 5.71419 3.18248C5.85323 3.32151 5.93134 3.51009 5.93134 3.70671V16.4362C6.36516 16.5896 6.74073 16.8737 7.0063 17.2495C7.27186 17.6253 7.41434 18.0742 7.4141 18.5343Z" fill="#EF980C"/>
<path d="M1.48276 3.7069C1.48276 2.72377 1.87331 1.7809 2.56849 1.08572C3.26366 0.390547 4.20653 0 5.18966 0C6.17279 0 7.11565 0.390547 7.81083 1.08572C8.50601 1.7809 8.89655 2.72377 8.89655 3.7069V14.9017C9.61174 15.6317 10.0955 16.5565 10.2872 17.5603C10.4789 18.564 10.37 19.602 9.97408 20.5442C9.5782 21.4863 8.91299 22.2905 8.06186 22.8561C7.21073 23.4217 6.21156 23.7234 5.18966 23.7234C4.16775 23.7234 3.16859 23.4217 2.31746 22.8561C1.46633 22.2905 0.801116 21.4863 0.405237 20.5442C0.00935822 19.602 -0.0995668 18.564 0.0921205 17.5603C0.283808 16.5565 0.767575 15.6317 1.48276 14.9017V3.7069ZM5.18966 1.48276C4.59978 1.48276 4.03406 1.71709 3.61695 2.13419C3.19985 2.5513 2.96552 3.11702 2.96552 3.7069V15.5497L2.7179 15.7721C2.15826 16.2726 1.76378 16.9312 1.58666 17.6607C1.40954 18.3903 1.45812 19.1565 1.72598 19.8578C1.99384 20.5592 2.46835 21.1627 3.08671 21.5884C3.70508 22.0142 4.43815 22.2422 5.18892 22.2422C5.93968 22.2422 6.67276 22.0142 7.29112 21.5884C7.90949 21.1627 8.384 20.5592 8.65186 19.8578C8.91971 19.1565 8.9683 18.3903 8.79117 17.6607C8.61405 16.9312 8.21957 16.2726 7.65993 15.7721L7.4138 15.5482V3.7069C7.4138 3.11702 7.17947 2.5513 6.76236 2.13419C6.34525 1.71709 5.77954 1.48276 5.18966 1.48276ZM12.6034 2.96552C12.8001 2.96552 12.9886 3.04363 13.1277 3.18266C13.2667 3.3217 13.3448 3.51027 13.3448 3.7069V5.18966C13.3448 5.38628 13.2667 5.57485 13.1277 5.71389C12.9886 5.85292 12.8001 5.93103 12.6034 5.93103C12.4068 5.93103 12.2183 5.85292 12.0792 5.71389C11.9402 5.57485 11.8621 5.38628 11.8621 5.18966V3.7069C11.8621 3.51027 11.9402 3.3217 12.0792 3.18266C12.2183 3.04363 12.4068 2.96552 12.6034 2.96552ZM18.8948 5.57072C19.0338 5.70975 19.1119 5.89829 19.1119 6.09488C19.1119 6.29147 19.0338 6.48001 18.8948 6.61903L17.8465 7.66883C17.7073 7.80804 17.5185 7.88625 17.3216 7.88625C17.1247 7.88625 16.9359 7.80804 16.7967 7.66883C16.6575 7.52962 16.5793 7.34081 16.5793 7.14393C16.5793 6.94706 16.6575 6.75825 16.7967 6.61903L17.8465 5.57072C17.9855 5.43174 18.1741 5.35366 18.3706 5.35366C18.5672 5.35366 18.7558 5.43174 18.8948 5.57072ZM11.8621 8.15517C11.8621 7.95855 11.9402 7.76997 12.0792 7.63094C12.2183 7.4919 12.4068 7.41379 12.6034 7.41379C13.7832 7.41379 14.9146 7.88245 15.7489 8.71666C16.5831 9.55088 17.0517 10.6823 17.0517 11.8621C17.0517 13.0418 16.5831 14.1733 15.7489 15.0075C14.9146 15.8417 13.7832 16.3103 12.6034 16.3103C12.4068 16.3103 12.2183 16.2322 12.0792 16.0932C11.9402 15.9542 11.8621 15.7656 11.8621 15.569C11.8621 15.3723 11.9402 15.1838 12.0792 15.0447C12.2183 14.9057 12.4068 14.8276 12.6034 14.8276C13.39 14.8276 14.1442 14.5151 14.7004 13.959C15.2565 13.4029 15.569 12.6486 15.569 11.8621C15.569 11.0756 15.2565 10.3213 14.7004 9.76513C14.1442 9.20899 13.39 8.89655 12.6034 8.89655C12.4068 8.89655 12.2183 8.81844 12.0792 8.67941C11.9402 8.54037 11.8621 8.3518 11.8621 8.15517ZM18.5345 11.8621C18.5345 11.6654 18.6126 11.4769 18.7516 11.3378C18.8907 11.1988 19.0792 11.1207 19.2759 11.1207H20.7586C20.9552 11.1207 21.1438 11.1988 21.2829 11.3378C21.4219 11.4769 21.5 11.6654 21.5 11.8621C21.5 12.0587 21.4219 12.2473 21.2829 12.3863C21.1438 12.5253 20.9552 12.6034 20.7586 12.6034H19.2759C19.0792 12.6034 18.8907 12.5253 18.7516 12.3863C18.6126 12.2473 18.5345 12.0587 18.5345 11.8621ZM16.7967 16.0553C16.8656 15.9863 16.9474 15.9315 17.0374 15.8941C17.1275 15.8567 17.2241 15.8375 17.3216 15.8375C17.4191 15.8375 17.5157 15.8567 17.6057 15.8941C17.6958 15.9315 17.7776 15.9863 17.8465 16.0553L18.8948 17.1051C19.0298 17.2449 19.1046 17.4322 19.1029 17.6266C19.1012 17.821 19.0232 18.0069 18.8858 18.1444C18.7483 18.2818 18.5624 18.3598 18.368 18.3615C18.1736 18.3632 17.9863 18.2885 17.8465 18.1534L16.7967 17.1051C16.7276 17.0362 16.6729 16.9544 16.6355 16.8644C16.5981 16.7743 16.5789 16.6777 16.5789 16.5802C16.5789 16.4827 16.5981 16.3861 16.6355 16.2961C16.6729 16.206 16.7276 16.1242 16.7967 16.0553ZM12.6034 17.7931C12.8001 17.7931 12.9886 17.8712 13.1277 18.0102C13.2667 18.1493 13.3448 18.3379 13.3448 18.5345V20.0172C13.3448 20.2139 13.2667 20.4024 13.1277 20.5415C12.9886 20.6805 12.8001 20.7586 12.6034 20.7586C12.4068 20.7586 12.2183 20.6805 12.0792 20.5415C11.9402 20.4024 11.8621 20.2139 11.8621 20.0172V18.5345C11.8621 18.3379 11.9402 18.1493 12.0792 18.0102C12.2183 17.8712 12.4068 17.7931 12.6034 17.7931Z" fill="#EF980C"/>
</svg>
