<svg width="20" height="20" viewBox="0 0 20 20" fill="none" xmlns="http://www.w3.org/2000/svg">
<path d="M5.41333 11.6617C5.74419 11.6617 6.0615 11.5302 6.29545 11.2963C6.5294 11.0623 6.66083 10.745 6.66083 10.4142C6.66083 10.0833 6.5294 9.766 6.29545 9.53205C6.0615 9.2981 5.74419 9.16667 5.41333 9.16667C5.08248 9.16667 4.76517 9.2981 4.53122 9.53205C4.29727 9.766 4.16583 10.0833 4.16583 10.4142C4.16583 10.745 4.29727 11.0623 4.53122 11.2963C4.76517 11.5302 5.08248 11.6617 5.41333 11.6617ZM6.66167 14.5817C6.66167 14.9125 6.53023 15.2298 6.29628 15.4638C6.06233 15.6977 5.74502 15.8292 5.41417 15.8292C5.08331 15.8292 4.766 15.6977 4.53205 15.4638C4.2981 15.2298 4.16667 14.9125 4.16667 14.5817C4.16667 14.2508 4.2981 13.9335 4.53205 13.6996C4.766 13.4656 5.08331 13.3342 5.41417 13.3342C5.74502 13.3342 6.06233 13.4656 6.29628 13.6996C6.53023 13.9335 6.66167 14.2508 6.66167 14.5817ZM10 11.66C10.3306 11.66 10.6477 11.5287 10.8815 11.2949C11.1153 11.0611 11.2467 10.744 11.2467 10.4133C11.2467 10.0827 11.1153 9.7656 10.8815 9.53181C10.6477 9.29801 10.3306 9.16667 10 9.16667C9.66914 9.16667 9.35184 9.2981 9.11788 9.53205C8.88393 9.766 8.7525 10.0833 8.7525 10.4142C8.7525 10.745 8.88393 11.0623 9.11788 11.2963C9.35184 11.5302 9.66914 11.6617 10 11.6617V11.66ZM11.2483 14.58C11.2483 14.9109 11.1169 15.2282 10.8829 15.4621C10.649 15.6961 10.3317 15.8275 10.0008 15.8275C9.66998 15.8275 9.35267 15.6961 9.11872 15.4621C8.88477 15.2282 8.75333 14.9109 8.75333 14.58C8.75333 14.2491 8.88477 13.9318 9.11872 13.6979C9.35267 13.4639 9.66998 13.3325 10.0008 13.3325C10.3317 13.3325 10.649 13.4639 10.8829 13.6979C11.1169 13.9318 11.2483 14.2491 11.2483 14.58ZM14.5817 11.66C14.9125 11.66 15.2298 11.5286 15.4638 11.2946C15.6977 11.0607 15.8292 10.7434 15.8292 10.4125C15.8292 10.0816 15.6977 9.76434 15.4638 9.53038C15.2298 9.29643 14.9125 9.165 14.5817 9.165C14.2508 9.165 13.9335 9.29643 13.6996 9.53038C13.4656 9.76434 13.3342 10.0816 13.3342 10.4125C13.3342 10.7434 13.4656 11.0607 13.6996 11.2946C13.9335 11.5286 14.2508 11.66 14.5817 11.66ZM20 4.16667C20 3.0616 19.561 2.00179 18.7796 1.22039C17.9982 0.438987 16.9384 0 15.8333 0H4.16667C3.0616 0 2.00179 0.438987 1.22039 1.22039C0.438987 2.00179 0 3.0616 0 4.16667V15.8333C0 16.9384 0.438987 17.9982 1.22039 18.7796C2.00179 19.561 3.0616 20 4.16667 20H15.8333C16.9384 20 17.9982 19.561 18.7796 18.7796C19.561 17.9982 20 16.9384 20 15.8333V4.16667ZM1.66667 6.66667H18.3333V15.8333C18.3333 16.4964 18.0699 17.1323 17.6011 17.6011C17.1323 18.0699 16.4964 18.3333 15.8333 18.3333H4.16667C3.50363 18.3333 2.86774 18.0699 2.3989 17.6011C1.93006 17.1323 1.66667 16.4964 1.66667 15.8333V6.66667ZM4.16667 1.66667H15.8333C16.4964 1.66667 17.1323 1.93006 17.6011 2.3989C18.0699 2.86774 18.3333 3.50363 18.3333 4.16667V5H1.66667V4.16667C1.66667 3.50363 1.93006 2.86774 2.3989 2.3989C2.86774 1.93006 3.50363 1.66667 4.16667 1.66667Z" fill="#A3AAD2"/>
</svg>
