<svg width="19" height="24" viewBox="0 0 19 24" fill="none" xmlns="http://www.w3.org/2000/svg">
<mask id="path-1-inside-1_907_29" fill="white">
<path d="M7.71226 23.3594C15.8979 20.5749 10.5838 11.0873 6.42306 6.13511C6.26452 5.94641 5.96997 5.95915 5.81361 6.14966C-3.32963 17.2903 -0.0406146 22.2029 4.50868 23.479C5.55601 23.7728 6.68245 23.7097 7.71226 23.3594Z"/>
</mask>
<path d="M6.42306 6.13511L5.5043 6.90704L5.5043 6.90704L6.42306 6.13511ZM7.71226 23.3594L7.32582 22.2233L7.32582 22.2233L7.71226 23.3594ZM4.50868 23.479L4.83278 22.3236L4.83278 22.3236L4.50868 23.479ZM5.81361 6.14966L6.74121 6.91095L6.74121 6.91095L5.81361 6.14966ZM5.5043 6.90704C7.53797 9.32753 9.77175 12.7701 10.5326 15.8481C10.9105 17.3766 10.893 18.685 10.448 19.7132C10.0215 20.6986 9.12175 21.6124 7.32582 22.2233L8.0987 24.4954C10.3956 23.7141 11.9012 22.3978 12.6505 20.6664C13.3814 18.9778 13.3101 17.0827 12.8625 15.2722C11.9726 11.6722 9.46891 7.89486 7.34182 5.36318L5.5043 6.90704ZM4.83278 22.3236C2.86574 21.7718 1.41138 20.5332 1.2217 18.4069C1.01706 16.1129 2.2218 12.4177 6.74121 6.91095L4.88602 5.38837C0.262181 11.0223 -1.46019 15.3537 -1.16881 18.6202C-0.862467 22.0543 1.60232 23.9101 4.18458 24.6344L4.83278 22.3236ZM7.32582 22.2233C6.50112 22.5038 5.62316 22.5453 4.83278 22.3236L4.18457 24.6344C5.48887 25.0003 6.86378 24.9155 8.0987 24.4954L7.32582 22.2233ZM7.34182 5.36318C6.66118 4.55307 5.47968 4.66503 4.88602 5.38837L6.74121 6.91095C6.46026 7.25328 5.86786 7.33976 5.5043 6.90704L7.34182 5.36318Z" fill="#60B6D9" mask="url(#path-1-inside-1_907_29)"/>
<mask id="path-3-inside-2_907_29" fill="white">
<path d="M16.1415 11.792C21.5986 9.90059 18.0559 3.45573 15.282 0.0917777C15.1763 -0.0364009 14.98 -0.0277465 14.8757 0.101665C8.78025 7.66937 10.9729 11.0064 14.0058 11.8733C14.704 12.0728 15.455 12.03 16.1415 11.792Z"/>
</mask>
<path d="M15.282 0.0917777L14.3562 0.855202L14.3562 0.855203L15.282 0.0917777ZM16.1415 11.792L15.7485 10.6582L15.7485 10.6582L16.1415 11.792ZM14.0058 11.8733L14.3356 10.7195L14.3356 10.7195L14.0058 11.8733ZM14.8757 0.101665L15.8103 0.854406L15.8103 0.854406L14.8757 0.101665ZM14.3562 0.855203C15.6964 2.48057 17.1444 4.76644 17.6322 6.77702C17.8737 7.77264 17.8487 8.57261 17.595 9.16983C17.3602 9.72253 16.857 10.274 15.7485 10.6582L16.5345 12.9258C18.1545 12.3643 19.2549 11.4009 19.804 10.1081C20.3342 8.85981 20.2733 7.48368 19.9645 6.21117C19.3518 3.68548 17.6415 1.06694 16.2079 -0.671647L14.3562 0.855203ZM14.3356 10.7195C13.1378 10.3771 12.3222 9.64217 12.2131 8.39564C12.0895 6.9842 12.8157 4.57223 15.8103 0.854406L13.9412 -0.651076C10.8403 3.1988 9.61509 6.23921 9.8222 8.60495C10.0438 11.1356 11.8409 12.5026 13.676 13.0271L14.3356 10.7195ZM15.7485 10.6582C15.2702 10.824 14.7723 10.8443 14.3356 10.7195L13.676 13.0271C14.6356 13.3014 15.6397 13.2359 16.5345 12.9258L15.7485 10.6582ZM16.2079 -0.671647C15.5787 -1.43464 14.4821 -1.32261 13.9412 -0.651076L15.8103 0.854406C15.4779 1.26711 14.7739 1.36184 14.3562 0.855202L16.2079 -0.671647Z" fill="#60B6D9" mask="url(#path-3-inside-2_907_29)"/>
</svg>
