<svg width="17" height="17" viewBox="0 0 17 17" fill="none" xmlns="http://www.w3.org/2000/svg">
<path d="M0 8.5C0 13.1939 3.80611 17 8.5 17C13.1939 17 17 13.1939 17 8.5C17 3.80611 13.1939 0 8.5 0C3.80611 0 0 3.80611 0 8.5Z" fill="url(#paint0_radial)"/>
<path d="M2.5598 10.0023C3.35943 9.92988 3.92925 9.0232 3.8348 7.97802C3.74036 6.93283 3.01628 6.14265 2.2198 6.21505C1.42017 6.28746 0.850359 7.19414 0.944803 8.23932C1.03925 9.28451 1.76018 10.0747 2.5598 10.0023Z" fill="#ACADB2"/>
<path d="M1.86727 10.7641C1.38875 11.0159 1.26913 11.7274 1.59654 12.3539C1.92394 12.9804 2.57876 13.2858 3.05728 13.0339C3.5358 12.7821 3.65542 12.0706 3.32802 11.4441C3.00061 10.8176 2.34579 10.5122 1.86727 10.7641Z" fill="#ACADB2"/>
<path d="M3.76244 10.0084C3.47911 10.1563 3.4067 10.5782 3.60189 10.9465C3.79707 11.318 4.18429 11.4975 4.46448 11.3495C4.74781 11.2015 4.81707 10.7797 4.62503 10.4113C4.433 10.0399 4.04578 9.86041 3.76244 10.0084Z" fill="#ACADB2"/>
<path d="M16.3523 8.80608C16.2044 7.76719 15.4425 7.01478 14.6492 7.12497C13.8558 7.2383 13.3301 8.17016 13.4781 9.21219C13.6229 10.2511 14.3879 11.0035 15.1812 10.8902C15.9745 10.78 16.5003 9.84497 16.3523 8.80608Z" fill="#ACADB2"/>
<path d="M15.3009 6.3313C15.7668 6.05426 15.8519 5.33964 15.4898 4.72889C15.1309 4.1213 14.4604 3.85056 13.9944 4.12445C13.5285 4.39833 13.4435 5.11611 13.8055 5.7237C14.1676 6.33759 14.835 6.60834 15.3009 6.3313Z" fill="#ACADB2"/>
<path d="M13.5568 6.23681C13.3427 5.87792 12.9492 5.71737 12.6753 5.88107C12.4014 6.04477 12.351 6.46663 12.5619 6.82551C12.776 7.1844 13.1695 7.34496 13.4434 7.18126C13.7205 7.0207 13.7708 6.5957 13.5568 6.23681Z" fill="#ACADB2"/>
<path d="M9.79465 7.62496C7.62873 5.86829 6.78502 3.19552 7.90576 1.65292C9.02965 0.110331 11.693 0.283479 13.8589 2.037C16.0248 3.79366 16.8685 6.46959 15.7447 8.00903C14.6239 9.55478 11.9606 9.38163 9.79465 7.62496Z" fill="url(#paint1_radial)"/>
<path opacity="0.4" d="M0.98679 10.3764C1.27327 9.43506 2.73086 9.82544 4.24512 11.2484C5.75623 12.6682 6.75104 14.5823 6.46456 15.5236C6.17807 16.4617 4.72049 16.0745 3.20623 14.6547C1.69512 13.2317 0.703457 11.3177 0.98679 10.3764Z" fill="url(#paint2_radial)"/>
<defs>
<radialGradient id="paint0_radial" cx="0" cy="0" r="1" gradientUnits="userSpaceOnUse" gradientTransform="translate(10.4439 3.16924) rotate(180) scale(16.1368)">
<stop stop-color="#F8F8F8"/>
<stop offset="0.1559" stop-color="#EDE9F1"/>
<stop offset="1" stop-color="#9B9DA2"/>
</radialGradient>
<radialGradient id="paint1_radial" cx="0" cy="0" r="1" gradientUnits="userSpaceOnUse" gradientTransform="translate(11.8286 4.83008) rotate(126.034) scale(3.45546 5.04087)">
<stop stop-color="white"/>
<stop offset="1" stop-color="white" stop-opacity="0"/>
</radialGradient>
<radialGradient id="paint2_radial" cx="0" cy="0" r="1" gradientUnits="userSpaceOnUse" gradientTransform="translate(3.72698 12.9508) rotate(-136.79) scale(3.75779 1.59608)">
<stop stop-color="white"/>
<stop offset="1" stop-color="white" stop-opacity="0"/>
</radialGradient>
</defs>
</svg>
