<svg width="21" height="22" viewBox="0 0 21 22" fill="none" xmlns="http://www.w3.org/2000/svg">
<path d="M16.4948 5.68359C16.2779 2.50846 13.6361 0 10.4067 0C7.17737 0 4.53557 2.50846 4.31862 5.68359C1.91186 5.80336 0 7.7898 0 10.2259C0 12.7367 2.03615 14.7728 4.54687 14.7728H16.2666C18.7773 14.7728 20.8135 12.7367 20.8135 10.2259C20.8157 7.79206 18.9016 5.80336 16.4948 5.68359Z" fill="url(#paint0_radial)"/>
<path d="M10.407 6.25043C8.69404 4.86061 8.02738 2.74762 8.91325 1.52729C9.80138 0.306955 11.9098 0.444809 13.6228 1.83237C15.3336 3.21994 16.0025 5.33744 15.1144 6.55551C14.2262 7.77585 12.12 7.63799 10.407 6.25043Z" fill="url(#paint1_radial)"/>
<path opacity="0.4" d="M16.5265 10.3545C15.1819 9.26303 14.6554 7.59976 15.3537 6.64157C16.052 5.68112 17.7085 5.7896 19.0553 6.88112C20.4 7.97264 20.9243 9.6359 20.2282 10.5941C19.5299 11.5545 17.8734 11.4461 16.5265 10.3545Z" fill="url(#paint2_radial)"/>
<path opacity="0.2" d="M3.25012 10.5085C2.25803 8.96045 1.10324 8.21469 0.671603 8.84293C0.242226 9.47118 0.696461 11.2361 1.68855 12.7842C2.68289 14.3322 3.83543 15.0779 4.26706 14.4497C4.6987 13.8214 4.24447 12.0565 3.25012 10.5085Z" fill="url(#paint3_radial)"/>
<path d="M5.32834 17.5684C5.07072 18.0136 4.50349 18.165 4.05829 17.9074C3.61309 17.652 3.46168 17.0825 3.71931 16.6373C3.97693 16.1922 5.56337 15.3018 5.56337 15.3018C5.56337 15.3018 5.58371 17.1232 5.32834 17.5684Z" fill="url(#paint4_radial)"/>
<path d="M3.74634 17.4142C3.60171 17.0391 3.68985 16.6414 3.94295 16.5306C4.19606 16.4176 4.51696 16.6323 4.65933 17.0097C4.80397 17.3871 4.71583 17.7826 4.46498 17.8933C4.21188 18.0041 3.89098 17.7894 3.74634 17.4142Z" fill="url(#paint5_radial)"/>
<path d="M9.21311 17.5679C8.95548 18.0131 8.38825 18.1645 7.94306 17.9069C7.49786 17.6515 7.34645 17.0821 7.60407 16.6369C7.8617 16.1917 9.44814 15.3013 9.44814 15.3013C9.44814 15.3013 9.47073 17.1227 9.21311 17.5679Z" fill="url(#paint6_radial)"/>
<path d="M7.63111 17.4142C7.48648 17.0391 7.57461 16.6414 7.82772 16.5306C8.08083 16.4176 8.40173 16.6323 8.5441 17.0097C8.68873 17.3871 8.6006 17.7826 8.34749 17.8933C8.09665 18.0041 7.77574 17.7894 7.63111 17.4142Z" fill="url(#paint7_radial)"/>
<path d="M13.0998 17.5679C12.8422 18.0131 12.275 18.1645 11.8298 17.9069C11.3846 17.6515 11.2332 17.0821 11.4908 16.6369C11.7484 16.1917 13.3349 15.3013 13.3349 15.3013C13.3349 15.3013 13.3552 17.1227 13.0998 17.5679Z" fill="url(#paint8_radial)"/>
<path d="M11.5159 17.4142C11.3712 17.0391 11.4594 16.6414 11.7125 16.5306C11.9656 16.4176 12.2865 16.6323 12.4289 17.0097C12.5735 17.3871 12.4854 17.7826 12.2345 17.8933C11.9814 18.0041 11.6605 17.7894 11.5159 17.4142Z" fill="url(#paint9_radial)"/>
<path d="M16.9846 17.5679C16.727 18.0131 16.1597 18.1645 15.7145 17.9069C15.2693 17.6515 15.1179 17.0821 15.3756 16.6369C15.6332 16.1917 17.2196 15.3013 17.2196 15.3013C17.2196 15.3013 17.24 17.1227 16.9846 17.5679Z" fill="url(#paint10_radial)"/>
<path d="M15.4026 17.4142C15.258 17.0391 15.3461 16.6414 15.5992 16.5306C15.8523 16.4176 16.1732 16.6323 16.3156 17.0097C16.4602 17.3871 16.3721 17.7826 16.119 17.8933C15.8681 18.0041 15.545 17.7894 15.4026 17.4142Z" fill="url(#paint11_radial)"/>
<path d="M7.27268 20.834C7.01505 21.277 6.44782 21.4306 6.00263 21.173C5.55743 20.9177 5.40602 20.3482 5.66364 19.903C5.91901 19.4578 7.50771 18.5674 7.50771 18.5674C7.50771 18.5674 7.52804 20.3888 7.27268 20.834Z" fill="url(#paint12_radial)"/>
<path d="M5.68873 20.6779C5.5441 20.3028 5.63223 19.905 5.88534 19.7943C6.13618 19.6813 6.45934 19.896 6.60172 20.2734C6.74635 20.6485 6.65821 21.0463 6.40737 21.157C6.15426 21.27 5.83336 21.0553 5.68873 20.6779Z" fill="url(#paint13_radial)"/>
<path d="M11.1574 20.834C10.8998 21.277 10.3326 21.4306 9.88739 21.173C9.4422 20.9177 9.29078 20.3482 9.54841 19.903C9.80604 19.4578 11.3925 18.5674 11.3925 18.5674C11.3925 18.5674 11.4128 20.3888 11.1574 20.834Z" fill="url(#paint14_radial)"/>
<path d="M9.57545 20.6779C9.43081 20.3028 9.51895 19.905 9.77205 19.7943C10.0252 19.6813 10.3461 19.896 10.4884 20.2734C10.6331 20.6485 10.5449 21.0463 10.2941 21.157C10.041 21.27 9.71782 21.0553 9.57545 20.6779Z" fill="url(#paint15_radial)"/>
<path d="M15.0422 20.834C14.7846 21.277 14.2174 21.4306 13.7722 21.173C13.327 20.9177 13.1756 20.3482 13.4332 19.903C13.6908 19.4578 15.2772 18.5674 15.2772 18.5674C15.2772 18.5674 15.2998 20.3888 15.0422 20.834Z" fill="url(#paint16_radial)"/>
<path d="M13.4602 20.6779C13.3156 20.3028 13.4037 19.905 13.6568 19.7943C13.9099 19.6813 14.2308 19.896 14.3732 20.2734C14.5178 20.6485 14.4297 21.0463 14.1766 21.157C13.9257 21.27 13.6048 21.0553 13.4602 20.6779Z" fill="url(#paint17_radial)"/>
<defs>
<radialGradient id="paint0_radial" cx="0" cy="0" r="1" gradientUnits="userSpaceOnUse" gradientTransform="translate(13.0317 3.11457) rotate(180) scale(15.8769 11.5981)">
<stop stop-color="white"/>
<stop offset="0.198" stop-color="#D5F3FF"/>
<stop offset="1" stop-color="#85BCF1"/>
</radialGradient>
<radialGradient id="paint1_radial" cx="0" cy="0" r="1" gradientUnits="userSpaceOnUse" gradientTransform="translate(12.0151 4.0396) rotate(126.034) scale(2.73252 3.98623)">
<stop stop-color="white"/>
<stop offset="1" stop-color="white" stop-opacity="0"/>
</radialGradient>
<radialGradient id="paint2_radial" cx="0" cy="0" r="1" gradientUnits="userSpaceOnUse" gradientTransform="translate(17.7907 8.61807) rotate(126.034) scale(2.14755 3.13287)">
<stop stop-color="white"/>
<stop offset="1" stop-color="white" stop-opacity="0"/>
</radialGradient>
<radialGradient id="paint3_radial" cx="0" cy="0" r="1" gradientUnits="userSpaceOnUse" gradientTransform="translate(2.47134 11.6442) rotate(-25.7092) scale(1.10075 3.20439)">
<stop stop-color="white"/>
<stop offset="1" stop-color="white" stop-opacity="0"/>
</radialGradient>
<radialGradient id="paint4_radial" cx="0" cy="0" r="1" gradientUnits="userSpaceOnUse" gradientTransform="translate(4.08444 17.3571) rotate(30.0007) scale(2.23517)">
<stop stop-color="#D0F2FF"/>
<stop offset="0.198" stop-color="#D5F3FF"/>
<stop offset="1" stop-color="#85BCF1"/>
</radialGradient>
<radialGradient id="paint5_radial" cx="0" cy="0" r="1" gradientUnits="userSpaceOnUse" gradientTransform="translate(4.20239 17.211) rotate(156.037) scale(0.499439 0.728562)">
<stop stop-color="white"/>
<stop offset="1" stop-color="white" stop-opacity="0"/>
</radialGradient>
<radialGradient id="paint6_radial" cx="0" cy="0" r="1" gradientUnits="userSpaceOnUse" gradientTransform="translate(7.96982 17.3567) rotate(30.0007) scale(2.23517)">
<stop stop-color="#D0F2FF"/>
<stop offset="0.198" stop-color="#D5F3FF"/>
<stop offset="1" stop-color="#85BCF1"/>
</radialGradient>
<radialGradient id="paint7_radial" cx="0" cy="0" r="1" gradientUnits="userSpaceOnUse" gradientTransform="translate(8.08778 17.2109) rotate(156.037) scale(0.49944 0.728562)">
<stop stop-color="white"/>
<stop offset="1" stop-color="white" stop-opacity="0"/>
</radialGradient>
<radialGradient id="paint8_radial" cx="0" cy="0" r="1" gradientUnits="userSpaceOnUse" gradientTransform="translate(11.855 17.3567) rotate(30.0007) scale(2.23526)">
<stop stop-color="#D0F2FF"/>
<stop offset="0.198" stop-color="#D5F3FF"/>
<stop offset="1" stop-color="#85BCF1"/>
</radialGradient>
<radialGradient id="paint9_radial" cx="0" cy="0" r="1" gradientUnits="userSpaceOnUse" gradientTransform="translate(11.9732 17.211) rotate(156.037) scale(0.49944 0.728562)">
<stop stop-color="white"/>
<stop offset="1" stop-color="white" stop-opacity="0"/>
</radialGradient>
<radialGradient id="paint10_radial" cx="0" cy="0" r="1" gradientUnits="userSpaceOnUse" gradientTransform="translate(15.7404 17.3567) rotate(30.0008) scale(2.23517)">
<stop stop-color="#D0F2FF"/>
<stop offset="0.198" stop-color="#D5F3FF"/>
<stop offset="1" stop-color="#85BCF1"/>
</radialGradient>
<radialGradient id="paint11_radial" cx="0" cy="0" r="1" gradientUnits="userSpaceOnUse" gradientTransform="translate(15.8583 17.2109) rotate(156.037) scale(0.499438 0.728562)">
<stop stop-color="white"/>
<stop offset="1" stop-color="white" stop-opacity="0"/>
</radialGradient>
<radialGradient id="paint12_radial" cx="0" cy="0" r="1" gradientUnits="userSpaceOnUse" gradientTransform="translate(6.028 20.6217) rotate(30.0007) scale(2.23517)">
<stop stop-color="#D0F2FF"/>
<stop offset="0.198" stop-color="#D5F3FF"/>
<stop offset="1" stop-color="#85BCF1"/>
</radialGradient>
<radialGradient id="paint13_radial" cx="0" cy="0" r="1" gradientUnits="userSpaceOnUse" gradientTransform="translate(6.14618 20.4759) rotate(156.037) scale(0.499439 0.728562)">
<stop stop-color="white"/>
<stop offset="1" stop-color="white" stop-opacity="0"/>
</radialGradient>
<radialGradient id="paint14_radial" cx="0" cy="0" r="1" gradientUnits="userSpaceOnUse" gradientTransform="translate(9.91341 20.6217) rotate(30.0007) scale(2.2352)">
<stop stop-color="#D0F2FF"/>
<stop offset="0.198" stop-color="#D5F3FF"/>
<stop offset="1" stop-color="#85BCF1"/>
</radialGradient>
<radialGradient id="paint15_radial" cx="0" cy="0" r="1" gradientUnits="userSpaceOnUse" gradientTransform="translate(10.0314 20.4759) rotate(156.037) scale(0.499472 0.72861)">
<stop stop-color="white"/>
<stop offset="1" stop-color="white" stop-opacity="0"/>
</radialGradient>
<radialGradient id="paint16_radial" cx="0" cy="0" r="1" gradientUnits="userSpaceOnUse" gradientTransform="translate(13.7988 20.6217) rotate(30.0007) scale(2.23517)">
<stop stop-color="#D0F2FF"/>
<stop offset="0.198" stop-color="#D5F3FF"/>
<stop offset="1" stop-color="#85BCF1"/>
</radialGradient>
<radialGradient id="paint17_radial" cx="0" cy="0" r="1" gradientUnits="userSpaceOnUse" gradientTransform="translate(13.9168 20.4759) rotate(156.037) scale(0.499471 0.728609)">
<stop stop-color="white"/>
<stop offset="1" stop-color="white" stop-opacity="0"/>
</radialGradient>
</defs>
</svg>
