<svg width="30" height="30" viewBox="0 0 30 30" fill="none" xmlns="http://www.w3.org/2000/svg">
<path d="M15 0C20.2822 0 23.2779 3.37286 23.7129 7.4443H23.8458C27.2443 7.4443 30.0001 10.095 30.0001 13.365C30.0001 16.635 27.2443 19.2858 23.8458 19.2858L22.3393 19.2836V19.2858H22.275L20.2243 23.0165C20.0846 23.2602 19.8548 23.4394 19.5843 23.5153C19.3138 23.5913 19.0243 23.5579 18.7782 23.4225C18.532 23.2871 18.3489 23.0604 18.2683 22.7912C18.1877 22.5221 18.216 22.2321 18.3472 21.9836L19.8322 19.2836H15.9365V19.2858H15.8486L13.7957 23.0165C13.6561 23.2602 13.4262 23.4394 13.1557 23.5153C12.8852 23.5913 12.5958 23.5579 12.3496 23.4225C12.1035 23.2871 11.9204 23.0604 11.8397 22.7912C11.7591 22.5221 11.7874 22.2321 11.9186 21.9836L13.4036 19.2836H9.49716V19.2858H9.42002L7.36716 23.0165C7.22748 23.2602 6.99764 23.4394 6.72715 23.5153C6.45667 23.5913 6.16717 23.5579 5.92102 23.4225C5.67488 23.2871 5.49178 23.0604 5.41116 22.7912C5.33054 22.5221 5.35886 22.2321 5.49001 21.9836L6.97501 19.2836L6.1543 19.2858C2.75572 19.2858 0 16.635 0 13.365C0 10.215 2.55429 7.64144 5.7793 7.45501L6.28716 7.4443C6.72644 3.34501 9.71788 0 15 0ZM8.80716 17.1429H23.9593C26.1151 17.1429 27.8572 15.4736 27.8572 13.4143C27.8572 11.3572 26.1129 9.68788 23.9615 9.68788H22.7829C22.1615 9.68788 21.615 9.22073 21.615 8.62502C21.615 4.81715 18.5358 2.14286 15 2.14286C11.4643 2.14286 8.38502 4.8643 8.38502 8.62502C8.38502 9.22073 7.84073 9.68788 7.21716 9.68788H6.03858C3.88715 9.68788 2.14286 11.3572 2.14286 13.4165C2.14286 15.4715 3.88715 17.1429 6.03858 17.1429H8.76645C8.78073 17.1427 8.79502 17.1427 8.8093 17.1429H8.80716Z" fill="white"/>
<path d="M10.1746 24.2484C10.4211 24.3894 10.6016 24.6226 10.6764 24.8966C10.7511 25.1707 10.714 25.4632 10.5731 25.7099L8.43026 29.4599C8.28575 29.6994 8.05326 29.873 7.7825 29.9434C7.51174 30.0138 7.22417 29.9755 6.98126 29.8367C6.73835 29.6979 6.55937 29.4696 6.48257 29.2006C6.40577 28.9315 6.43724 28.6432 6.57026 28.397L8.71312 24.647C8.85412 24.4004 9.08727 24.2199 9.36132 24.1452C9.63537 24.0704 9.92788 24.1076 10.1746 24.2484Z" fill="white"/>
<path d="M17.0018 25.7102C17.1349 25.4641 17.1663 25.1757 17.0895 24.9067C17.0127 24.6377 16.8337 24.4094 16.5908 24.2706C16.3479 24.1318 16.0604 24.0935 15.7896 24.1639C15.5188 24.2343 15.2863 24.4078 15.1418 24.6474L12.999 28.3974C12.866 28.6435 12.8345 28.9319 12.9113 29.2009C12.9881 29.47 13.1671 29.6983 13.41 29.8371C13.6529 29.9759 13.9404 30.0142 14.2112 29.9437C14.482 29.8733 14.7145 29.6998 14.859 29.4602L17.0018 25.7102Z" fill="white"/>
</svg>
