<svg width="21" height="21" viewBox="0 0 21 21" fill="none" xmlns="http://www.w3.org/2000/svg">
<path d="M10.5 0C14.1975 0 16.2945 2.361 16.599 5.211H16.692C19.071 5.211 21 7.0665 21 9.3555C21 11.6445 19.071 13.5 16.692 13.5L15.6375 13.4985V13.5H15.5925L14.157 16.1115C14.0592 16.2821 13.8983 16.4075 13.709 16.4607C13.5197 16.5139 13.317 16.4905 13.1447 16.3957C12.9724 16.3009 12.8442 16.1422 12.7878 15.9538C12.7314 15.7654 12.7512 15.5624 12.843 15.3885L13.8825 13.4985H11.1555V13.5H11.094L9.657 16.1115C9.55922 16.2821 9.39834 16.4075 9.209 16.4607C9.01966 16.5139 8.81701 16.4905 8.64471 16.3957C8.47241 16.3009 8.34423 16.1422 8.2878 15.9538C8.23137 15.7654 8.25119 15.5624 8.343 15.3885L9.3825 13.4985H6.648V13.5H6.594L5.157 16.1115C5.05922 16.2821 4.89834 16.4075 4.709 16.4607C4.51966 16.5139 4.31701 16.4905 4.14471 16.3957C3.97241 16.3009 3.84423 16.1422 3.7878 15.9538C3.73137 15.7654 3.75119 15.5624 3.843 15.3885L4.8825 13.4985L4.308 13.5C1.929 13.5 0 11.6445 0 9.3555C0 7.1505 1.788 5.349 4.0455 5.2185L4.401 5.211C4.7085 2.3415 6.8025 0 10.5 0ZM6.165 12H16.7715C18.2805 12 19.5 10.8315 19.5 9.39C19.5 7.95 18.279 6.7815 16.773 6.7815H15.948C15.513 6.7815 15.1305 6.4545 15.1305 6.0375C15.1305 3.372 12.975 1.5 10.5 1.5C8.025 1.5 5.8695 3.405 5.8695 6.0375C5.8695 6.4545 5.4885 6.7815 5.052 6.7815H4.227C2.721 6.7815 1.5 7.95 1.5 9.3915C1.5 10.83 2.721 12 4.227 12H6.1365C6.1465 11.9998 6.1565 11.9998 6.1665 12H6.165Z" fill="#7FB1BC"/>
<path d="M7.12199 16.9737C7.2946 17.0724 7.42095 17.2356 7.47327 17.4275C7.52559 17.6193 7.49959 17.824 7.40099 17.9967L5.90099 20.6217C5.79983 20.7894 5.63709 20.9109 5.44755 20.9602C5.25802 21.0095 5.05672 20.9827 4.88669 20.8855C4.71665 20.7883 4.59136 20.6285 4.5376 20.4402C4.48384 20.2519 4.50587 20.05 4.59899 19.8777L6.09898 17.2527C6.19769 17.0801 6.36089 16.9537 6.55273 16.9014C6.74456 16.8491 6.94932 16.8751 7.12199 16.9737Z" fill="#7FB1BC"/>
<path d="M11.901 17.9972C11.9941 17.8249 12.0161 17.6231 11.9624 17.4347C11.9086 17.2464 11.7833 17.0866 11.6133 16.9894C11.4432 16.8923 11.242 16.8655 11.0524 16.9148C10.8629 16.9641 10.7001 17.0855 10.599 17.2532L9.09899 19.8782C9.00587 20.0505 8.98384 20.2524 9.0376 20.4407C9.09136 20.629 9.21665 20.7888 9.38669 20.886C9.55672 20.9832 9.75802 21.01 9.94755 20.9607C10.1371 20.9114 10.2998 20.7899 10.401 20.6222L11.901 17.9972Z" fill="#7FB1BC"/>
</svg>
