<svg width="35" height="33" viewBox="0 0 35 33" fill="none" xmlns="http://www.w3.org/2000/svg">
<path d="M15.2738 23.9336L19.0603 19.6479C19.2385 19.4466 19.486 19.3197 19.7535 19.2923C20.0209 19.265 20.2889 19.3392 20.5042 19.5003C20.7195 19.6614 20.8664 19.8975 20.9157 20.1618C20.965 20.4262 20.9131 20.6993 20.7703 20.9272L20.6546 21.0815L18.4753 23.5779H22.4996C22.6865 23.5777 22.8702 23.6264 23.0325 23.7191C23.1948 23.8119 23.33 23.9455 23.4247 24.1067C23.5193 24.2679 23.5702 24.451 23.5722 24.6379C23.5742 24.8249 23.5272 25.009 23.436 25.1722L23.3374 25.3158L18.0981 31.7508C17.9305 31.9566 17.6925 32.0928 17.4302 32.1332C17.1679 32.1735 16.8999 32.1151 16.6783 31.9691C16.4566 31.8232 16.2969 31.6002 16.2303 31.3433C16.1636 31.0864 16.1947 30.8139 16.3174 30.5786L16.4246 30.4158L20.2753 25.7208H16.071C15.8789 25.7211 15.6903 25.6698 15.5249 25.5723C15.3594 25.4747 15.2232 25.3345 15.1306 25.1662C15.0379 24.998 14.9922 24.808 14.9982 24.616C15.0041 24.424 15.0616 24.2372 15.1646 24.075L15.2738 23.9336L19.0603 19.6479L15.2738 23.9336ZM19.2853 6.42858C24.5674 6.42858 27.5632 9.80145 27.9982 13.8729H28.131C31.5296 13.8729 34.2853 16.5236 34.2853 19.7936C34.2853 23.0636 31.5296 25.7143 28.131 25.7143H25.4396C25.6172 25.3859 25.712 25.019 25.7158 24.6456C25.7195 24.2721 25.632 23.9034 25.461 23.5715H28.2467C30.3982 23.5715 32.1424 21.9022 32.1424 19.8429C32.1424 17.7857 30.3982 16.1165 28.2467 16.1165H27.0682C26.4467 16.1165 25.9003 15.6493 25.9003 15.0536C25.9003 11.2457 22.821 8.57145 19.2853 8.57145C15.7496 8.57145 12.6703 11.2929 12.6703 15.0536C12.6703 15.6493 12.126 16.1165 11.5024 16.1165H10.3238C8.1724 16.1165 6.42811 17.7857 6.42811 19.845C6.42811 21.9 8.1724 23.5715 10.3238 23.5715H13.1096C12.9385 23.9034 12.8511 24.2721 12.8548 24.6456C12.8585 25.019 12.9533 25.3859 13.131 25.7143H10.4395C7.04097 25.7143 4.28525 23.0636 4.28525 19.7936C4.28525 16.5236 7.04097 13.8729 10.4395 13.8729H10.5724C11.0117 9.77359 14.0031 6.42858 19.2853 6.42858ZM13.6967 7.46906e-08C16.8167 7.46906e-08 19.5381 1.77429 20.8817 4.38215C19.9688 4.26895 19.0465 4.25315 18.1303 4.33501C17.601 3.65373 16.9232 3.10217 16.1486 2.7223C15.374 2.34243 14.523 2.14425 13.6603 2.14286C10.8831 2.14286 8.5174 4.17001 8.04597 6.91073L7.96669 7.36073C7.88077 7.85873 7.62162 8.31035 7.235 8.6358C6.84838 8.96125 6.35918 9.13958 5.85382 9.1393H5.30097C3.55668 9.1393 2.14239 10.5707 2.14239 12.3365C2.14239 13.5579 2.81739 14.6186 3.80953 15.1565C3.35096 15.7393 2.97382 16.3907 2.69525 17.0893C1.67441 16.4674 0.878539 15.536 0.423332 14.4307C-0.0318758 13.3254 -0.122694 12.1037 0.164079 10.9432C0.450852 9.78276 1.10027 8.74399 2.01792 7.97793C2.93558 7.21187 4.07364 6.75845 5.26668 6.68358L5.74025 6.67287C6.07069 4.80286 7.04932 3.10902 8.50433 1.88874C9.95934 0.668456 11.7977 -0.000258035 13.6967 7.46906e-08Z" fill="white"/>
</svg>
