<svg width="24" height="25" viewBox="0 0 24 25" fill="none" xmlns="http://www.w3.org/2000/svg">
<path d="M11.9947 19.8699C12.2893 19.8699 12.5737 19.9781 12.7938 20.1738C13.014 20.3696 13.1546 20.6394 13.1891 20.932L13.1975 21.0727V22.824C13.1969 23.1305 13.0793 23.4252 12.8687 23.6479C12.6582 23.8706 12.3705 24.0045 12.0646 24.0223C11.7586 24.0402 11.4574 23.9405 11.2224 23.7437C10.9875 23.547 10.8365 23.2679 10.8003 22.9636L10.7918 22.824V21.0727C10.7918 20.7537 10.9186 20.4477 11.1441 20.2222C11.3697 19.9966 11.6757 19.8699 11.9947 19.8699ZM19.2551 17.5459L20.494 18.7849C20.713 19.0119 20.834 19.3158 20.831 19.6312C20.8281 19.9466 20.7014 20.2482 20.4782 20.4711C20.255 20.6939 19.9532 20.8202 19.6378 20.8227C19.3224 20.8252 19.0187 20.7038 18.792 20.4845L17.5543 19.2468C17.3351 19.0199 17.2139 18.7161 17.2166 18.4007C17.2194 18.0853 17.3459 17.7836 17.5689 17.5606C17.7919 17.3376 18.0936 17.2111 18.409 17.2083C18.7244 17.2056 19.0282 17.3268 19.2551 17.5459ZM6.43272 17.5459C6.65822 17.7715 6.7849 18.0774 6.7849 18.3964C6.7849 18.7153 6.65822 19.0212 6.43272 19.2468L5.19619 20.4857C4.97049 20.7114 4.66437 20.8382 4.34518 20.8382C4.02598 20.8382 3.71986 20.7114 3.49416 20.4857C3.26846 20.26 3.14166 19.9539 3.14166 19.6347C3.14166 19.3155 3.26846 19.0094 3.49416 18.7837L4.7331 17.5447C4.95866 17.3192 5.26456 17.1926 5.58351 17.1926C5.90246 17.1926 6.20836 17.3192 6.43392 17.5447L6.43272 17.5459ZM12.0103 5.3635C13.7729 5.3635 15.4633 6.06367 16.7096 7.30999C17.9559 8.55631 18.6561 10.2467 18.6561 12.0092C18.6561 13.7718 17.9559 15.4622 16.7096 16.7085C15.4633 17.9548 13.7729 18.655 12.0103 18.655C10.2478 18.655 8.5574 17.9548 7.31108 16.7085C6.06476 15.4622 5.36459 13.7718 5.36459 12.0092C5.36459 10.2467 6.06476 8.55631 7.31108 7.30999C8.5574 6.06367 10.2478 5.3635 12.0103 5.3635ZM11.0962 8.4043C10.8782 8.40431 10.6675 8.48326 10.5032 8.62655C10.3389 8.76984 10.2321 8.96777 10.2024 9.18375L10.194 9.30644V12.9198L10.2024 13.0425C10.2293 13.2377 10.3193 13.4188 10.4588 13.558C10.5982 13.6972 10.7794 13.787 10.9747 13.8135L11.0962 13.8219H13.5019L13.6245 13.8135C13.8196 13.7867 14.0005 13.6969 14.1397 13.5577C14.2789 13.4185 14.3688 13.2375 14.3956 13.0425L14.404 12.9198L14.3956 12.7971C14.3688 12.6021 14.2789 12.4211 14.1397 12.2819C14.0005 12.1427 13.8196 12.0529 13.6245 12.0261L13.5019 12.0177H11.9983V9.30644L11.9911 9.18375C11.9614 8.96757 11.8544 8.76947 11.6898 8.62615C11.5253 8.48284 11.3144 8.40402 11.0962 8.4043ZM22.7963 10.8316C23.1028 10.832 23.3977 10.9494 23.6207 11.1598C23.8436 11.3703 23.9777 11.6579 23.9957 11.964C24.0137 12.2701 23.9141 12.5714 23.7173 12.8065C23.5206 13.0416 23.2414 13.1927 22.937 13.2289L22.7963 13.2373H21.0461C20.7395 13.237 20.4447 13.1196 20.2217 12.9092C19.9988 12.6987 19.8646 12.411 19.8467 12.105C19.8287 11.7989 19.9283 11.4976 20.1251 11.2625C20.3218 11.0274 20.601 10.8763 20.9054 10.8401L21.0461 10.8316H22.7975H22.7963ZM2.95288 10.798C3.25946 10.7983 3.55434 10.9157 3.77727 11.1262C4.00021 11.3366 4.13436 11.6243 4.15233 11.9303C4.17029 12.2364 4.07072 12.5377 3.87394 12.7728C3.67717 13.0079 3.39805 13.159 3.09361 13.1952L2.95288 13.2037H1.20033C0.893849 13.203 0.599173 13.0854 0.376472 12.8749C0.15377 12.6643 0.019842 12.3767 0.00203382 12.0707C-0.0157744 11.7647 0.0838811 11.4635 0.280651 11.2286C0.477421 10.9936 0.756463 10.8426 1.0608 10.8064L1.20033 10.798H2.95288ZM5.08192 3.44135L5.19619 3.54119L6.43392 4.78012C6.64965 4.99658 6.7749 5.28704 6.78423 5.5925C6.79355 5.89797 6.68626 6.19553 6.48414 6.42475C6.28202 6.65397 6.00023 6.79766 5.69601 6.82664C5.39178 6.85563 5.08792 6.76772 4.84616 6.58078L4.7331 6.47974L3.49416 5.24201C3.27843 5.02555 3.15319 4.73509 3.14386 4.42963C3.13453 4.12417 3.24182 3.82661 3.44394 3.59738C3.64606 3.36816 3.92785 3.22447 4.23208 3.19549C4.53631 3.16651 4.84016 3.25441 5.08192 3.44135ZM20.494 3.54119C20.7011 3.74831 20.8255 4.02388 20.8439 4.3162C20.8623 4.60853 20.7734 4.89751 20.5939 5.12895L20.494 5.24201L19.2551 6.48095C19.0386 6.69668 18.7482 6.82192 18.4427 6.83125C18.1372 6.84058 17.8397 6.73329 17.6105 6.53117C17.3812 6.32905 17.2375 6.04726 17.2086 5.74303C17.1796 5.4388 17.2675 5.13495 17.4544 4.89319L17.5543 4.77892L18.7932 3.53998C19.0188 3.31448 19.3247 3.18781 19.6436 3.18781C19.9626 3.18781 20.2684 3.31448 20.494 3.53998V3.54119ZM11.9983 0C12.2929 3.88647e-05 12.5773 0.108204 12.7974 0.303978C13.0176 0.499753 13.1583 0.769521 13.1927 1.06212L13.2011 1.20285V2.95299C13.2036 3.26144 13.0874 3.55904 12.8767 3.78429C12.6659 4.00954 12.3767 4.14522 12.0688 4.16328C11.7609 4.18135 11.4578 4.08043 11.2221 3.88138C10.9865 3.68232 10.8363 3.40035 10.8027 3.09373L10.7955 2.95299V1.20285C10.7955 0.883833 10.9222 0.577884 11.1478 0.352306C11.3733 0.126728 11.6793 0 11.9983 0Z" fill="#A3AAD2"/>
</svg>
