<svg width="35" height="35" viewBox="0 0 35 35" fill="none" xmlns="http://www.w3.org/2000/svg">
<path d="M19.2282 31.4048C19.6073 31.4048 19.9708 31.5554 20.2389 31.8235C20.5069 32.0915 20.6575 32.4551 20.6575 32.8341C20.6575 33.2132 20.5069 33.5767 20.2389 33.8448C19.9708 34.1128 19.6073 34.2634 19.2282 34.2634C18.8491 34.2634 18.4856 34.1128 18.2175 33.8448C17.9495 33.5767 17.7989 33.2132 17.7989 32.8341C17.7989 32.4551 17.9495 32.0915 18.2175 31.8235C18.4856 31.5554 18.8491 31.4048 19.2282 31.4048ZM14.2289 29.9777C14.4211 29.9702 14.6129 30.0017 14.7926 30.0701C14.9724 30.1385 15.1365 30.2425 15.2751 30.3759C15.4138 30.5092 15.5241 30.6692 15.5994 30.8462C15.6747 31.0232 15.7135 31.2136 15.7135 31.4059C15.7135 31.5983 15.6747 31.7886 15.5994 31.9656C15.5241 32.1426 15.4138 32.3026 15.2751 32.4359C15.1365 32.5693 14.9724 32.6733 14.7926 32.7417C14.6129 32.8101 14.4211 32.8416 14.2289 32.8341C13.8597 32.8198 13.5104 32.6631 13.2542 32.3968C12.998 32.1305 12.855 31.7754 12.855 31.4059C12.855 31.0364 12.998 30.6813 13.2542 30.415C13.5104 30.1487 13.8597 29.992 14.2289 29.9777ZM24.2275 29.9777C24.4197 29.9702 24.6115 30.0017 24.7912 30.0701C24.971 30.1385 25.1351 30.2425 25.2737 30.3759C25.4124 30.5092 25.5226 30.6692 25.598 30.8462C25.6733 31.0232 25.7121 31.2136 25.7121 31.4059C25.7121 31.5983 25.6733 31.7886 25.598 31.9656C25.5226 32.1426 25.4124 32.3026 25.2737 32.4359C25.1351 32.5693 24.971 32.6733 24.7912 32.7417C24.6115 32.8101 24.4197 32.8416 24.2275 32.8341C23.8583 32.8198 23.509 32.6631 23.2528 32.3968C22.9966 32.1305 22.8535 31.7754 22.8535 31.4059C22.8535 31.0364 22.9966 30.6813 23.2528 30.415C23.509 30.1487 23.8583 29.992 24.2275 29.9777ZM19.2282 8.54908C24.5104 8.54908 27.5061 11.9198 27.9411 15.9934H28.0739C31.4725 15.9934 34.2282 18.6441 34.2282 21.9141C34.2282 25.1841 31.4725 27.8348 28.0739 27.8348H10.3825C6.9839 27.8348 4.22818 25.1841 4.22818 21.9141C4.22818 18.6441 6.9839 15.9934 10.3825 15.9934H10.5153C10.9546 11.8919 13.9461 8.54908 19.2282 8.54908ZM19.2282 10.6919C15.6925 10.6919 12.6132 13.4134 12.6132 17.1741C12.6132 17.7698 12.0689 18.237 11.4453 18.237H10.2668C8.11533 18.2348 6.37104 19.9062 6.37104 21.9634C6.37104 24.0205 8.11533 25.692 10.2668 25.692H28.1897C30.3411 25.692 32.0854 24.0205 32.0854 21.9634C32.0854 19.9062 30.3411 18.2348 28.1897 18.2348H27.0111C26.3897 18.237 25.8432 17.7698 25.8432 17.1741C25.8432 13.3662 22.7639 10.6919 19.2282 10.6919ZM3.80604 14.3348C3.88859 14.5721 3.88511 14.8309 3.79619 15.066C3.70728 15.301 3.53858 15.4973 3.31961 15.6205L3.14175 15.6977L1.42532 16.2891C1.17201 16.3777 0.894671 16.3681 0.64814 16.2621C0.401608 16.156 0.20384 15.9614 0.0939483 15.7165C-0.0159432 15.4717 -0.0299552 15.1945 0.0546832 14.9399C0.139322 14.6852 0.316447 14.4716 0.551029 14.3412L0.726743 14.2641L2.44532 13.6727C2.71386 13.5805 3.00799 13.5987 3.26312 13.7233C3.51825 13.8478 3.71352 14.0685 3.80604 14.3369V14.3348ZM14.7711 5.33478C15.4846 5.68193 16.1125 6.13407 16.6439 6.66336C15.7739 6.84121 14.9596 7.11336 14.2096 7.46693C13.2418 6.8844 12.1021 6.65523 10.9843 6.81841C9.86655 6.98158 8.83988 7.52703 8.079 8.36193C7.31812 9.19683 6.87004 10.2696 6.81103 11.3976C6.75202 12.5257 7.08571 13.6394 7.75533 14.5491C7.04818 14.7591 6.3839 15.0655 5.77318 15.4491C4.94414 14.1584 4.56012 12.6319 4.67972 11.1026C4.79932 9.57323 5.41598 8.125 6.43559 6.97888C7.4552 5.83276 8.82177 5.05168 10.3268 4.75483C11.8318 4.45798 13.3926 4.66166 14.7711 5.33478ZM1.90746 5.69907L2.08532 5.76764L3.71818 6.56264C3.95889 6.67966 4.1471 6.88253 4.24575 7.13134C4.3444 7.38015 4.34635 7.65687 4.25123 7.90705C4.1561 8.15722 3.97078 8.36274 3.73174 8.48314C3.4927 8.60355 3.21726 8.63013 2.9596 8.55765L2.7796 8.48908L1.14674 7.69407C0.906028 7.57706 0.717826 7.37418 0.619175 7.12537C0.520525 6.87657 0.51857 6.59984 0.613697 6.34967C0.708823 6.09949 0.89414 5.89398 1.13318 5.77357C1.37222 5.65317 1.64767 5.62659 1.90532 5.69907H1.90746ZM17.0639 0.609774C17.2895 0.719853 17.4693 0.905656 17.5719 1.13476C17.6745 1.36387 17.6934 1.62173 17.6253 1.86335L17.5568 2.04335L16.7618 3.67621C16.6448 3.91692 16.4419 4.10513 16.1931 4.20378C15.9443 4.30243 15.6675 4.30438 15.4174 4.20926C15.1672 4.11413 14.9617 3.92881 14.8413 3.68977C14.7209 3.45074 14.6943 3.17529 14.7668 2.91764L14.8353 2.73549L15.6325 1.10263C15.7571 0.847633 15.9779 0.652515 16.2463 0.560111C16.5146 0.467707 16.8087 0.485569 17.0639 0.609774ZM8.94247 0.541202L9.02176 0.716917L9.61319 2.43549C9.70013 2.68847 9.68929 2.96482 9.58282 3.21021C9.47634 3.4556 9.28191 3.65229 9.03777 3.7616C8.79363 3.87092 8.51742 3.88495 8.26346 3.80095C8.00949 3.71694 7.79613 3.54097 7.66533 3.30764L7.58819 3.13192L6.99676 1.41549C6.91118 1.16311 6.92273 0.887896 7.02915 0.643573C7.13557 0.39925 7.32922 0.203355 7.5723 0.0941289C7.81538 -0.0150972 8.09045 -0.0298141 8.34379 0.0528509C8.59714 0.135516 8.81059 0.309629 8.94247 0.541202Z" fill="white"/>
</svg>
