<svg width="18" height="18" viewBox="0 0 18 18" fill="none" xmlns="http://www.w3.org/2000/svg">
<path d="M15.8985 14.3812L13.9453 14.5094L13.577 16.4323L11.6961 15.8869L10.6938 17.5674L9.11352 16.409L7.59615 17.6467L6.50766 16.0174L4.65698 16.6607L4.19082 14.7588L2.23293 14.7308L2.44503 12.7846L0.615337 12.0876L1.4824 10.3302L0 9.05058L1.41481 7.69638L0.459172 5.98555L2.25158 5.19773L1.94158 3.26315L3.8948 3.13496L4.26307 1.21203L6.14405 1.75977L7.1463 0.079248L8.7266 1.23534L10.244 0L11.3325 1.62691L13.1831 0.983607L13.6493 2.88556L15.6072 2.91586L15.3928 4.8621L17.2225 5.55668L16.3577 7.31412L17.8401 8.59607L16.4253 9.95028L17.3786 11.6588L15.5862 12.4489L15.8985 14.3812Z" fill="url(#paint0_linear)"/>
<path d="M2.3125 8.82186C2.3125 12.4696 5.27031 15.4297 8.91805 15.4297C12.5658 15.4297 15.5236 12.4719 15.5236 8.82186C15.5236 5.17412 12.5658 2.21631 8.91805 2.21631C5.27031 2.21631 2.3125 5.17412 2.3125 8.82186Z" fill="url(#paint1_radial)"/>
<path d="M9.92697 8.14406C8.24412 6.7782 7.58683 4.70144 8.45856 3.50106C9.33028 2.30069 11.4024 2.43588 13.0852 3.80174C14.7681 5.1676 15.4231 7.24669 14.5513 8.44474C13.6796 9.64278 11.6075 9.50759 9.92697 8.14406Z" fill="url(#paint2_radial)"/>
<path opacity="0.4" d="M3.0815 10.2839C3.30526 9.55433 4.43804 9.85501 5.61277 10.9598C6.78751 12.0646 7.56134 13.5517 7.33758 14.2836C7.11615 15.0131 5.98104 14.7124 4.80631 13.6076C3.63157 12.5005 2.85774 11.0134 3.0815 10.2839Z" fill="url(#paint3_radial)"/>
<defs>
<linearGradient id="paint0_linear" x1="17.0524" y1="-0.265224" x2="1.37577" y2="17.253" gradientUnits="userSpaceOnUse">
<stop stop-color="#FFBA24"/>
<stop offset="1" stop-color="#FF5500"/>
</linearGradient>
<radialGradient id="paint1_radial" cx="0" cy="0" r="1" gradientUnits="userSpaceOnUse" gradientTransform="translate(10.431 4.68034) rotate(180) scale(12.5414)">
<stop stop-color="#FFF4C3"/>
<stop offset="0.1559" stop-color="#FFE036"/>
<stop offset="1" stop-color="#FA761C"/>
</radialGradient>
<radialGradient id="paint2_radial" cx="0" cy="0" r="1" gradientUnits="userSpaceOnUse" gradientTransform="translate(11.5061 5.97124) rotate(126.034) scale(2.6856 3.91778)">
<stop stop-color="white"/>
<stop offset="1" stop-color="white" stop-opacity="0"/>
</radialGradient>
<radialGradient id="paint3_radial" cx="0" cy="0" r="1" gradientUnits="userSpaceOnUse" gradientTransform="translate(5.20946 12.2826) rotate(-136.79) scale(2.92035 1.24039)">
<stop stop-color="white"/>
<stop offset="1" stop-color="white" stop-opacity="0"/>
</radialGradient>
</defs>
</svg>
