<svg width="24" height="24" viewBox="0 0 24 24" fill="none" xmlns="http://www.w3.org/2000/svg">
<path d="M11.9825 20.404C12.1997 20.404 12.4096 20.4827 12.5734 20.6255C12.7371 20.7683 12.8436 20.9656 12.8732 21.1808L12.8815 21.3031V23.1012C12.8815 23.329 12.7949 23.5483 12.6394 23.7147C12.4839 23.8812 12.271 23.9824 12.0438 23.9979C11.8165 24.0134 11.5918 23.9421 11.4151 23.7984C11.2384 23.6546 11.1229 23.4491 11.0918 23.2235L11.0834 23.1012V21.3031C11.0834 21.0646 11.1781 20.8359 11.3467 20.6673C11.5154 20.4987 11.744 20.404 11.9825 20.404ZM19.2014 17.919L20.4721 19.1909C20.6309 19.3613 20.7173 19.5867 20.7132 19.8196C20.7091 20.0526 20.6148 20.2748 20.45 20.4395C20.2853 20.6042 20.0631 20.6986 19.8302 20.7027C19.5972 20.7068 19.3718 20.6204 19.2014 20.4615L17.9295 19.1909C17.8412 19.1086 17.7703 19.0093 17.7212 18.899C17.672 18.7887 17.6456 18.6697 17.6435 18.549C17.6414 18.4282 17.6636 18.3083 17.7088 18.1964C17.754 18.0844 17.8213 17.9827 17.9067 17.8974C17.9921 17.812 18.0938 17.7447 18.2057 17.6995C18.3176 17.6543 18.4376 17.632 18.5583 17.6342C18.679 17.6363 18.798 17.6627 18.9083 17.7119C19.0186 17.761 19.1179 17.8319 19.2002 17.9202L19.2014 17.919ZM6.03426 17.919C6.11781 18.0025 6.18408 18.1016 6.2293 18.2107C6.27452 18.3199 6.29779 18.4368 6.29779 18.5549C6.29779 18.673 6.27452 18.79 6.2293 18.8991C6.18408 19.0082 6.11781 19.1074 6.03426 19.1909L4.76358 20.4615C4.68127 20.5499 4.58201 20.6207 4.47173 20.6699C4.36144 20.719 4.24239 20.7454 4.12167 20.7476C4.00095 20.7497 3.88104 20.7275 3.76909 20.6823C3.65714 20.637 3.55545 20.5697 3.47008 20.4844C3.3847 20.399 3.3174 20.2973 3.27218 20.1854C3.22696 20.0734 3.20476 19.9535 3.20689 19.8328C3.20902 19.7121 3.23544 19.593 3.28458 19.4827C3.33372 19.3724 3.40457 19.2732 3.4929 19.1909L4.76358 17.9202C4.93215 17.7518 5.16067 17.6573 5.39892 17.6573C5.63717 17.6573 5.86568 17.7518 6.03426 17.9202V17.919ZM11.9873 5.37881C13.7438 5.37881 15.4285 6.07661 16.6705 7.31868C17.9126 8.56076 18.6104 10.2454 18.6104 12.0019C18.6104 13.7585 17.9126 15.4431 16.6705 16.6852C15.4285 17.9273 13.7438 18.6251 11.9873 18.6251C10.2307 18.6251 8.5461 17.9273 7.30402 16.6852C6.06195 15.4431 5.36415 13.7585 5.36415 12.0019C5.36415 10.2454 6.06195 8.56076 7.30402 7.31868C8.5461 6.07661 10.2307 5.37881 11.9873 5.37881ZM11.9873 7.17695C11.3536 7.17695 10.7262 7.30175 10.1408 7.54423C9.55544 7.78671 9.02354 8.14211 8.57549 8.59015C8.12745 9.03819 7.77205 9.5701 7.52957 10.1555C7.28709 10.7409 7.16229 11.3683 7.16229 12.0019C7.16229 12.6356 7.28709 13.263 7.52957 13.8484C7.77205 14.4338 8.12745 14.9657 8.57549 15.4137C9.02354 15.8618 9.55544 16.2172 10.1408 16.4596C10.7262 16.7021 11.3536 16.8269 11.9873 16.8269C13.2669 16.8269 14.4942 16.3186 15.3991 15.4137C16.3039 14.5089 16.8123 13.2816 16.8123 12.0019C16.8123 10.7223 16.3039 9.49501 15.3991 8.59015C14.4942 7.68529 13.2669 7.17695 11.9873 7.17695ZM11.0882 8.40447C11.3055 8.40448 11.5154 8.48316 11.6791 8.62596C11.8428 8.76876 11.9493 8.96602 11.9789 9.18126L11.9873 9.30354V12.0043H13.4857C13.7032 12.0044 13.9132 12.0832 14.077 12.2263C14.2407 12.3693 14.3471 12.5669 14.3764 12.7823L14.3836 12.9046C14.3836 13.1219 14.3049 13.3318 14.1621 13.4955C14.0193 13.6592 13.822 13.7657 13.6068 13.7953L13.4845 13.8037H11.087C10.8698 13.8033 10.66 13.7243 10.4965 13.5813C10.333 13.4383 10.2268 13.2409 10.1975 13.0257L10.1891 12.9046V9.30354C10.1891 9.06509 10.2839 8.83641 10.4525 8.6678C10.6211 8.4992 10.8498 8.40447 11.0882 8.40447ZM23.0758 11.1232C23.3034 11.1236 23.5225 11.2104 23.6887 11.366C23.855 11.5216 23.9559 11.7345 23.9713 11.9616C23.9867 12.1888 23.9153 12.4133 23.7715 12.5899C23.6278 12.7665 23.4224 12.882 23.1968 12.913L23.0758 12.9214H21.2776C21.0498 12.9213 20.8306 12.8348 20.6641 12.6793C20.4977 12.5238 20.3965 12.3109 20.3809 12.0836C20.3654 11.8563 20.4367 11.6316 20.5805 11.4549C20.7242 11.2782 20.9297 11.1627 21.1554 11.1316L21.2776 11.1232H23.0758ZM2.69692 11.0885C2.92472 11.0886 3.14399 11.1751 3.31044 11.3306C3.47689 11.4861 3.5781 11.699 3.59362 11.9263C3.60915 12.1535 3.53783 12.3782 3.39408 12.5549C3.25033 12.7316 3.04486 12.8472 2.8192 12.8782L2.69692 12.8866H0.898792C0.671 12.8865 0.451727 12.8 0.285279 12.6445C0.118831 12.489 0.0176186 12.2761 0.00209229 12.0488C-0.013434 11.8216 0.0578837 11.5969 0.201635 11.4202C0.345386 11.2435 0.550853 11.1279 0.776519 11.0969L0.898792 11.0885H2.69692ZM4.66288 3.45241L4.76358 3.53872L6.03426 4.80821C6.19554 4.96843 6.29013 5.1838 6.299 5.41096C6.30787 5.63812 6.23035 5.86021 6.08205 6.03252C5.93375 6.20482 5.72568 6.31455 5.49973 6.33962C5.27378 6.36468 5.04673 6.30321 4.86427 6.16759L4.76358 6.08009L3.4929 4.80941C3.33162 4.64918 3.23703 4.43381 3.22816 4.20665C3.21929 3.97949 3.29681 3.7574 3.44511 3.58509C3.59341 3.41279 3.80147 3.30306 4.02742 3.278C4.25337 3.25293 4.48043 3.3144 4.66288 3.45002V3.45241ZM20.4721 3.53872C20.6243 3.69095 20.7169 3.89277 20.733 4.10748C20.749 4.32218 20.6875 4.53553 20.5596 4.70871L20.4721 4.80941L19.2014 6.08128C19.0412 6.24256 18.8258 6.33716 18.5986 6.34602C18.3715 6.35489 18.1494 6.27737 17.9771 6.12908C17.8048 5.98078 17.695 5.77271 17.67 5.54676C17.6449 5.32081 17.7064 5.09375 17.842 4.9113L17.9295 4.80821L19.2002 3.53753C19.2837 3.45398 19.3828 3.3877 19.4919 3.34248C19.601 3.29727 19.718 3.27399 19.8361 3.27399C19.9542 3.27399 20.0712 3.29727 20.1803 3.34248C20.2894 3.3877 20.3886 3.45398 20.4721 3.53753V3.53872ZM11.9873 0C12.2045 9.16196e-06 12.4144 0.0786896 12.5782 0.221491C12.7419 0.364291 12.8484 0.561553 12.878 0.776793L12.8863 0.899066V2.6972C12.8863 2.92499 12.7997 3.14426 12.6442 3.31071C12.4887 3.47716 12.2758 3.57837 12.0486 3.5939C11.8213 3.60942 11.5966 3.53811 11.4199 3.39436C11.2432 3.2506 11.1277 3.04514 11.0966 2.81947L11.0882 2.6972V0.899066C11.0882 0.660619 11.1829 0.431938 11.3515 0.26333C11.5201 0.0947228 11.7488 0 11.9873 0Z" fill="#A3AAD2"/>
</svg>
