<svg width="19" height="23" viewBox="0 0 19 23" fill="none" xmlns="http://www.w3.org/2000/svg">
<path d="M10.984 13.4751L6.56467 6.29684C6.50055 6.20504 6.41585 6.13021 6.31762 6.07857C6.2194 6.02694 6.1105 6 6 6C5.8895 6 5.7806 6.02694 5.68238 6.07857C5.58415 6.13021 5.49945 6.20504 5.43533 6.29684L0.996 13.5091C0.379257 14.5238 0.0357105 15.6865 0 16.8799C0 18.503 0.632141 20.0597 1.75736 21.2075C2.88258 22.3552 4.4087 23 6 23C7.5913 23 9.11742 22.3552 10.2426 21.2075C11.3679 20.0597 12 18.503 12 16.8799C11.9617 15.6734 11.6112 14.4987 10.984 13.4751ZM6 21.64C4.76281 21.6384 3.57675 21.1363 2.70192 20.244C1.8271 19.3516 1.33492 18.1418 1.33333 16.8799C1.36877 15.9289 1.6488 15.0042 2.14533 14.1986L2.76867 13.1854L9.48467 20.0358C9.04847 20.5399 8.51223 20.9437 7.91147 21.2203C7.31071 21.497 6.65916 21.6403 6 21.6407V21.64Z" fill="#60B6D9"/>
<path d="M18.3227 4.8368L15.3764 0.192071C15.3337 0.132674 15.2772 0.0842528 15.2117 0.0508423C15.1463 0.0174317 15.0737 0 15 0C14.9263 0 14.8537 0.0174317 14.7883 0.0508423C14.7228 0.0842528 14.6663 0.132674 14.6236 0.192071L11.664 4.8588C11.2528 5.51541 11.0238 6.26774 11 7.03992C11 8.0902 11.4214 9.09746 12.1716 9.84012C12.9217 10.5828 13.9391 11 15 11C16.0609 11 17.0783 10.5828 17.8284 9.84012C18.5786 9.09746 19 8.0902 19 7.03992C18.9745 6.25926 18.7408 5.49918 18.3227 4.8368ZM15 10.12C14.1752 10.1189 13.3845 9.79409 12.8013 9.2167C12.2181 8.6393 11.8899 7.85648 11.8889 7.03992C11.9125 6.42461 12.0992 5.82627 12.4302 5.30497L12.8458 4.64936L17.3231 9.082C17.0323 9.40817 16.6748 9.66943 16.2743 9.84845C15.8738 10.0275 15.4394 10.1202 15 10.1204V10.12Z" fill="#60B6D9"/>
</svg>
