<svg width="23" height="22" viewBox="0 0 23 22" fill="none" xmlns="http://www.w3.org/2000/svg">
<path d="M7.1875 18.6875C7.56875 18.6875 7.93438 18.839 8.20397 19.1085C8.47355 19.3781 8.625 19.7438 8.625 20.125C8.625 20.5062 8.47355 20.8719 8.20397 21.1415C7.93438 21.4111 7.56875 21.5625 7.1875 21.5625C6.80625 21.5625 6.44062 21.4111 6.17103 21.1415C5.90145 20.8719 5.75 20.5062 5.75 20.125C5.75 19.7438 5.90145 19.3781 6.17103 19.1085C6.44062 18.839 6.80625 18.6875 7.1875 18.6875ZM19.4034 8.625C20.3565 8.625 21.2706 9.00363 21.9445 9.67758C22.6185 10.3515 22.9971 11.2656 22.9971 12.2188C22.9971 13.1719 22.6185 14.086 21.9445 14.7599C21.2706 15.4339 20.3565 15.8125 19.4034 15.8125L19.3286 15.8096L19.1647 15.8226L18.0981 15.8211C18.2591 16.2107 18.3482 16.6376 18.3482 17.0861C18.3536 17.5362 18.269 17.9827 18.0994 18.3996C17.9298 18.8165 17.6786 19.1953 17.3606 19.5138C17.0425 19.8322 16.664 20.0839 16.2474 20.254C15.8307 20.4242 15.3842 20.5093 14.9342 20.5045C13.4924 20.5045 12.4329 19.8663 11.8723 18.814C11.7442 18.5727 11.7126 18.2917 11.7837 18.0279C11.8548 17.7641 12.0235 17.5372 12.2555 17.393C12.4876 17.2487 12.7657 17.198 13.0337 17.251C13.3017 17.3039 13.5397 17.4567 13.6994 17.6784L13.8431 17.9127C14.0386 18.1916 14.3606 18.3482 14.9356 18.3482C15.1024 18.3531 15.2684 18.3236 15.4234 18.2618C15.5784 18.2 15.7191 18.1072 15.8368 17.9889C15.9545 17.8707 16.0467 17.7295 16.1078 17.5743C16.1689 17.419 16.1976 17.2529 16.192 17.0861C16.192 16.4536 15.6716 15.9146 14.9788 15.8413L14.6697 15.8226H1.07812C0.804966 15.8225 0.542022 15.7187 0.342424 15.5322C0.142826 15.3457 0.0214563 15.0904 0.00283778 14.8179C-0.0157807 14.5454 0.0697407 14.276 0.242122 14.0641C0.414503 13.8522 0.660891 13.7136 0.9315 13.6764L1.07812 13.6663H19.1647L19.2337 13.6692L19.3186 13.6591L19.5716 13.6462C19.8179 13.6166 20.0524 13.5238 20.2523 13.3768C20.4521 13.2298 20.6105 13.0335 20.712 12.8071C20.8135 12.5808 20.8548 12.332 20.8316 12.0849C20.8085 11.8379 20.7218 11.6011 20.5801 11.3975C20.4383 11.1939 20.2462 11.0304 20.0225 10.923C19.7989 10.8156 19.5512 10.768 19.3037 10.7847C19.0561 10.8014 18.8171 10.8818 18.6099 11.0183C18.4027 11.1547 18.2343 11.3425 18.1211 11.5632L17.9917 11.8608C17.8643 12.1027 17.6498 12.2872 17.3915 12.3769C17.1332 12.4666 16.8505 12.4548 16.6006 12.3439C16.3507 12.233 16.1522 12.0313 16.0454 11.7796C15.9386 11.5279 15.9314 11.245 16.0252 10.9882C16.2781 10.2955 16.7378 9.69729 17.3421 9.27457C17.9464 8.85185 18.6659 8.62508 19.4034 8.625ZM10.7784 1.43031C12.0608 1.42691 13.2962 1.91337 14.232 2.79028C15.1678 3.6672 15.7334 4.86836 15.8132 6.14833C15.893 7.4283 15.4811 8.69044 14.6615 9.67684C13.8419 10.6632 12.6766 11.2994 11.4037 11.4554L11.2599 11.4842L11.1119 11.4928H1.07812C0.804966 11.4927 0.542022 11.389 0.342424 11.2025C0.142826 11.016 0.0214563 10.7607 0.00283778 10.4882C-0.0157807 10.2156 0.0697407 9.94622 0.242122 9.73432C0.414503 9.52242 0.660891 9.38386 0.9315 9.34662L1.07812 9.33656H10.7798C11.3484 9.33656 11.9043 9.16795 12.3771 8.85204C12.8499 8.53613 13.2184 8.08712 13.436 7.56178C13.6536 7.03644 13.7105 6.45837 13.5996 5.90068C13.4886 5.34298 13.2148 4.83071 12.8127 4.42863C12.4107 4.02655 11.8984 3.75274 11.3407 3.64181C10.783 3.53087 10.2049 3.58781 9.6796 3.80541C9.15426 4.02301 8.70525 4.39151 8.38934 4.8643C8.07343 5.33709 7.90481 5.89294 7.90481 6.46156C7.90481 6.7475 7.79122 7.02172 7.58904 7.22391C7.38685 7.4261 7.11262 7.53969 6.82669 7.53969C6.54075 7.53969 6.26653 7.4261 6.06434 7.22391C5.86215 7.02172 5.74856 6.7475 5.74856 6.46156C5.74856 5.12719 6.27864 3.84747 7.22218 2.90393C8.16572 1.96039 9.44544 1.43031 10.7798 1.43031H10.7784ZM1.4375 1.4375C1.81875 1.4375 2.18438 1.58895 2.45397 1.85853C2.72355 2.12812 2.875 2.49375 2.875 2.875C2.875 3.25625 2.72355 3.62188 2.45397 3.89147C2.18438 4.16105 1.81875 4.3125 1.4375 4.3125C1.05625 4.3125 0.690617 4.16105 0.421034 3.89147C0.15145 3.62188 0 3.25625 0 2.875C0 2.49375 0.15145 2.12812 0.421034 1.85853C0.690617 1.58895 1.05625 1.4375 1.4375 1.4375ZM21.5625 0C21.9437 0 22.3094 0.15145 22.579 0.421034C22.8486 0.690617 23 1.05625 23 1.4375C23 1.81875 22.8486 2.18438 22.579 2.45397C22.3094 2.72355 21.9437 2.875 21.5625 2.875C21.1813 2.875 20.8156 2.72355 20.546 2.45397C20.2764 2.18438 20.125 1.81875 20.125 1.4375C20.125 1.05625 20.2764 0.690617 20.546 0.421034C20.8156 0.15145 21.1813 0 21.5625 0Z" fill="#60B6D9"/>
</svg>
